<svg width="458" height="458" fill="none" xmlns="http://www.w3.org/2000/svg"><path d="M457.503 229.176C457.503 102.844 355.091.432 228.759.432S.015 102.844.015 229.176s102.412 228.743 228.744 228.743 228.744-102.411 228.744-228.743Z" fill="#100F0D"/><mask id="mask0_538_7597" style="mask-type:luminance" maskUnits="userSpaceOnUse" x="8" y="8" width="443" height="444"><path d="M450.919 229.62c0-122.272-99.12-221.395-221.392-221.395-122.275 0-221.394 99.123-221.394 221.395s99.119 221.392 221.394 221.392c122.272 0 221.392-99.12 221.392-221.392Z" fill="#fff"/></mask><g mask="url('#mask0_538_7597')"><path d="M.101 440.972h454.171v-454.17H.102v454.17Z" fill="#8AC7B0"/></g><mask id="mask1_538_7597" style="mask-type:luminance" maskUnits="userSpaceOnUse" x="8" y="8" width="443" height="444"><path d="M450.919 229.62c0-122.272-99.12-221.395-221.392-221.395-122.275 0-221.394 99.123-221.394 221.395s99.119 221.392 221.394 221.392c122.272 0 221.392-99.12 221.392-221.392Z" fill="#fff"/></mask><g mask="url('#mask1_538_7597')"><mask id="mask2_538_7597" style="mask-type:luminance" maskUnits="userSpaceOnUse" x="0" y="-14" width="455" height="455"><path d="M.101 440.972h454.171v-454.17H.102v454.17Z" fill="#fff"/></mask><g mask="url('#mask2_538_7597')"><path d="M-113.439 440.972h681.252v-454.17h-681.252v454.17Z" fill="#8AC7B0"/><path d="M-113.439 440.972h681.252v-454.17h-681.252v454.17Z" fill="#CBEDE8"/><path d="M-113.439-13.197v246.136c12.679 12.002 26.185 23.046 40.853 32.672 21.722 14.252 45.503 25.042 69.39 35.26 3.887 1.661 7.783 3.308 11.683 4.941-1.166 1.136-1.091 3.465.956 4.172 11.336 3.917 21.194 11.381 30.729 18.465 9.739 7.24 19.585 13.679 30.245 19.48 23.006 12.522 47.463 25.467 74.112 26.68 4.916.223 5.795-7.234 1.144-8.466-25.438-6.755-49.722-16.391-73.276-28.074-10.838-5.374-21.025-12.657-31.548-19.146 43.512 16.98 87.954 31.529 133.598 41.25 84.244 17.938 171.512 19.134 257.106 9.518 13.81-1.554 27.628-3.399 41.368-5.683-11.302 4.373-22.865 8.059-34.69 10.859-21.343 5.06-43.188 7.086-65.066 7.953-21.332.845-43.104-.82-64.126 3.628-3.91.827-2.148 6.384 1.613 5.849 11.075-1.572 22.191-.989 33.324-.642a697.61 697.61 0 0 0 32.636.249c21.624-.332 43.336-2.033 64.525-6.504 20.472-4.324 40.151-11.679 59.202-20.227 8.908-3.996 17.65-8.35 26.326-12.829 13.967-3.86 27.715-8.416 41.148-13.831v-351.71h-681.252Z" fill="#BAE7DC"/><path d="M-113.439 123.795c75.472 55.765 157.646 102.446 246.826 130.856 114.972 36.628 242.658 41.122 354.976-2.979 27.657-10.859 54.133-24.527 79.45-40.108V-13.197h-681.252v136.992Z" fill="#A2DFC8"/><path d="M-113.439-.919C-73.806 31.904-32.956 63.253 12.1 87.924c113.447 62.119 245.992 77.996 375.113 85.561 60.522 3.55 122.634 5.315 180.6-11.622v-175.06h-681.252V-.92Z" fill="#8AC7B0"/><path d="M-23.899-13.197c145.744 76.214 318.054 101.145 479.26 68.045-18.118 6.636-37.212 10.865-56.498 11.057-2.475.024-2.464 3.763 0 3.834 24.29.685 47.737-5.02 70.125-14.131a332.257 332.257 0 0 0 18.739-8.31c18.83-5 37.34-11.123 55.134-19.018a297.408 297.408 0 0 0 24.952-12.525v-28.952H-23.899Z" fill="#77B09B"/><path d="M288.956 383.563c-9.272-1.039-18.828.136-28.161.052-3.963-.035-3.842 5.746 0 6.068 9.549.796 19.533 1.938 28.98-.058 3.678-.777 2.388-5.704-.819-6.062ZM65.485 305.299c-10.648-3.743-21.776-5.868-32.688-8.692-12.048-3.115-23.989-6.715-35.722-10.862-22.512-7.949-44.19-18.418-63.942-31.874-2.14-1.455-4.784 1.944-2.776 3.596 18.776 15.434 40.756 26.392 63.162 35.529a347.021 347.021 0 0 0 35.377 12.232c11.613 3.327 23.556 6.459 35.699 6.656 3.948.064 4.344-5.373.89-6.585ZM525.033 304.361c-14.728 6.534-28.83 14.332-43.397 21.208-14.465 6.827-29.316 12.818-44.605 17.535-16.616 5.127-33.711 8.356-50.996 10.145-18.103 1.87-36.256 2.019-54.388 3.324-2.468.179-2.471 3.656 0 3.832 35.381 2.511 71.685.256 105.982-9.068 31.795-8.64 63.375-22.885 91.216-40.452 4.21-2.656.56-8.465-3.812-6.524ZM221.579 349.411c-26.62-4.57-55.027-2.347-79.556-15.56-2.538-1.366-4.732 2.373-2.255 3.861 11.952 7.172 25.532 10.869 39.172 13.217 13.807 2.379 27.887 3.855 41.889 4.023 3.115.037 3.939-4.992.75-5.541ZM522.945 248.493c-9.954 4.447-18.698 11.262-28.176 16.635-9.717 5.508-19.838 10.193-30.298 14.092-21.239 7.915-43.835 12.327-66.516 12.328-3.176 0-3.135 4.739 0 4.897 23.316 1.191 46.458-2.357 68.664-9.428 10.841-3.453 21.429-7.826 31.69-12.726 10.536-5.027 21.747-10.462 29.86-19.027 3.554-3.751-.892-8.708-5.224-6.771ZM381.604 291.231c-5.779-.047-11.477-.859-17.257-.483-2.484.161-3.374 4.16-.624 4.599 5.958.952 11.834 1.608 17.881 1.42 3.561-.114 3.579-5.508 0-5.536ZM119.944 257.309c-30.005-7.54-59.897-17.048-87.913-30.246-12.923-6.087-25.528-12.976-38.114-19.73-12.238-6.564-24.398-13.773-34.244-23.692-1.754-1.764-4.352.884-2.71 2.71 9.284 10.317 20.929 18.122 32.697 25.318 12.6 7.707 25.417 15.179 38.575 21.887 28.429 14.488 58.365 25.4 90.012 29.913 3.949.56 5.797-5.129 1.697-6.16ZM178.089 286.327c-7.249-2.406-15.097-3.856-22.662-4.874-3.891-.521-4.675 5.955-.92 6.798 7.884 1.766 15.354 5.665 23.582 4.334 3.412-.55 2.775-5.34 0-6.258ZM244.229 302.381c-10.156-1.913-20.897-1.109-31.189-1.302a597.015 597.015 0 0 1-32.351-1.476c-21.813-1.592-43.557-4.64-64.818-9.82-1.934-.471-2.735 2.428-.819 2.978 20.921 6.019 42.317 9.848 63.937 12.259 10.752 1.203 21.547 2.005 32.346 2.6 10.776.595 22.222 1.793 32.894-.207 2.503-.469 2.499-4.558 0-5.032ZM229.003 319.171c-17.906 1.53-35.722 1.97-53.17-3.098-2.026-.588-2.697 2.328-.845 3.08 16.829 6.848 36.859 7.376 54.567 4.098 2.296-.428 1.777-4.278-.552-4.08ZM375.645 321.217c-12.849 3.172-25.266 7.766-38.148 10.86-13.229 3.175-26.768 4.684-40.369 4.19-1.729-.063-1.687 2.528 0 2.661 26.835 2.109 55.472-3.225 79.995-14.211 2.045-.914.553-4.001-1.478-3.5ZM327.107 299.4c-2.828-.309-5.692-.683-8.476-1.249-2.895-.592-4.103 3.882-1.218 4.41 3.264.6 6.382.878 9.694.564 2.409-.225 2.38-3.464 0-3.725ZM132.32 241.283c-35.287-11.034-70.075-24.567-100.288-46.27-2.203-1.584-4.163 1.992-2.093 3.584C59.8 221.589 94.973 235.864 131.3 244.976c2.404.607 3.372-2.957 1.019-3.693ZM328.921 263.604c-25.902-1.484-51.728-2.593-77.552-5.3-9.348-.977-18.738-1.581-28.068-2.756-9.393-1.183-19.536-3.188-27.206-9.071-1.248-.956-2.878 1.17-1.68 2.174 14.066 11.79 35.284 11.837 52.598 13.92 27.059 3.256 54.598 7.36 81.908 5.504 2.874-.196 2.888-4.307 0-4.471ZM388.873 248.432c-6.486.571-12.562 3.096-19.077 3.685-3.563.324-3.695 5.631 0 5.643 6.905.023 14.343-.756 20.525-3.972 2.459-1.28 1.414-5.609-1.448-5.356ZM544.499 203.681c-9.302 3.818-18.112 8.763-27.218 13.03a448.957 448.957 0 0 1-30.796 13.025c-20.31 7.735-41.318 13.816-62.558 18.419-1.762.381-.992 2.965.737 2.668 21.515-3.695 42.475-9.378 63.028-16.718 9.869-3.522 19.584-7.469 29.188-11.658 9.957-4.342 20.252-8.67 29.381-14.583 2.07-1.339.74-5.209-1.762-4.183ZM64.477 122.172c-22.13-7.064-43.796-14.057-64.66-24.447-20.456-10.186-39.924-22.138-58.913-34.824-1.622-1.085-3.028 1.463-1.505 2.572 18.857 13.768 38.237 26.968 58.864 37.963 20.132 10.727 42.028 20.64 64.63 24.483 3.738.636 5.303-4.56 1.584-5.747ZM112.324 136.875c-5.031-1.659-10.208-2.714-15.3-4.147-2.98-.837-4.244 3.784-1.276 4.621 5.301 1.488 10.605 2.606 16.08 3.186 2.187.23 2.392-3.034.496-3.66ZM458.813 182.708c-20.508 1.948-40.848 3.165-61.456 2.473-21.013-.705-41.977-2.51-62.985-3.332-1.737-.068-1.683 2.514 0 2.66 21.001 1.859 41.925 4.34 62.985 5.519 20.631 1.152 41.76 1.463 62.064-2.824 2.507-.529 1.971-4.741-.608-4.496ZM300.763 153.107c-47.083-6.027-95.047-5.556-140.498-20.964-1.381-.467-1.914 1.652-.594 2.156 44.908 17.104 93.596 19.89 141.092 22.64 2.524.145 2.376-3.53 0-3.832ZM344.364 161.652c-6.567-.473-13.092-1.435-19.488-2.977-2.335-.562-3.316 2.973-.991 3.593 6.758 1.799 13.47 2.927 20.479 2.472 1.992-.129 1.983-2.943 0-3.088ZM24.143 79.906C11.873 76.257 1.42 68.38-10.403 63.66c-1.577-.631-2.63 1.957-1.148 2.724 11.523 5.95 21.856 14.104 34.844 16.602 2.003.386 2.846-2.485.85-3.079ZM88.904 40.78c-17.648-6.047-35.39-11.721-52.719-18.667C18.08 14.856.381 6.583-17.367-1.5-18.96-2.224-20.36.036-18.764.89c16.88 9.022 33.97 17.56 51.47 25.318 17.73 7.864 35.871 15.245 54.81 19.603 3.299.757 4.556-3.944 1.388-5.031ZM322.563 81.67c-33.756 2.123-67.592 5.073-100.388-5.447-2.056-.662-2.826 2.437-.876 3.18 32.144 12.27 68.302 12.193 101.928 7.18 2.797-.416 2.128-5.09-.664-4.914ZM279.871 51.424c-34.762-2.201-69.643-1.673-104.064-7.747-1.87-.332-2.688 2.502-.792 2.872 34.497 6.756 69.809 7.907 104.856 8.602 2.421.046 2.377-3.575 0-3.727ZM378.879 48.645c-9.748 1.296-19.175 4.102-29.068 4.33-2.738.062-2.747 4.245 0 4.26 9.966.045 20.146-1.64 29.578-4.824 1.931-.652 1.74-4.062-.51-3.766ZM114.552 20.753c-6.332-.572-12.56-2.764-18.552-4.79-2.433-.822-3.383 2.914-1.045 3.798 6.5 2.456 12.55 4.631 19.597 4.295 2.149-.104 2.1-3.112 0-3.303Z" fill="#8AC7B0"/></g></g><mask id="mask3_538_7597" style="mask-type:luminance" maskUnits="userSpaceOnUse" x="8" y="8" width="443" height="444"><path d="M450.919 229.62c0-122.272-99.12-221.395-221.392-221.395-122.275 0-221.394 99.123-221.394 221.395s99.119 221.392 221.394 221.392c122.272 0 221.392-99.12 221.392-221.392Z" fill="#fff"/></mask><g mask="url('#mask3_538_7597')"><path d="M309.719 213.887c0 25.99-21.068 47.057-47.056 47.057-25.991 0-47.058-21.067-47.058-47.057 0-25.99 21.067-47.059 47.058-47.059 25.988 0 47.056 21.069 47.056 47.059Z" fill="#FEF5E0"/></g><mask id="mask4_538_7597" style="mask-type:luminance" maskUnits="userSpaceOnUse" x="8" y="8" width="443" height="444"><path d="M450.919 229.62c0-122.272-99.12-221.395-221.392-221.395-122.275 0-221.394 99.123-221.394 221.395s99.119 221.392 221.394 221.392c122.272 0 221.392-99.12 221.392-221.392Z" fill="#fff"/></mask><g mask="url('#mask4_538_7597')"><mask id="mask5_538_7597" style="mask-type:luminance" maskUnits="userSpaceOnUse" x="0" y="-14" width="455" height="455"><path d="M.101 440.972h454.171v-454.17H.102v454.17Z" fill="#fff"/></mask><g mask="url('#mask5_538_7597')"><path d="M168.733 168.769c-10.586 0-22.245-.22-34.829-.776-7.955-1.916-12.876-3.302-12.876-3.302-12.86-18.42-45.743-19.11-45.743-19.11.175-9.985-3.941-15.964-8.909-19.546.573-1.427.101-3.224-1.899-3.863a1765.693 1765.693 0 0 1-14.634-4.723 56.985 56.985 0 0 0-1.704-11.58 562.554 562.554 0 0 0 27.509 11.544c2.968 3.627 5.003 8.695 4.88 15.778 0 0 5.833.122 13.547 1.641-.12 1.047.366 2.148 1.673 2.517 5.263 1.478 10.531 2.59 15.963 3.174 5.66 2.76 10.914 6.556 14.56 11.778 0 0 51.153 14.427 90.328 14.427 2.764 0 5.469-.072 8.093-.225-10.692.953-30.108 2.266-55.959 2.266Zm-39.329-11.702c20.916 8.472 46.635 9.569 58.564 9.569 4.173 0 6.66-.133 6.66-.133-44.495-2.363-65.224-9.436-65.224-9.436Zm-71.335-44.491c-.625 0-1.266.019-1.932.056 0 0 21.564.595 21.324 20.965 0 0 1.798-21.021-19.392-21.021Z" fill="#BEE8D8"/><path d="M75.648 117.413a562.557 562.557 0 0 1-27.51-11.544 52.924 52.924 0 0 0-.642-2.3c1.285-1.853 2.6-3.688 3.94-5.498.476 2.249.785 4.64.89 7.173 0 0 .38-3.32-.231-8.059a202.98 202.98 0 0 1 1.653-2.184c1.69 7.5 1.35 13.296 1.35 13.296s13.163.09 20.55 9.116ZM66.376 126.035c-7.332-5.286-16.52-5.348-16.52-5.348s.07-1.21-.013-3.238c4.853 1.596 9.732 3.158 14.634 4.723 2 .639 2.472 2.436 1.899 3.863ZM111.711 140.523c-5.432-.584-10.7-1.696-15.963-3.174-1.307-.369-1.793-1.47-1.673-2.517 5.408 1.064 11.741 2.815 17.636 5.691Z" fill="#AFDAC7"/><path d="M133.909 167.995c-32.43-1.432-70.972-5.095-112.901-12.954.59-1.648 1.197-3.285 1.825-4.916a495.512 495.512 0 0 0 57.25 8.014s-24.148-3.087-56.524-9.875a220.466 220.466 0 0 1 13.068-27.373c7.192 2.565 14.506 4.697 21.904 6.21 2.216 1.28 12.272 7.818 11.725 20.854 0 0 3.053-15.608-11.005-20.708a132.9 132.9 0 0 0 3.642.672c.214.037.422.054.62.054 1.408 0 2.432-.864 2.863-1.938 4.968 3.582 9.084 9.561 8.91 19.546 0 0 32.882.69 45.742 19.11 0 0 4.921 1.386 12.876 3.302.001.002.003.002.005.002Zm-20.589-5.388c-8.973-9.519-23.533-10.656-29.984-10.656-2.025 0-3.253.113-3.253.113 18.406.356 33.237 10.543 33.237 10.543Zm-63.477-45.158a726.699 726.699 0 0 1-9.35-3.137c1.91-3.127 3.89-6.189 5.95-9.212.564.257 1.132.515 1.696.769a56.978 56.978 0 0 1 1.704 11.58Z" fill="#B8E6D3"/><path d="M48.139 105.869c-.564-.254-1.132-.512-1.696-.769.348-.511.701-1.024 1.053-1.531.236.778.45 1.546.643 2.3ZM63.513 127.973c-.198 0-.406-.017-.62-.054a132.9 132.9 0 0 1-3.642-.672 22.75 22.75 0 0 0-1.147-.382s.153.079.427.236c-7.398-1.513-14.712-3.645-21.904-6.21a223.116 223.116 0 0 1 3.866-6.579 726.699 726.699 0 0 0 9.35 3.137c.084 2.028.013 3.238.013 3.238s9.188.062 16.52 5.348c-.43 1.074-1.455 1.938-2.863 1.938Z" fill="#A9D2C1"/><path d="M80.083 158.139a495.512 495.512 0 0 1-57.25-8.014c.24-.624.48-1.24.726-1.861 32.376 6.788 56.524 9.875 56.524 9.875Z" fill="#BEE8D8"/><path d="M52.327 105.244a43.298 43.298 0 0 0-.891-7.173c.217-.295.439-.592.659-.886.612 4.739.232 8.059.232 8.059Z" fill="#A9D2C1"/><path d="M77.461 133.597c.24-20.37-21.324-20.965-21.324-20.965a34.76 34.76 0 0 1 1.932-.056c21.19 0 19.392 21.021 19.392 21.021ZM187.968 166.636c-11.929 0-37.648-1.097-58.564-9.569 0 0 20.729 7.073 65.224 9.436 0 0-2.487.133-6.66.133Z" fill="#B8E6D3"/><path d="M70.256 147.955c.547-13.036-9.51-19.574-11.725-20.854.238.05.48.098.72.146 14.058 5.1 11.005 20.708 11.005 20.708Z" fill="#BEE8D8"/><path d="M59.25 127.247c-.24-.048-.48-.096-.72-.146-.273-.157-.426-.236-.426-.236.393.12.776.247 1.147.382Z" fill="#AFDAC7"/><path d="M113.32 162.607s-14.83-10.187-33.237-10.543c0 0 1.228-.113 3.253-.113 6.45 0 21.011 1.137 29.984 10.656Z" fill="#BEE8D8"/><path d="M284.457 110.859c-25.852 0-45.273-1.315-55.965-2.27 2.625.154 5.333.226 8.101.226 39.175 0 90.32-14.424 90.32-14.424 12.86-18.42 45.744-19.114 45.744-19.114-.057-3.308.356-6.176 1.115-8.664 1.091-.092 2.167-.185 3.256-.282-1.693 4.842-1.308 9.356-1.308 9.356-.044-3.772.66-6.867 1.835-9.404l1.297-.118a224.314 224.314 0 0 1 4.903 4.619c-3.487 3.68-5.992 9.05-5.855 16.885 0 0-32.884.692-45.745 19.108 0 0-4.923 1.39-12.882 3.304a813.064 813.064 0 0 0 90.472-9.082c-49.009 7.726-92.36 9.858-125.288 9.86Zm39.323-11.703s-20.731 7.073-65.225 9.433c0 0 2.492.135 6.672.135 11.932 0 37.642-1.099 58.553-9.568Z" fill="#AFDAC7"/><path d="M373.772 66.613a21.635 21.635 0 0 1 1.489-3.66c.771.675 1.53 1.348 2.291 2.032-.195.45-.368.899-.524 1.346-1.089.097-2.165.19-3.256.282Zm3.783-.33c.142-.306.29-.603.445-.892.283.254.571.517.852.774-.44.04-.857.079-1.297.118Z" fill="#A2CAB7"/><path d="M319.273 110.081c7.959-1.914 12.882-3.304 12.882-3.304C345.016 88.361 377.9 87.669 377.9 87.669c-.137-7.836 2.368-13.205 5.855-16.885 1.072 1.041 2.13 2.09 3.181 3.153-5.867 6.598-4.008 16.106-4.008 16.106-.28-6.672 2.217-11.643 5.02-15.076a222.234 222.234 0 0 1 17.416 20.113c-19.461 3.51-32.264 5.148-32.264 5.148a492.595 492.595 0 0 0 33.269-3.827 221.186 221.186 0 0 1 3.376 4.598 813.064 813.064 0 0 1-90.472 9.082Zm50.579-16.042c-6.448 0-21.012 1.137-29.988 10.657 0 0 14.831-10.185 33.236-10.545 0 0-1.225-.112-3.248-.112Z" fill="#A9D2C1"/><path d="M373.1 100.228s12.803-1.637 32.264-5.148c.337.44.671.879 1.005 1.321a492.66 492.66 0 0 1-33.269 3.827Z" fill="#AFDAC7"/><path d="M375.72 75.687s-.386-4.514 1.308-9.356l.527-.048c-1.175 2.537-1.879 5.632-1.835 9.404Z" fill="#A9D2C1"/><path d="M377.028 66.33c.156-.446.329-.895.524-1.345l.448.406c-.155.289-.303.586-.445.892l-.527.048Z" fill="#9CC3B2"/><path d="M265.227 108.724c-4.18 0-6.672-.135-6.672-.135 44.494-2.36 65.225-9.433 65.225-9.433-20.911 8.469-46.621 9.568-58.553 9.568Z" fill="#A9D2C1"/><path d="M382.928 90.043s-1.859-9.508 4.008-16.106c.336.339.678.688 1.012 1.03-2.803 3.433-5.3 8.404-5.02 15.076ZM339.864 104.696c8.976-9.52 23.54-10.657 29.988-10.657 2.023 0 3.248.112 3.248.112-18.405.36-33.236 10.545-33.236 10.545ZM345.669 157.972a370.035 370.035 0 0 1-9.777-.737c1.964.116 3.996.169 6.067.169 1.3 0 2.62-.021 3.952-.061-.083.21-.163.418-.242.629ZM166.871 62.012c-25.851 0-45.272-1.315-55.963-2.27 2.625.155 5.332.227 8.1.227 15.984 0 33.963-2.402 49.645-5.245 2.776.559 5.531 1.097 8.314 1.624-9.551 1.36-21.515 2.627-35.996 3.395 0 0 2.493.134 6.676.134 7.381 0 20.024-.418 33.545-2.742a734.467 734.467 0 0 0 22.12 3.708l-1.623.393c1.074-.048 2.15-.097 3.236-.15h.002a792.46 792.46 0 0 1-38.056.926Z" fill="#AFDAC7"/><path d="M204.927 61.087h-.002a816.546 816.546 0 0 0 .002 0Zm-1.615-.244a734.467 734.467 0 0 1-22.12-3.708c7.701-1.323 15.688-3.264 23.145-6.096a482.784 482.784 0 0 0 15.078 1.486c-1.807 1.608-3.444 3.403-4.844 5.408 0 0-4.258 1.202-11.259 2.91Zm-26.345-4.495a730.42 730.42 0 0 1-8.314-1.624 503.424 503.424 0 0 0 24.568-5.112c3.567.508 7.136.967 10.716 1.381-3.866 1.095-12.74 3.328-26.97 5.355Zm47.38-7.527c-7.167-.4-14.322-.896-21.466-1.568 4.092-1.045 6.45-1.709 6.45-1.709 12.858-18.419 45.742-19.112 45.742-19.112-.128-7.295 2.035-12.45 5.147-16.096 1.1.153 2.203.315 3.297.483-6.218 6.217-5.38 16.02-5.38 16.02-.09-7.803 3.018-12.704 6.887-15.783 5.581.9 11.087 2.007 16.521 3.316-7.306 1.252-21.552 6.053-21.229 24.45 0 0-20.972.44-35.969 10Z" fill="#A2CAB7"/><path d="M219.415 52.525c-5.035-.42-10.062-.91-15.078-1.486.623-.236 1.243-.48 1.859-.728 0 0-.747.253-2.259.682a413.13 413.13 0 0 1-10.716-1.381c3.804-.89 7.079-1.7 9.66-2.359 7.144.672 14.299 1.168 21.466 1.568a38.616 38.616 0 0 0-4.932 3.704Z" fill="#AFDAC7"/><path d="m259.292 56.639.256-.03c-.077.008-.177.02-.256.03Zm.267-.031 1.289-.15-1.289.15Zm1.346-.157.203-.024-.203.024Zm.291-.035.167-.02a8.053 8.053 0 0 1-.167.02Zm.311-.037.148-.018-.148.018Zm.288-.034.148-.017-.148.017Zm.292-.034c.05-.007.102-.012.153-.02-.052.008-.101.013-.153.02Zm.436-.052.034-.004c-.009 0-.025.002-.034.004Zm.294-.036.082-.01-.082.01Zm.304-.036.078-.01a1.617 1.617 0 0 0-.078.01Zm.316-.04c.018 0 .036-.003.054-.006-.019.003-.036.006-.054.007Zm.335-.04h.015-.015Z" fill="#A2CAB7"/><path d="m201.689 61.236 1.623-.393c.536.08 1.077.162 1.613.244-1.086.052-2.162.101-3.236.149Z" fill="#A9D2C1"/><path d="m204.925 61.087-1.613-.244c7.001-1.708 11.259-2.91 11.259-2.91 1.4-2.005 3.037-3.8 4.844-5.408 2.005.168 4.012.324 6.02.47a27.075 27.075 0 0 0-3.156 2.853s1.713-1.176 4.697-2.744c15.164 1.063 30.375 1.553 45.555 1.893-2.938.388-5.856.759-8.744 1.11l-.015.001a22.748 22.748 0 0 1-.335.04l-.238.03a14.228 14.228 0 0 0-.3.036c-.028.002-.052.006-.082.009l-.26.032-.034.004c-.095.01-.188.022-.283.033l-.153.019a5.35 5.35 0 0 0-.144.017l-.148.017-.14.016a6.298 6.298 0 0 1-.148.018l-.144.017-.167.02-.088.01-.203.025-.057.006-1.289.151-.011.001-.256.03h-.016a816.546 816.546 0 0 1-54.351 4.448Zm76.712-7.348c.183-1.019-.414-2.228-1.766-2.315a902.46 902.46 0 0 0-15.534-.832 496.57 496.57 0 0 0 74.947-13.288 221.664 221.664 0 0 1 7.2 4.303c-22.465 5.205-44.208 9.16-64.847 12.132Zm-19.696-3.255c-8.874-.392-17.749-.712-26.617-1.113 5.591-2.092 12.587-3.919 20.192-4.066 0 0-1.227-.113-3.253-.113-4.455 0-12.778.543-20.459 4.015a923.342 923.342 0 0 1-7.457-.386c14.997-9.558 35.969-10 35.969-10-.323-18.396 13.923-23.197 21.229-24.449a219.883 219.883 0 0 1 55.263 21.537c-33.087 8.05-62.368 12.742-74.867 14.575Zm3.403-9.288c-.616-14.643 12.152-21.085 12.152-21.085-15.368 4.644-12.152 21.085-12.152 21.085Z" fill="#9CC3B2"/><path d="M272.531 54.997c-15.18-.34-30.391-.83-45.555-1.893a73.447 73.447 0 0 1 8.348-3.733c8.868.4 17.743.72 26.617 1.113-4.128.605-6.425.899-6.425.899 2.975-.24 5.915-.503 8.821-.791 5.179.237 10.359.505 15.534.832 1.352.087 1.949 1.296 1.766 2.315-3.061.44-6.094.86-9.106 1.258Zm-47.096-2.002a531.552 531.552 0 0 1-6.02-.47 38.624 38.624 0 0 1 4.932-3.704c2.482.139 4.972.267 7.457.386-2.213 1-4.372 2.244-6.369 3.788Z" fill="#A9D2C1"/><path d="m264.337 50.592-2.396-.108c12.499-1.833 41.78-6.525 74.867-14.575.828.46 1.655.926 2.476 1.395a496.57 496.57 0 0 1-74.947 13.288Z" fill="#A2CAB7"/><path d="M255.516 51.383s2.297-.294 6.425-.9l2.396.109c-2.906.288-5.846.552-8.821.79Z" fill="#AFDAC7"/><path d="M258.137 26.84s-.838-9.804 5.38-16.021c.5.077 1.007.157 1.507.237-3.869 3.079-6.977 7.98-6.887 15.784Z" fill="#9CC3B2"/><path d="M147.647 59.877c-4.183 0-6.676-.134-6.676-.134 14.481-.768 26.445-2.035 35.996-3.395 1.401.265 2.822.53 4.225.787-13.521 2.324-26.164 2.742-33.545 2.742Z" fill="#A9D2C1"/><path d="M181.192 57.135a747.974 747.974 0 0 1-4.225-.787c14.23-2.027 23.104-4.26 26.97-5.355l.4.046c-7.457 2.832-15.444 4.773-23.145 6.096Z" fill="#9CC3B2"/><path d="m204.337 51.039-.4-.046a52.657 52.657 0 0 0 2.259-.682c-.616.248-1.236.492-1.859.728Z" fill="#A9D2C1"/><path d="M265.344 41.196s-3.216-16.441 12.152-21.085c0 0-12.768 6.442-12.152 21.085ZM222.279 55.848a27.067 27.067 0 0 1 3.156-2.853c.513.037 1.028.074 1.541.109-2.984 1.568-4.697 2.744-4.697 2.744Zm13.045-6.477c-1.173-.054-2.347-.107-3.52-.164 7.681-3.472 16.004-4.015 20.459-4.015 2.026 0 3.253.113 3.253.113-7.605.147-14.601 1.974-20.192 4.066Z" fill="#A2CAB7"/><path d="M226.976 53.104c-.513-.035-1.028-.072-1.541-.11 1.997-1.543 4.156-2.786 6.369-3.787 1.173.057 2.347.11 3.52.163a73.463 73.463 0 0 0-8.348 3.734Z" fill="#AFDAC7"/><path d="M192.635 75.563c-11.052-15.828-39.31-16.422-39.31-16.422.371-21.24-21.853-21.392-21.853-21.392s2.023-34.513-31.08-39.433c-33.103-4.92-43.819 25.361-43.819 25.361C20.627-.727-.8 27.841-.8 27.841c-11.623-1.301-34.839-8.726-57.783-16.876v13.4c147.594 74.628 299.676 66.623 335.792 63.4-34.196 2.008-84.574-12.202-84.574-12.202Z" fill="#fff"/><path d="M188.131 86.21c-11.052-15.827-39.31-16.422-39.31-16.422.371-21.241-21.852-21.392-21.852-21.392s2.022-34.513-31.08-39.432C62.784 4.043 52.067 34.325 52.067 34.325 16.12 9.92-5.304 38.488-5.304 38.488c-10.863-1.215-31.85-7.781-53.28-15.285v1.162C36.098 72.24 132.622 86.105 199.2 89.048c-6.84-1.645-11.068-2.839-11.068-2.839Z" fill="#F1EBEC"/><path d="M31.02 51.71s49.445 23.035 121.925 28.87c0 0-67.258-8.6-121.925-28.87Z" fill="#fff"/><path d="M104.317 1.753s23.752 8.598 24.776 33.372c0 0 3.07-26.821-24.776-33.372ZM132.368 41.472s18.531.512 18.325 18.019c0 0 1.638-19.144-18.325-18.02ZM195.327 79.659s17.813 6.076 56.049 8.106c0 0-31.787 1.72-56.049-8.106ZM51.288 28.37s-24.363-21.294-50.57 0c0 0 23.85-25.8 50.57 0Z" fill="#F1EBEC"/><path d="M2.764 36.97s16.43-15.97 46.681 0c0 0-23.956-12.131-46.681 0ZM61.424 23.353s20.27-20.784 46.068-8.086c0 0-22.113-9.827-46.068 8.086ZM134.056 53.706s10.971 5.538 10.444 18.12c0 0 2.764-14.127-10.444-18.12ZM152.945 75.36s18.427-1.69 28.563 9.057c0 0-12.748-8.75-28.563-9.057ZM168.725 126.26c-5.086-7.289-18.101-7.564-18.101-7.564.171-9.781-10.065-9.851-10.065-9.851s.932-15.894-14.314-18.16c-15.245-2.268-20.18 11.679-20.18 11.679-16.557-11.24-26.424 1.917-26.424 1.917-5.352-.6-33.545-8.521-44.113-12.274l17.501 10.673c67.976 34.373 138.018 30.684 154.65 29.2-15.75.923-38.954-5.62-38.954-5.62Z" fill="#fff"/><path d="M166.653 131.161c-5.09-7.286-18.104-7.562-18.104-7.562.171-9.78-10.064-9.85-10.064-9.85s.931-15.894-14.314-18.161c-15.247-2.267-20.18 11.681-20.18 11.681-16.558-11.241-26.424 1.916-26.424 1.916-5.002-.56-32.17-13.722-42.039-17.178l17.501 10.673c43.606 22.051 88.059 28.437 118.722 29.792a149.15 149.15 0 0 1-5.098-1.311Z" fill="#F1EBEC"/><path d="M94.295 115.276s22.773 10.609 56.154 13.296c0 0-30.977-3.964-56.154-13.296Z" fill="#fff"/><path d="M128.053 92.268s10.939 3.959 11.411 15.371c0 0 1.412-12.355-11.411-15.371ZM140.972 110.561s8.533.235 8.44 8.299c0 0 .753-8.819-8.44-8.299ZM169.968 128.147s8.201 2.798 25.812 3.733c0 0-14.64.792-25.812-3.733ZM103.631 104.525s-11.222-9.806-23.292 0c0 0 10.988-11.881 23.292 0ZM59.124 99.952s5.564 4.291 15.841 5.988c0 0-9.746-2.545-15.841-5.988Z" fill="#F1EBEC"/><path d="M81.284 108.484s7.567-7.353 21.497 0c0 0-11.03-5.585-21.497 0ZM108.299 102.216s9.334-9.572 21.216-3.725c0 0-10.183-4.528-21.216 3.725ZM141.751 116.195s5.052 2.55 4.806 8.345c0 0 1.275-6.507-4.806-8.345ZM150.449 126.165s8.487-.778 13.154 4.174c0 0-5.871-4.032-13.154-4.174ZM193.495 153.387c-3.594-3.522-10.862-2.315-10.862-2.315-.928-5.459-6.628-4.429-6.628-4.429s-1.144-8.939-9.861-8.606c-8.719.332-10.007 8.606-10.007 8.606-10.385-4.522-14.498 3.829-14.498 3.829-3.04.225-19.555-1.236-25.826-2.219l10.854 4.108c41.408 12.02 79.986 2.647 89.085.083-8.665 2.16-22.257.943-22.257.943Z" fill="#fff"/><path d="M192.852 156.332c-3.591-3.523-10.859-2.316-10.859-2.316-.928-5.46-6.63-4.428-6.63-4.428s-1.143-8.94-9.86-8.607c-8.718.332-10.008 8.607-10.008 8.607-10.383-4.521-14.498 3.828-14.498 3.828-2.842.213-19.33-4.272-25.184-5.163l10.854 4.108c26.561 7.708 51.961 6.618 69.158 4.166-1.83-.092-2.973-.195-2.973-.195Z" fill="#F1EBEC"/><path d="M150.941 155.056s13.778 3.523 32.626 1.528c0 0-17.647 1.033-32.626-1.528Z" fill="#fff"/><path d="M167.316 138.729s6.497 1.058 7.953 7.356c0 0-.504-7.018-7.953-7.356ZM176.413 147.555s4.772-.762 5.562 3.733c0 0-.5-4.983-5.562-3.733ZM194.383 154.307s4.854.701 14.75-.619c0 0-8.062 1.969-14.75.619ZM155.009 148.1s-7.266-4.283-12.957 2.435c0 0 4.869-7.76 12.957-2.435ZM129.771 150.207s3.544 1.805 9.44 1.676c0 0-5.69-.399-9.44-1.676Z" fill="#F1EBEC"/><path d="M142.991 152.639s3.442-4.883 11.961-2.247c0 0-6.723-1.956-11.961 2.247ZM157.364 146.328s4.193-6.304 11.415-4.291c0 0-6.14-1.453-11.415 4.291ZM177.436 150.608s3.076.891 3.547 4.14c0 0 .029-3.753-3.547-4.14ZM183.316 155.245s4.64-1.318 7.755.947c0 0-3.686-1.629-7.755-.947ZM333.195 103.703c3.832-5.487 13.629-5.695 13.629-5.695-.129-7.363 7.576-7.416 7.576-7.416s-.701-11.967 10.776-13.67c11.477-1.706 15.191 8.793 15.191 8.793 12.465-8.464 19.892 1.442 19.892 1.442 4.03-.452 25.254-6.416 33.209-9.241l-13.175 8.036c-51.173 25.875-103.898 23.099-116.421 21.981 11.856.695 29.323-4.23 29.323-4.23Z" fill="#fff"/><path d="M334.756 107.393c3.832-5.486 13.628-5.693 13.628-5.693-.127-7.364 7.579-7.416 7.579-7.416s-.703-11.965 10.774-13.672c11.476-1.705 15.192 8.793 15.192 8.793 12.464-8.461 19.892 1.444 19.892 1.444 3.766-.424 24.218-10.33 31.647-12.933l-13.175 8.036c-32.825 16.599-66.29 21.407-89.374 22.424 2.372-.571 3.837-.983 3.837-.983Z" fill="#F1EBEC"/><path d="M389.225 95.432s-17.141 7.985-42.269 10.009c0 0 23.318-2.981 42.269-10.01Z" fill="#fff"/><path d="M363.816 78.112s-8.237 2.983-8.591 11.57c0 0-1.065-9.297 8.591-11.57ZM354.089 91.883s-6.422.178-6.352 6.246c0 0-.569-6.636 6.352-6.246ZM332.261 105.121s-6.176 2.108-19.43 2.812c0 0 11.02.596 19.43-2.812ZM382.199 87.34s8.448-7.381 17.534 0c0 0-8.27-8.944-17.534 0ZM415.703 83.897s-4.184 3.231-11.923 4.508c0 0 7.336-1.916 11.923-4.508Z" fill="#F1EBEC"/><path d="M399.023 90.323s-5.696-5.539-16.183 0c0 0 8.304-4.208 16.183 0ZM378.687 85.601s-7.03-7.205-15.972-2.802c0 0 7.666-3.408 15.972 2.802ZM353.505 96.124s-3.805 1.92-3.621 6.283c0 0-.959-4.898 3.621-6.283ZM346.956 103.632s-6.389-.585-9.903 3.14c0 0 4.42-3.033 9.903-3.14ZM297.924 136.809c3.592-3.522 10.859-2.316 10.859-2.316.929-5.46 6.632-4.428 6.632-4.428s1.141-8.94 9.86-8.608c8.717.335 10.005 8.607 10.005 8.607 10.385-4.524 14.499 3.829 14.499 3.829 3.04.227 19.554-1.237 25.825-2.218l-10.851 4.108c-41.408 12.017-79.989 2.648-89.086.082 8.665 2.16 22.257.944 22.257.944Z" fill="#fff"/><path d="M298.564 139.753c3.595-3.521 10.863-2.314 10.863-2.314.928-5.462 6.628-4.428 6.628-4.428s1.142-8.942 9.862-8.608c8.718.33 10.004 8.605 10.004 8.605 10.387-4.52 14.5 3.829 14.5 3.829 2.84.211 19.331-4.273 25.183-5.162l-10.851 4.108c-26.565 7.71-51.961 6.617-69.162 4.165a82.859 82.859 0 0 0 2.973-.195Z" fill="#F1EBEC"/><path d="M340.479 138.476s-13.778 3.524-32.63 1.529c0 0 17.648 1.034 32.63-1.529Z" fill="#fff"/><path d="M324.103 122.149s-6.499 1.06-7.952 7.359c0 0 .504-7.019 7.952-7.359ZM315.005 130.975s-4.773-.76-5.562 3.736c0 0 .501-4.983 5.562-3.736ZM297.037 137.729s-4.858.7-14.75-.621c0 0 8.06 1.972 14.75.621ZM336.408 131.52s7.268-4.283 12.959 2.435c0 0-4.87-7.759-12.959-2.435ZM361.647 133.629s-3.543 1.803-9.439 1.675c0 0 5.689-.397 9.439-1.675Z" fill="#F1EBEC"/><path d="M348.427 136.059s-3.442-4.88-11.959-2.246c0 0 6.72-1.954 11.959 2.246ZM334.053 129.748s-4.193-6.3-11.413-4.291c0 0 6.137-1.452 11.413 4.291ZM313.983 134.028s-3.078.891-3.547 4.143c0 0-.028-3.754 3.547-4.143ZM308.101 138.668s-4.64-1.319-7.753.945c0 0 3.688-1.628 7.753-.945ZM376.76 60.376c5.304-11.175 23.096-14.548 23.096-14.548-2.489-13.383 11.536-15.836 11.536-15.836S406.455 8.4 426.849 1.779c20.396-6.622 30.38 11.377 30.38 11.377 20.124-19.236 36.692-3.457 36.692-3.457 7.208-2.054 21.088-9.211 34.723-16.795l1.423 8.467c-85.344 62.817-182.29 73.893-205.452 75.688 21.82-2.36 52.145-16.683 52.145-16.683Z" fill="#fff"/><path d="M380.736 66.625c5.303-11.174 23.094-14.548 23.094-14.548-2.488-13.381 11.539-15.834 11.539-15.834s-4.938-21.594 15.455-28.215c20.396-6.621 30.38 11.377 30.38 11.377 20.126-19.236 36.695-3.457 36.695-3.457 6.734-1.921 19.299-8.296 32.043-15.312l.124.735C475.317 41.667 415.8 60.67 374.042 69.593c4.15-1.766 6.694-2.968 6.694-2.968Z" fill="#F1EBEC"/><path d="M476.349 28.157s-28.8 19.8-73.978 31.178c0 0 41.586-12.57 73.978-31.178Z" fill="#fff"/><path d="M424.735 4.365s-14.096 7.954-12.116 23.718c0 0-4.786-16.623 12.116-23.718ZM411.223 32.44s-11.654 2.29-9.667 13.33c0 0-3.064-11.922 9.667-13.33ZM375.493 63.25s-10.61 5.729-34.556 11.069c0 0 20.267-2.287 34.556-11.07Z" fill="#F1EBEC"/><path d="M454.129 13.464s-15.013-10.98-29.968-.221c0 0 12.931-8.556 29.968.22ZM411.453 40.35s-6.342 4.663-4.673 12.557c0 0-3.247-8.632 4.673-12.556ZM401.816 56.036s-11.82.885-17.087 8.753c0 0 7.127-6.881 17.087-8.753Z" fill="#fff"/><path d="M174.453 436.577c-7.753 0-15.902-.08-24.406-.26-27.747-10.676-52.808-26.782-73.868-47.012 13.046 4.031 26.892 10.944 35.164 22.792 0 0 76.029 21.443 134.262 21.443 4.111 0 8.139-.107 12.038-.336-15.892 1.419-44.763 3.373-83.19 3.373ZM116 419.183c31.087 12.589 69.309 14.222 87.044 14.222 6.211 0 9.911-.201 9.911-.201C146.813 429.696 116 419.183 116 419.183Z" fill="#DBF3F0"/><path d="M203.044 433.405c-17.735 0-55.957-1.633-87.044-14.222 0 0 30.813 10.513 96.955 14.021 0 0-3.7.201-9.911.201Z" fill="#D5F1EA"/><path d="M346.476 350.495c-38.427 0-67.292-1.954-83.185-3.372 3.9.228 7.922.334 12.032.334 58.232.002 134.265-21.445 134.265-21.445 6.743-9.656 17.191-16.035 27.888-20.247a220.222 220.222 0 0 1-15.153 32.764 44.838 44.838 0 0 0-4.942 5.9s-7.316 2.064-19.145 4.912a1178.663 1178.663 0 0 1-51.76 1.154Zm58.456-17.398s-30.813 10.516-96.953 14.026c0 0 3.698.2 9.909.2 17.736 0 55.96-1.634 87.044-14.226Zm2.181 15.819.33-.017-.33.017Zm.348-.017.335-.018-.335.018Zm.34-.019.667-.035-.667.035Zm.704-.036.295-.016-.295.016Zm.752-.04.222-.012-.222.012Zm.291-.016c.095-.005.189-.009.283-.015l-.283.015Zm.373-.02.262-.013-.262.013Zm.387-.021.164-.008-.164.008Zm.359-.019Zm.3-.016Zm.37-.021.178-.01-.178.01Zm.395-.022.101-.005-.101.005Zm.416-.022Zm.651-.038h.01-.01Z" fill="#CFEFE6"/><path d="M398.236 349.341c11.829-2.848 19.145-4.912 19.145-4.912a44.831 44.831 0 0 1 4.941-5.9 221.227 221.227 0 0 1-5.933 9.874c-1.197.07-2.393.14-3.58.206h-.01a115.827 115.827 0 0 1-.651.038c-.102.005-.213.01-.315.017l-.101.005-.218.012-.177.01a16.355 16.355 0 0 0-.37.021c-.044.001-.087.004-.131.007a4.657 4.657 0 0 0-.169.009l-.195.011a8.998 8.998 0 0 0-.164.008l-.125.008-.262.013-.09.005c-.094.006-.189.01-.283.015l-.07.004-.221.012-.13.007-.244.013-.083.004-.295.016-.037.001-.667.035-.005.001-.335.018h-.019l-.329.017-.016.001c-2.989.154-5.937.295-8.861.424ZM317.888 347.323c-6.211 0-9.909-.2-9.909-.2 66.14-3.51 96.953-14.026 96.953-14.026-31.084 12.592-69.308 14.226-87.044 14.226Z" fill="#C9ECE2"/><path d="M171.688 277.887c-38.427.001-67.288-1.954-83.181-3.372 3.9.229 7.929.336 12.038.336 24.452.001 52.038-3.78 75.819-8.167 3.779.913 7.565 1.792 11.361 2.635-14.362 2.078-32.485 4.026-54.532 5.196 0 0 3.7.2 9.907.2 11.049 0 30.055-.634 50.331-4.158a607.686 607.686 0 0 0 31.492 5.822l-1.471.354a1174.203 1174.203 0 0 1-51.764 1.154Z" fill="#CFEFE6"/><path d="M224.923 276.379a607.686 607.686 0 0 1-31.492-5.822c12.05-2.093 24.545-5.206 36.092-9.816 5.988.703 11.94 1.162 17.49 1.83 1.222.146 2.446.296 3.67.446-3.036 2.582-5.776 5.502-8.084 8.807 0 0-6.712 1.892-17.676 4.555Zm-37.198-7.06a629.445 629.445 0 0 1-11.361-2.635c15.156-2.796 28.763-5.837 39.027-8.303 4.576 1.083 9.309 1.791 14.018 2.347-3.193 1.003-16.797 4.992-41.684 8.591Zm57.823-11.583c-6.629-.612-13.269-1.133-19.883-1.903 5.808-1.486 9.14-2.426 9.14-2.426.247-.354.499-.702.755-1.046a46.976 46.976 0 0 0 9.988 5.375Z" fill="#BEE8D8"/><path d="M250.683 263.017c-1.224-.15-2.448-.3-3.67-.446-5.55-.668-11.502-1.127-17.49-1.83.208-.082.418-.168.625-.252 0 0-.245.084-.739.239-4.709-.556-9.442-1.264-14.018-2.347a704.11 704.11 0 0 0 10.274-2.548c6.614.77 13.254 1.291 19.883 1.903a46.613 46.613 0 0 0 8.74 2.465 56.068 56.068 0 0 0-3.605 2.816Z" fill="#AFDAC7"/><path d="M298.376 244.531c7.069-8.234 11.343-18.94 11.343-30.644 0-.463-.007-.926-.02-1.386 7.333-17.454 29.357-18.062 29.357-18.062a50.588 50.588 0 0 0-2.868-.083c-16.32 0-23.468 8.385-26.567 16.469a46.932 46.932 0 0 0-1.048-7.305c10.59-15.379 32.03-15.523 32.03-15.523s-.063-1.062-.035-2.922c3.327.31 6.651.632 9.973.957-2.672 11.449-2.149 20.384-2.149 20.384s-38.44.259-37.799 37c0 0-4.905.103-12.217 1.115Zm53.023-61.84c-2.207-.127-4.414-.248-6.62-.363a62.959 62.959 0 0 1 1.729-11.54c3.013.225 6.025.445 9.037.659-1.785 3.804-3.132 7.612-4.146 11.244Zm-6.767-.371a866.809 866.809 0 0 0-3.959-.197c.17-3.048.568-7.094 1.468-11.667 1.014.077 2.02.155 3.032.231-.768 5.41-.66 9.689-.541 11.633Z" fill="#BEE8D8"/><path d="M355.545 171.447c-3.012-.214-6.024-.434-9.037-.659a59.144 59.144 0 0 1 4.64-12.505c3.712.186 7.844.352 12.36.469-3.328 4.043-5.929 8.365-7.963 12.695Zm-10.372-.76c-1.012-.076-2.018-.154-3.032-.231a82.751 82.751 0 0 1 1.324-5.665c.299-.015.599-.031.899-.051 1.983-.129 1.983-2.919.027-3.085.386-1.216.81-2.446 1.278-3.683.866.055 1.754.108 2.68.16-1.678 4.464-2.64 8.785-3.176 12.555ZM350.541 186.032c-3.322-.325-6.646-.647-9.973-.957a77.23 77.23 0 0 1 .105-2.952c1.32.062 2.64.129 3.959.197.044.739.091 1.14.091 1.14.014-.38.033-.757.056-1.132 2.206.115 4.413.236 6.62.363a79.16 79.16 0 0 0-.858 3.341Z" fill="#AFDAC7"/><path d="M343.465 164.791c.282-1.032.588-2.08.926-3.136 1.956.166 1.956 2.956-.027 3.085-.3.02-.6.036-.899.051Z" fill="#AFDAC7"/><path d="M254.288 260.201a46.613 46.613 0 0 1-8.74-2.465 46.976 46.976 0 0 1-9.988-5.375c19.615-26.36 67.241-27.36 67.241-27.36-.162-9.302 2.182-16.268 5.772-21.481a46.932 46.932 0 0 1 1.048 7.305c-2.884 7.52-2.264 14.78-2.264 14.78-.06-5.18.828-9.501 2.342-13.104.013.46.02.923.02 1.386 0 11.704-4.274 22.41-11.343 30.644-11.916 1.648-30.221 5.71-44.088 15.67Z" fill="#FFF9EB"/><path d="M345.911 157.343c2.622-6.755 6.518-13.712 12.29-19.827 2.175-.52 4.358-1.096 6.552-1.733l.563-.214c-8.557 6.263-13.631 14.126-16.619 21.662-.934.046-1.864.084-2.786.112Zm5.88-.295c12.201-22.779 35.786-31.319 35.786-31.319-6.773 1.594-12.49 3.882-17.313 6.636-2.281.259-4.845.516-7.379.747 7.618-6.352 17.818-11.295 31.479-13.325 4.303-.64 8.389-.936 12.264-.936 5.645 0 10.845.629 15.625 1.736a219.77 219.77 0 0 1 7.244 13.905c-2.785.744-5.713 1.74-8.521 3.067a72.905 72.905 0 0 0-6.557-.291c-3.875 0-7.96.296-12.263.935-16.405 2.438-27.825 9.08-35.767 17.314-4.838.663-9.765 1.202-14.598 1.531Z" fill="#AFDAC7"/><path d="M363.508 158.752a511.666 511.666 0 0 1-12.36-.469c.211-.415.425-.828.643-1.235 4.833-.329 9.76-.868 14.598-1.531-.413.428-.814.859-1.209 1.295-2.168.156-4.425.299-6.769.423 0 0 1.865.101 4.997.101.415 0 .852-.001 1.311-.005a50.02 50.02 0 0 0-1.211 1.421Zm-15.159-.62a365.58 365.58 0 0 1-2.68-.16c.079-.211.159-.419.242-.629.922-.028 1.852-.066 2.786-.112-.118.301-.234.601-.348.901Zm83.427-18.703a66.281 66.281 0 0 0-10.8-1.87c2.808-1.327 5.736-2.323 8.521-3.067.779 1.636 1.539 3.28 2.279 4.937Z" fill="#C7E7D9"/><path d="M363.408 157.336c-3.132 0-4.997-.101-4.997-.101 2.344-.124 4.601-.267 6.769-.423a44.98 44.98 0 0 0-.461.519c-.459.004-.896.005-1.311.005Z" fill="#C4E2D5"/><path d="M360.837 134.911a53.378 53.378 0 0 1 2.048-1.799c2.533-.231 5.097-.488 7.379-.747-.347.199-.691.4-1.03.603-2.648.599-5.608 1.301-8.397 1.943Z" fill="#fff"/><path d="M358.201 137.516a54.081 54.081 0 0 1 2.636-2.605c2.79-.642 5.749-1.344 8.397-1.943a52.298 52.298 0 0 0-3.918 2.601l-.563.214a141.786 141.786 0 0 1-6.552 1.733Z" fill="#F7F3F3"/><path d="M223.449 276.735c.002 0 .003-.002.003-.002l1.471-.354 1.434.224-2.908.132Z" fill="#C9ECE2"/><path d="m226.357 276.603-1.434-.224c10.964-2.663 17.676-4.555 17.676-4.555 2.308-3.305 5.048-6.225 8.084-8.807 2.86.35 5.724.706 8.593 1.06a40.533 40.533 0 0 0-5.223 4.647s2.758-1.893 7.528-4.363c17.639 2.167 35.427 4.178 53.168 4.178 2.115 0 4.23-.03 6.343-.09a1212.194 1212.194 0 0 1-94.735 8.154Zm104.268-9.392c.964-1.268.403-3.487-1.704-3.607-19.184-1.099-38.325-1.992-57.454-3.481a46.759 46.759 0 0 0 12.777-4.408c5.903-1.488 12.395-2.53 19.217-2.662 0 0-1.824-.168-4.84-.168-2.721 0-6.412.138-10.61.656a47.294 47.294 0 0 0 10.365-9.01c7.312-1.012 12.217-1.115 12.217-1.115-.641-36.741 37.799-37 37.799-37s-.523-8.935 2.149-20.384c15.59 1.525 31.166 3.12 46.816 3.996 7.704.429 15.48.743 23.254.743 8.912 0 17.825-.411 26.634-1.528a222.514 222.514 0 0 1 3.659 42.997c-76.26 20.743-147.443 29.844-147.443 29.844a733.96 733.96 0 0 0 63.771-7.971c-.535 1.624.288 3.64 2.564 3.647h.299c6.821 0 14.133-.801 20.226-3.972 1.552-.808 1.708-2.831.892-4.149 22.571-4.598 42.623-9.782 59.646-14.794a227.97 227.97 0 0 1-.255 6.695 458.656 458.656 0 0 1-26.677 6.615c-1.571.34-1.13 2.432.21 2.669-32.47 7.075-63.808 12.408-93.512 16.387Zm-12.554-20.267c-.916-21.767 18.064-31.345 18.064-31.345-22.843 6.908-18.064 31.345-18.064 31.345Zm91.172-61.567c-3.955 0-7.914-.062-11.886-.196-15.334-.514-30.641-1.614-45.958-2.49 1.014-3.632 2.361-7.44 4.146-11.244 10.571.749 21.132 1.421 31.668 2.038 18.936 1.111 38.042 2.047 57.112 2.29a220.222 220.222 0 0 1 1.848 8.032c-12.306.961-24.586 1.57-36.93 1.57Z" fill="#B8E6D3"/><path d="M444.325 175.775c-19.071-.243-38.176-1.179-57.112-2.29a2592.488 2592.488 0 0 1-31.668-2.038c2.033-4.33 4.635-8.652 7.963-12.695 4.412.115 9.193.183 14.309.183 16.889 0 37.45-.75 60.515-3.08a218.922 218.922 0 0 1 5.993 19.92ZM314.749 268.539c-17.741 0-35.529-2.011-53.168-4.178a109.718 109.718 0 0 1 8.727-4.034c.388-.064.773-.132 1.159-.204 19.129 1.489 38.27 2.382 57.454 3.481 2.107.12 2.668 2.339 1.704 3.607-3.19.428-6.381.842-9.533 1.238-2.113.06-4.228.09-6.343.09Zm-55.473-4.462c-2.869-.354-5.733-.71-8.593-1.06a56.068 56.068 0 0 1 3.605-2.816 47.372 47.372 0 0 0 9.836.722 45.236 45.236 0 0 0-4.848 3.154ZM370.095 257.76h-.299c-2.276-.007-3.099-2.023-2.564-3.647a740.802 740.802 0 0 0 23.981-4.474c.816 1.318.66 3.341-.892 4.149-6.093 3.171-13.405 3.972-20.226 3.972ZM424.137 250.824c-1.34-.237-1.781-2.329-.21-2.669a458.656 458.656 0 0 0 26.677-6.615 216.232 216.232 0 0 1-.196 3.231 1131.775 1131.775 0 0 1-26.271 6.053ZM420.611 190.771c-7.774 0-15.55-.314-23.254-.743-15.65-.876-31.226-2.471-46.816-3.996a79.16 79.16 0 0 1 .858-3.341c15.317.876 30.624 1.976 45.958 2.49 3.972.134 7.931.196 11.886.196 12.344 0 24.624-.609 36.93-1.57.38 1.805.736 3.614 1.072 5.436-8.809 1.117-17.722 1.528-26.634 1.528Z" fill="#A9D2C1"/><path d="M262.663 260.944c-2.858 0-5.656-.255-8.375-.743 13.867-9.96 32.172-14.022 44.088-15.67a47.294 47.294 0 0 1-10.365 9.01c-7.252.896-16.018 2.934-23.887 7.382-.485.014-.972.021-1.461.021Zm7.645-.617a103.445 103.445 0 0 1 13.936-4.612 46.759 46.759 0 0 1-13.936 4.612Z" fill="#FBF2E4"/><path d="M366.389 155.517c7.941-8.234 19.361-14.876 35.767-17.314 4.302-.639 8.388-.935 12.263-.935 2.256 0 4.441.1 6.557.291-2.542 1.201-4.984 2.674-7.142 4.482a63.729 63.729 0 0 0-2.322-.042c-9.07 0-18.983 1.966-29.426 7.105 0 0 10.468-4.652 26.384-4.652.922 0 1.859.016 2.815.049a22.288 22.288 0 0 0-1.663 2.095s-20.642 5.824-43.233 8.921Z" fill="#A9D2C1"/><path d="M377.817 158.935c-5.116 0-9.897-.068-14.309-.183a50.02 50.02 0 0 1 1.211-1.421c9.409-.083 27.618-1.112 42.557-7.164 0 0-13.421 4.58-42.096 6.645.395-.436.796-.867 1.209-1.295 22.591-3.097 43.234-8.921 43.234-8.921a22.116 22.116 0 0 1 1.662-2.095c4.548.156 9.487.706 14.711 1.842-4.816 2.112-9.388 5.154-12.447 9.536 0 0-3.688 1.04-9.649 2.473a610.496 610.496 0 0 0 34.432-2.499v.002c-23.065 2.33-43.625 3.08-60.515 3.08Zm52.326-14.18c-4.998-1.48-10.464-2.496-16.308-2.714 2.157-1.808 4.6-3.281 7.141-4.482 3.824.345 7.42.988 10.8 1.87a219.968 219.968 0 0 1 1.86 4.287 56.896 56.896 0 0 0-3.493 1.039Z" fill="#C3E1D3"/><path d="M403.9 158.352c5.961-1.433 9.649-2.473 9.649-2.473 3.059-4.382 7.631-7.424 12.447-9.536 1.716.373 3.464.809 5.239 1.317-4.163 1.105-8.558 3.1-11.911 6.656 0 0 5.544-3.807 13.66-6.136.941.291 1.887.6 2.841.932a218.004 218.004 0 0 1 2.507 6.741 610.496 610.496 0 0 1-34.432 2.499Zm30.792-12.085a71.927 71.927 0 0 0-4.549-1.512 56.896 56.896 0 0 1 3.493-1.039c.357.848.709 1.699 1.056 2.551ZM364.719 157.331c.152-.174.306-.347.461-.519 28.675-2.065 42.096-6.645 42.096-6.645-14.939 6.052-33.148 7.081-42.557 7.164Z" fill="#BFDCCF"/><path d="M419.324 154.316c3.353-3.556 7.748-5.551 11.911-6.656.58.165 1.164.339 1.749.52-8.116 2.329-13.66 6.136-13.66 6.136Z" fill="#C3E1D3"/><path d="M303.461 262.084s71.183-9.101 147.443-29.844c-.011.871-.025 1.737-.045 2.605-17.023 5.012-37.075 10.196-59.646 14.794-.44-.711-1.162-1.218-2.101-1.218-.079 0-.159.003-.239.011-6.486.571-12.562 3.096-19.077 3.685-1.368.124-2.231.984-2.564 1.996a733.96 733.96 0 0 1-63.771 7.971Z" fill="#BEE8D8"/><path d="M367.232 254.113c.333-1.012 1.196-1.872 2.564-1.996 6.515-.589 12.591-3.114 19.077-3.685.08-.008.16-.011.239-.011.939 0 1.661.507 2.101 1.218a740.802 740.802 0 0 1-23.981 4.474Z" fill="#AFDAC7"/><path d="m344.779 182.328-.147-.008c-.119-1.944-.227-6.223.541-11.633l1.335.101a62.959 62.959 0 0 0-1.729 11.54Z" fill="#B8E6D3"/><path d="m346.508 170.788-1.335-.101c.536-3.77 1.498-8.091 3.176-12.555.904.051 1.838.101 2.799.151a59.144 59.144 0 0 0-4.64 12.505ZM344.722 183.46s-.046-.401-.09-1.14l.147.008c-.023.375-.042.752-.057 1.132ZM348.697 157.231c2.988-7.536 8.062-15.399 16.619-21.662l10.288-3.894-.156.024c-1.356.208-3.157.437-5.184.666 4.823-2.754 10.54-5.042 17.313-6.636 0 0-23.585 8.54-35.786 31.319-1.036.071-2.068.132-3.094.183Z" fill="#A9D2C1"/><path d="M351.148 158.283c-.961-.05-1.895-.1-2.799-.151.114-.3.23-.6.348-.901 1.026-.051 2.058-.112 3.094-.183-.218.407-.432.82-.643 1.235Z" fill="#C3E1D3"/><path d="M369.235 132.968c.338-.203.682-.404 1.029-.603 2.027-.229 3.828-.458 5.184-.666-1.532.241-3.736.71-6.213 1.269Z" fill="#FCFBFC"/><path d="M365.316 135.569a52.115 52.115 0 0 1 3.919-2.601c2.477-.559 4.681-1.028 6.213-1.269l.156-.024-10.288 3.894Z" fill="#F1EBEC"/><path d="M309.699 212.501a48.846 48.846 0 0 0-.078-1.676c3.099-8.084 10.247-16.469 26.567-16.469.927 0 1.881.027 2.868.083 0 0-22.024.608-29.357 18.062Z" fill="#B8E6D3"/><path d="M307.357 225.605s-.62-7.26 2.264-14.78c.035.556.062 1.115.078 1.676-1.514 3.603-2.402 7.924-2.342 13.104Z" fill="#FBF2E4"/><path d="M143.1 274.715c-6.207 0-9.907-.2-9.907-.2 22.047-1.17 40.17-3.118 54.532-5.196 1.899.422 3.803.836 5.706 1.238-20.276 3.524-39.282 4.158-50.331 4.158Z" fill="#C9ECE2"/><path d="M193.431 270.557a557.228 557.228 0 0 1-5.706-1.238c24.887-3.599 38.491-7.588 41.684-8.591l.114.013c-11.547 4.61-24.042 7.723-36.092 9.816Z" fill="#B8E6D3"/><path d="m229.523 260.741-.114-.013c.494-.155.739-.239.739-.239-.207.084-.417.17-.625.252Z" fill="#A9D2C1"/><path d="M382.087 149.104c10.442-5.139 20.356-7.105 29.425-7.105.78 0 1.555.014 2.323.042a24.89 24.89 0 0 0-2.55 2.46 81.527 81.527 0 0 0-2.814-.049c-15.916 0-26.384 4.652-26.384 4.652Z" fill="#AFDAC7"/><path d="M425.996 146.343a82.506 82.506 0 0 0-14.711-1.842 24.89 24.89 0 0 1 2.55-2.46c5.844.218 11.31 1.234 16.308 2.714-1.383.46-2.775.985-4.147 1.588Z" fill="#C7E7D9"/><path d="M435.825 149.112c-.955-.332-1.9-.641-2.841-.932a49.06 49.06 0 0 1 2.241-.588c.201.504.403 1.015.6 1.52Zm-4.591-1.452a83.273 83.273 0 0 0-5.238-1.317 47.941 47.941 0 0 1 4.146-1.588c1.563.461 3.082.97 4.55 1.512l.246.61a37.896 37.896 0 0 0-3.704.783Z" fill="#C4E2D5"/><path d="M432.984 148.18a79.777 79.777 0 0 0-1.749-.52 37.773 37.773 0 0 1 3.704-.783l.286.715a49.06 49.06 0 0 0-2.241.588Z" fill="#C7E7D9"/><path d="M318.071 246.944s-4.779-24.437 18.064-31.345c0 0-18.98 9.578-18.064 31.345ZM254.053 268.724a40.533 40.533 0 0 1 5.223-4.647l2.305.284c-4.77 2.47-7.528 4.363-7.528 4.363Z" fill="#BEE8D8"/><path d="m261.581 264.361-2.305-.284a45.236 45.236 0 0 1 4.848-3.154 47.305 47.305 0 0 0 6.184-.596 109.718 109.718 0 0 0-8.727 4.034Z" fill="#AFDAC7"/><path d="M284.244 255.715a47.26 47.26 0 0 0 3.767-2.174 87.532 87.532 0 0 1 10.61-.656c3.016 0 4.84.168 4.84.168-6.822.132-13.314 1.174-19.217 2.662Z" fill="#BEE8D8"/><path d="M264.124 260.923c7.869-4.448 16.635-6.486 23.887-7.382a47.26 47.26 0 0 1-3.767 2.174 103.445 103.445 0 0 0-13.936 4.612c-2.021.33-4.085.532-6.184.596Z" fill="#FFF9EB"/><path d="M209.989 298.028c-16.425-23.527-58.429-24.409-58.429-24.409.551-31.574-32.483-31.796-32.483-31.796s3.006-51.302-46.201-58.616c-49.208-7.315-65.137 37.698-65.137 37.698-53.435-36.274-85.28 6.188-85.28 6.188-17.276-1.933-51.785-12.973-85.893-25.086v19.918c219.395 110.934 445.461 99.036 499.143 94.242-50.833 2.985-125.72-18.139-125.72-18.139Z" fill="#fff"/><path d="M203.295 313.856c-16.428-23.528-58.431-24.412-58.431-24.412.551-31.573-32.483-31.796-32.483-31.796s3.004-51.303-46.201-58.617c-49.208-7.314-65.135 37.698-65.135 37.698-53.437-36.274-85.28 6.191-85.28 6.191-16.149-1.808-47.345-11.571-79.199-22.724v1.729c140.738 71.164 284.219 91.78 383.182 96.148-10.167-2.445-16.453-4.217-16.453-4.217Z" fill="#F1EBEC"/><path d="M-30.244 262.573s73.497 34.239 181.236 42.914c0 0-99.976-12.784-181.236-42.914Z" fill="#fff"/><path d="M78.71 188.313s35.306 12.782 36.827 49.608c0 0 4.564-39.868-36.826-49.608ZM120.405 247.356s27.544.761 27.24 26.783c0 0 2.435-28.456-27.24-26.783ZM213.991 304.116s26.478 9.036 83.314 12.051c0 0-47.249 2.557-83.314-12.051Z" fill="#F1EBEC"/><path d="M14.95 220.421s30.13-30.892 68.478-12.021c0 0-32.87-14.608-68.477 12.021ZM122.917 265.541s16.307 8.228 15.522 26.932c0 0 4.108-21-15.522-26.932ZM150.992 297.725s27.392-2.512 42.457 13.468c0 0-18.946-13.009-42.457-13.468ZM174.452 373.389c-7.564-10.836-26.911-11.244-26.911-11.244.255-14.54-14.957-14.642-14.957-14.642s1.384-23.627-21.279-26.998c-22.661-3.366-30 17.363-30 17.363-24.61-16.704-39.273 2.852-39.273 2.852-7.957-.891-49.865-12.669-65.576-18.248l26.016 15.867c101.043 51.088 205.159 45.61 229.88 43.402-23.409 1.374-57.9-8.352-57.9-8.352Z" fill="#fff"/><path d="M171.369 380.677c-7.565-10.836-26.91-11.242-26.91-11.242.254-14.542-14.959-14.644-14.959-14.644s1.383-23.627-21.279-26.995c-22.661-3.369-29.997 17.36-29.997 17.36-24.61-16.707-39.276 2.852-39.276 2.852-7.436-.833-47.821-20.397-62.492-25.536l26.016 15.867c64.817 32.773 130.899 42.268 176.475 44.28-4.683-1.127-7.578-1.942-7.578-1.942Z" fill="#F1EBEC"/><path d="M63.815 357.059s33.849 15.77 83.466 19.764c0 0-46.044-5.887-83.466-19.764Z" fill="#fff"/><path d="M113.992 322.859s16.259 5.885 16.961 22.848c0 0 2.1-18.362-16.961-22.848ZM133.195 350.052s12.686.351 12.545 12.333c0 0 1.121-13.105-12.545-12.333ZM176.296 376.192s12.195 4.163 38.371 5.549c0 0-21.762 1.179-38.371-5.549ZM77.69 341.08s-16.68-14.576-34.62 0c0 0 16.33-17.661 34.62 0ZM11.532 334.283s8.27 6.377 23.548 8.9c0 0-14.488-3.784-23.548-8.9Z" fill="#F1EBEC"/><path d="M44.47 346.968s11.249-10.933 31.958 0c0 0-16.399-8.305-31.957 0ZM84.628 337.645s13.876-14.226 31.539-5.534c0 0-15.139-6.73-31.54 5.534ZM134.352 358.425s7.509 3.792 7.148 12.406c0 0 1.892-9.672-7.148-12.406ZM147.281 373.249s12.614-1.158 19.554 6.2c0 0-8.726-5.992-19.554-6.2ZM211.269 413.712c-5.341-5.237-16.145-3.441-16.145-3.441-1.377-8.116-9.853-6.584-9.853-6.584s-1.699-13.287-14.659-12.794c-12.959.494-14.872 12.794-14.872 12.794-15.436-6.72-21.553 5.69-21.553 5.69-4.52.336-29.066-1.836-38.386-3.296l16.131 6.108c61.551 17.862 118.9 3.931 132.423.119-12.882 3.212-33.086 1.404-33.086 1.404Z" fill="#fff"/><path d="M210.315 418.089c-5.34-5.237-16.146-3.441-16.146-3.441-1.377-8.116-9.852-6.583-9.852-6.583s-1.698-13.289-14.656-12.796c-12.961.495-14.876 12.796-14.876 12.796-15.434-6.724-21.553 5.688-21.553 5.688-4.223.315-28.735-6.349-37.43-7.672l16.13 6.108c39.485 11.456 77.237 9.832 102.801 6.19a126.93 126.93 0 0 1-4.418-.29Z" fill="#F1EBEC"/><path d="M148.013 416.191s20.478 5.234 48.499 2.273c0 0-26.231 1.536-48.499-2.273Z" fill="#fff"/><path d="M172.353 391.92s9.66 1.579 11.823 10.94c0 0-.751-10.436-11.823-10.94ZM185.879 405.041s7.093-1.132 8.268 5.552c0 0-.748-7.409-8.268-5.552ZM212.588 415.08s7.217 1.04 21.928-.923c0 0-11.985 2.928-21.928.923ZM154.063 405.853s-10.804-6.368-19.26 3.618c0 0 7.238-11.534 19.26-3.618ZM116.548 408.984s5.267 2.684 14.028 2.492c0 0-8.453-.593-14.028-2.492Z" fill="#F1EBEC"/><path d="M136.197 412.599s5.115-7.259 17.778-3.342c0 0-9.991-2.905-17.778 3.342ZM157.564 403.217s6.232-9.365 16.964-6.374c0 0-9.123-2.164-16.964 6.374ZM187.396 409.58s4.575 1.324 5.275 6.153c0 0 .042-5.578-5.275-6.153ZM196.139 416.475s6.897-1.963 11.526 1.408c0 0-5.481-2.426-11.526-1.408ZM418.928 339.856c5.696-8.156 20.257-8.465 20.257-8.465-.19-10.944 11.263-11.02 11.263-11.02s-1.043-17.786 16.019-20.322c17.058-2.538 22.581 13.068 22.581 13.068 18.525-12.576 29.567 2.147 29.567 2.147 5.99-.671 37.54-9.539 49.362-13.737l-19.582 11.944c-76.064 38.461-154.442 34.334-173.052 32.673 17.622 1.037 43.585-6.288 43.585-6.288Z" fill="#fff"/><path d="M421.251 345.343c5.693-8.156 20.255-8.462 20.255-8.462-.19-10.946 11.263-11.024 11.263-11.024s-1.042-17.786 16.018-20.322c17.06-2.536 22.582 13.069 22.582 13.069 18.526-12.577 29.568 2.147 29.568 2.147 5.597-.627 35.998-15.358 47.04-19.224l-19.582 11.944c-48.794 24.673-98.539 31.82-132.85 33.333 3.524-.847 5.706-1.461 5.706-1.461Z" fill="#F1EBEC"/><path d="M502.216 327.565s-25.483 11.872-62.832 14.876c0 0 34.659-4.432 62.832-14.876Z" fill="#fff"/><path d="M464.441 301.817s-12.238 4.432-12.766 17.2c0 0-1.582-13.822 12.766-17.2ZM449.987 322.289s-9.55.264-9.446 9.284c0 0-.842-9.865 9.446-9.284ZM417.54 341.969s-9.179 3.132-28.884 4.175c0 0 16.381.888 28.884-4.175Z" fill="#F1EBEC"/><path d="M449.116 328.592s-5.655 2.853-5.381 9.339c0 0-1.424-7.279 5.381-9.339ZM439.384 339.752s-9.5-.871-14.721 4.668c0 0 6.568-4.511 14.721-4.668ZM366.499 389.069c5.338-5.237 16.142-3.444 16.142-3.444 1.382-8.114 9.855-6.582 9.855-6.582s1.697-13.288 14.657-12.792c12.962.494 14.874 12.792 14.874 12.792 15.438-6.722 21.553 5.69 21.553 5.69 4.519.336 29.065-1.834 38.387-3.297l-16.13 6.107c-61.553 17.865-118.9 3.933-132.422.121 12.878 3.211 33.084 1.405 33.084 1.405Z" fill="#fff"/><path d="M367.452 393.447c5.341-5.238 16.144-3.443 16.144-3.443 1.377-8.115 9.853-6.584 9.853-6.584s1.699-13.287 14.657-12.793c12.958.494 14.875 12.792 14.875 12.792 15.436-6.722 21.552 5.692 21.552 5.692 4.224.313 28.734-6.351 37.434-7.675l-16.13 6.107c-39.487 11.46-77.238 9.836-102.806 6.193a135.54 135.54 0 0 0 4.421-.289Z" fill="#F1EBEC"/><path d="M429.753 391.548s-20.478 5.236-48.501 2.269c0 0 26.232 1.54 48.501-2.269Z" fill="#fff"/><path d="M405.413 367.276s-9.661 1.579-11.822 10.937c0 0 .749-10.433 11.822-10.937ZM391.889 380.4s-7.093-1.132-8.268 5.549c0 0 .744-7.408 8.268-5.549ZM365.179 390.436s-7.22 1.04-21.927-.921c0 0 11.983 2.928 21.927.921ZM423.705 381.209s10.8-6.365 19.26 3.616c0 0-7.24-11.53-19.26-3.616ZM461.22 384.341s-5.267 2.686-14.029 2.491c0 0 8.454-.591 14.029-2.491Z" fill="#F1EBEC"/><path d="M441.571 387.957s-5.118-7.26-17.779-3.342c0 0 9.989-2.907 17.779 3.342ZM420.203 378.573s-6.231-9.366-16.966-6.376c0 0 9.123-2.162 16.966 6.376ZM390.368 384.937s-4.572 1.32-5.271 6.152c0 0-.043-5.578 5.271-6.152ZM381.628 391.831s-6.899-1.963-11.528 1.406c0 0 5.484-2.421 11.528-1.406ZM389.257 270.191c7.884-16.612 34.33-21.626 34.33-21.626-3.698-19.89 17.153-23.536 17.153-23.536s-7.344-32.1 22.973-41.941c30.315-9.844 45.159 16.911 45.159 16.911 29.913-28.592 54.544-5.138 54.544-5.138 10.712-3.054 31.343-13.69 51.612-24.964l2.112 12.586c-126.861 93.373-270.964 109.838-305.395 112.506 32.434-3.508 77.512-24.798 77.512-24.798Z" fill="#fff"/><path d="M395.168 279.479c7.883-16.608 34.331-21.623 34.331-21.623-3.698-19.892 17.149-23.539 17.149-23.539s-7.34-32.097 22.973-41.937c30.32-9.845 45.158 16.908 45.158 16.908 29.918-28.592 54.545-5.137 54.545-5.137 10.009-2.855 28.688-12.334 47.632-22.76l.184 1.092c-81.38 59.898-169.852 88.148-231.923 101.406 6.168-2.624 9.951-4.41 9.951-4.41Z" fill="#F1EBEC"/><path d="M537.293 222.299s-42.81 29.432-109.966 46.341c0 0 61.816-18.683 109.966-46.341Z" fill="#fff"/><path d="M460.568 186.935s-20.952 11.821-18.005 35.253c0 0-7.115-24.708 18.005-35.253ZM440.485 228.665s-17.321 3.406-14.368 19.815c0 0-4.557-17.724 14.368-19.815ZM387.375 274.46s-15.772 8.517-51.366 16.453c0 0 30.126-3.393 51.366-16.453Z" fill="#F1EBEC"/><path d="M440.829 240.421s-9.432 6.931-6.95 18.668c0 0-4.823-12.832 6.95-18.668ZM426.504 263.737s-17.575 1.319-25.399 13.015c0 0 10.59-10.232 25.399-13.015Z" fill="#fff"/></g></g><mask id="mask6_538_7597" style="mask-type:luminance" maskUnits="userSpaceOnUse" x="8" y="8" width="443" height="444"><path d="M450.919 229.62c0-122.272-99.12-221.395-221.392-221.395-122.275 0-221.394 99.123-221.394 221.395s99.119 221.392 221.394 221.392c122.272 0 221.392-99.12 221.392-221.392Z" fill="#fff"/></mask><g mask="url('#mask6_538_7597')"><path d="M139.973 336.989c1.827-3.429 5.478-2.981 7.788-6.134 2.466-3.36.876-8.802 3.284-11.527 3.52-3.984 7.106-.452 10.723-2.449 2.348-1.296.973-3.819 2.864-5.496 1.947-1.727 3.188-1.598 5.105-2.899 6.19-4.207 2.064-3.515 9.134-.213 5.713 2.669 3.86 3.153 9.116.586 2.982-1.457 3.594-6.529 7.924-3.162 1.816-2.128 4.064-3.142 6.761-2.979-3.373-5.655-2.287-13.064 2.605-17.056a429.237 429.237 0 0 1 5.42 5.608c2.72-3.037 4.04-8.635 9.154-7.161.754-4.104 3.54-7.036 7.832-6.279.698-3.609 3.19-4.395 6.277-3.133-4.651-11.714-14.8-7.16-22.484-1.588-7.241 5.249-17.02 2.857-26.144 5.788 7.884-6.427 16.108-4.219 23.657-8.878 1.374-.848 3.167-3.352 4.838-4.49 1.138-.775 4.302-1.675 5.632-2.139 4.35-1.524 7.232-2.955 12.092-2.643.433-.678.644-1.281 1.106-1.901 2.258 1.483 4.851 1.86 7.479 1.129-1.088-6.044-5.979-9.041-6.724-15.277-.255-2.133 2.001-4.031.815-7.924-.824-2.708-3.371-4.828-4.7-7.152-3.319-5.793-2.508-9.548-10.452-5.48-5.094 2.609-8.412 8.931-13.112 12.356 3.086-5.995 5.854-10.599 9.245-15.443 3.009-4.297 7.629-8.99 9.403-13.684-1.308.224-3.128-.393-4.466-.25 1.718-8.326 7.386-15.067 2.271-22.462-.027-.034-4.017-1.504-4.724-2.272-.611-.666-1.417-4.489-2.119-5.672-1.805-3.046-5.106-5.065-6.916-8.201 3.414.337 6.779 2.372 10.436 3.144 3.284.693 7.07.199 10.935.489-.161-9.348-10.527-8.124-15.227-13.294-2.62-2.884-2.314-5.987-5.505-8.874a60.67 60.67 0 0 0 1.401-3.076c4.827 4.302 7.188 10.092 13.236 13.523 3.636 2.065 6.32 1.52 9.538 4.649 3.14 3.052 4.462 8.126 6.977 11.678 1.253 1.77 2.497 3.049 3.707 4.148 1.061 2.097 2.316 4.221 3.872 5.853-2.482-1.773-5.416-2.888-8.472-2.677 1.928 2.558 4.033 5.868 6.078 8.253-2.664-.317-5.206-1.601-7.593-2.855.245.731.712.847 1.144 1.496-1.288-.689-3.08-1.037-4.252-1.512 1.687 7.103 12.541 11.776 16.14 17.819-10.407 4.729 3.065 13.193 4.607 19.236-2.711 1.108-5.908 1.275-8.974.895 9.864 4.79 15.891 9.426 21.743 17.72 4.867 6.893 14.947 11.908 17.544 20.282-2.852-1.09-5.939-2.848-7.789-.796-1.534-.482-3.624-.346-5.227-1.301 6.439 8.053 14.627 9.792 20.047 19.196-5.843-2.751-6.138 2.959-4.723 7.033-1.412-.834-3.16-.801-4.405-1.357.512 3.565 2.958 7.384 5.226 10.417a2.274 2.274 0 0 0-1.328-.336c.222.859.544 3.658.568 4.43-16.854-2.448-31.4-18.043-47.1-19.95 2.859 3.052 5.936 6.782 9.619 8.486-1.128-.631-2.521-.991-3.575-1.531 2.115 4.327 5.918 7.311 8.22 11.461-2.8-.789-5.965-2.512-8.956-2.89.826 1.612.874 3.64 2.152 5.202-3.929-.977-8.55-2.556-12.353-3.85-.857.312-.683.897-1.344 1.369-2.467-1.652-5.083-2.503-7.824-2.745-.407 6.202 8.357 9.692 12.883 12.166 6.848 3.746 11.781 7.602 16.974 13.48-3.758-1.58-6.913-4.734-11.264-4.618 1.398 7.998 15.683 14.252 21.662 19.114 3.877 3.152 10.421 8.182 15.134 13.25-.24 1.437-.577 2.826-1.124 4.117-4.509-3.911-9.32-8.067-14.672-9.303-.168.752-.008 1.42-.23 2.159-3.992-2.412-13.318-4.849-17.628-5.224-.154 1.583-1.587 3.027-1.847 4.404-6.993-2.492-13.073-9.145-19.892-12.237.261 1.548-.572 3.701-.272 5.26-2.599-1.112-5.219-3.568-8.316-4.482-.433 3.978 1.5 7.735 2.097 11.287-2.357-1.641-4.578-1.612-6.758-1.103 1.346 3.455 3.352 6.968 4.618 10.41-1.338-.96-3.26-1.726-4.506-2.718 4.362 5.066 10.197 9.456 15.021 13.967-3.864-2.147-8-4.299-12.045-6.195.716 3.34 3.518 6.102 5.26 9.091-2.472-.369-4.776.691-6.795 1.132.985 2.108 1.977 4.751 3.452 6.717-1.147-.929-2.54-1.188-3.799-1.96-2.732 8.962 7.532 10.42 8.68 16.672-2.8.4-5.413.082-7.732-1.132-.116.124.019 1.571-.06 1.915-1.144.043-3.222.557-4.273.867a42.158 42.158 0 0 1 3.892 4.149c-5.403.52-5.083 11.641-10.383 6.697-.653 1.16-3.12 2.746-3.693 3.882-1.708-5.423-7.515-7.13-11.847-10.046-.669-.449-1.424-1.081-2.21-1.757 4.718-4.044 10.693-7.576 11.434-15.98-2.91.396-5.365.533-8.37-.273 8.326-8.57 7.8-16.774-5.422-17.063.627-1.76.035-4.289.523-6.025-.625-.064-.664.874-1.244.63-1.449-13.88-.972-8.246-12.591-8.262-2.521-.004-3.357.201-5.477-.196-.141-.024-.661-3.518-1.673-3.746-2.736-.618-5.967 1.552-8.236 2.874-1.42-6.38 12.021-6.98 4-13.31a22.323 22.323 0 0 1 6.45-4.644c-1.309-3.746-3.113-7.812-7.5-7.657-6.244.219-3.704 4.997-6.782 8.025-2.567 2.526-7.546 1.791-9.576 4.414-1.699 2.192-2.087 8.888-2.468 11.633-.624-1.905-1.846-9.337-.622-11.639Z" fill="#6877BB"/><path d="M214.801 158.851c4.7 5.17 15.066 3.946 15.227 13.294-3.865-.29-7.651.204-10.935-.489-3.657-.772-7.022-2.807-10.436-3.144 1.81 3.136 5.111 5.155 6.916 8.201.702 1.183 1.508 5.006 2.119 5.672.707.768 4.697 2.238 4.724 2.272 5.115 7.395-.553 14.136-2.271 22.462 1.338-.143 3.158.474 4.466.25-1.774 4.694-6.394 9.387-9.403 13.684-3.391 4.844-6.159 9.448-9.245 15.443 4.7-3.425 8.018-9.747 13.112-12.356 7.944-4.068 7.133-.313 10.452 5.48 1.329 2.324 3.876 4.444 4.7 7.152 1.186 3.893-1.07 5.791-.815 7.924.745 6.236 5.636 9.233 6.724 15.277-2.628.731-5.221.354-7.479-1.129-.462.62-.673 1.223-1.106 1.901-4.86-.312-7.742 1.119-12.092 2.643-1.33.464-4.494 1.364-5.632 2.139-1.671 1.138-3.464 3.642-4.838 4.49-7.549 4.659-15.773 2.451-23.657 8.878l-.165.053c-.267.308-.254.32.044.043l.121-.096c9.124-2.931 18.903-.539 26.144-5.788 7.684-5.572 17.833-10.126 22.484 1.588-3.087-1.262-5.579-.476-6.277 3.133-4.292-.757-7.078 2.175-7.832 6.279-5.114-1.474-6.434 4.124-9.154 7.161a429.237 429.237 0 0 0-5.42-5.608c-4.892 3.992-5.978 11.401-2.605 17.056-2.697-.163-4.945.851-6.761 2.979-4.33-3.367-4.942 1.705-7.924 3.162-5.256 2.567-3.403 2.083-9.116-.586-7.07-3.302-2.944-3.994-9.134.213-1.917 1.301-3.158 1.172-5.105 2.899-1.891 1.677-.516 4.2-2.864 5.496-3.617 1.997-7.203-1.535-10.723 2.449-2.408 2.725-.818 8.167-3.284 11.527-2.31 3.153-5.961 2.705-7.788 6.134-1.224 2.302-.002 9.734.622 11.639.381-2.745.769-9.441 2.468-11.633 2.03-2.623 7.009-1.888 9.576-4.414 3.078-3.028.538-7.806 6.782-8.025 4.387-.155 6.191 3.911 7.5 7.657a22.323 22.323 0 0 0-6.45 4.644c8.021 6.33-5.42 6.93-4 13.31 2.269-1.322 5.5-3.492 8.236-2.874 1.012.228 1.532 3.722 1.673 3.746 2.12.397 2.956.192 5.477.196 11.619.016 11.142-5.618 12.591 8.262.58.244.619-.694 1.244-.63-.488 1.736.104 4.265-.523 6.025 13.222.289 13.748 8.493 5.422 17.063 3.005.806 5.46.669 8.37.273-.741 8.404-6.716 11.936-11.434 15.98-1.634-1.407-3.399-3.021-4.79-3.679-2.541-1.196-6.313-.752-8.586-2.258-2.398-1.592-2-6.031-5.363-7.088-3.157-.988-5.947 3.276-8.585 2.988-5.251-.578-8.727-7.611-13.22-10.571-5.876-3.869-8.022-3.633-11.048-10.087-2.73-5.814-4.554-9.349-9.175-14.374-9.22-10.022-14.788-24.935-25.456-33.67-4.648 4.755-5.535 13.902-11.228 17.367-3.541 2.159-5.696-.276-8.379.919-3.069 1.366-5.185 6.798-8.548 7.101-2.444.221-3.281-3.605-6.996-3.98-3.092-.311-6.152 2.323-8.378 3.928-3.604 2.596-5.786 7.184-9.811 9.009.828-2.582 1.664-5.1 2.65-7.413 3.834-8.992 5.874-17.364 8.72-26.371 2.382 2.035 4.603 3.184 6.698 3.662-.05 1.59-.015 3.168.259 4.693 1.014-.541 3.488-.812 4.398-1.324.087.44.172.884.259 1.327 1.292-1.25 3.999-2.295 5.308-3.866-.033-.229 1.45 1.012 1.439 1.01-.854 3.094.288 2.51.898 4.58 4.87-2.886 9.288-9.027 11.827-13.971.65-.069.555.725 1.19.571 3.775-4.532 9.03-7.156 14.202-9.7 2.776 4.534 7.983-3.316 9.443 3.492 1.264-1 3.929-1.572 5.304-3.472 2.998 6.934 1.057 12.429 1.732 19.837 2.869-4.44 4.613-11.381 8.221-15.425.117.754.133 1.468.307 2.214 1.597-1.952 4.232-3.648 6.726-3.71-.089 2.282 1.22 2.518 1.651 4.217.625-.064 2.248-.324 2.991-.569 2.982-7.127 4.728-14.336 8.474-21.04 6.006-10.739 7.959-6.876 16.422-12.182.061 2.108 1.48 3.52 1.86 5.242.528-.779 2.248-1.734 2.918-2.675 3.224 2.255 4.411 5.907 4.036 9.709 1.88-2.053 2.79-5.045 2.504-7.71 1.734-1.644 1.402-2.506 1.886-4.531-3.36-.74-3.44-3.636-6.003-5.732 1.52-3.371 5.129-8.621 5.908-10.916.539-1.273 4.744-5.5 5.5-7.715 1.007-2.949.115-7.484.271-10.605 4.493 1.339 14.501 3.175 15.329-3.891-6.347.983-2.519-4.812-5.887-5.785-3.34-.965-5.945 2.457-9.484 2.399.707-3.048 1.14-6.066.526-9.066-.698.118-1.191.452-1.842.599 1.77-2.787 3.298-5.916 2.231-8.94-1.765-1.556-4.771-2.384-7.203-.231-1.021-.844-1.276-1.282-1.988-2.413.416-4.105 2.342-8.377 3.672-12.297 2.382-.803 5.462-2.726 7.811-3.067 2.767-.405 6.744 1.988 9.365.033 2.48-1.846 4.015-15.416 4.336-18.742-2.882.613-5.157 2.416-7.692 4.269.41-3.127 1.651-5.984 1.69-8.933-1.115.449-3.383.094-4.475.538.408-2.441 3.441-8.941 1.324-10.818a3.583 3.583 0 0 0-.935-.592c.904-2.562 2.115-4.967 4.142-6.93 2.884-2.792 6.292-3.122 9.169-6.412 1.229-1.405 2.327-3.321 3.244-5.184 3.191 2.887 2.885 5.99 5.505 8.874Z" fill="#8794D3"/><path d="m185.167 278.948.165-.053-.121.096c-.298.277-.311.265-.044-.043ZM192.352 179.913c1.092-.444 3.36-.089 4.475-.538-.039 2.949-1.28 5.806-1.69 8.933 2.535-1.853 4.81-3.656 7.692-4.269-.321 3.326-1.856 16.896-4.336 18.742-2.621 1.955-6.598-.438-9.365-.033-2.349.341-5.429 2.264-7.811 3.067-1.33 3.92-3.256 8.192-3.672 12.297.712 1.131.967 1.569 1.988 2.413 2.432-2.153 5.438-1.325 7.203.231 1.067 3.024-.461 6.153-2.231 8.94.651-.147 1.144-.481 1.842-.599.614 3 .181 6.018-.526 9.066 3.539.058 6.144-3.364 9.484-2.399 3.368.973-.46 6.768 5.887 5.785-.828 7.066-10.836 5.23-15.329 3.891-.156 3.121.736 7.656-.271 10.605-.756 2.215-4.961 6.442-5.5 7.715-.779 2.295-4.388 7.545-5.908 10.916 2.563 2.096 2.643 4.992 6.003 5.732-.484 2.025-.152 2.887-1.886 4.531.286 2.665-.624 5.657-2.504 7.71.375-3.802-.812-7.454-4.036-9.709-.67.941-2.39 1.896-2.918 2.675-.38-1.722-1.799-3.134-1.86-5.242-8.463 5.306-10.416 1.443-16.422 12.182-3.746 6.704-5.492 13.913-8.474 21.04-.743.245-2.366.505-2.991.569-.431-1.699-1.74-1.935-1.651-4.217-2.494.062-5.129 1.758-6.726 3.71-.174-.746-.19-1.46-.307-2.214-3.608 4.044-5.352 10.985-8.221 15.425-.675-7.408 1.266-12.903-1.732-19.837-1.375 1.9-4.04 2.472-5.304 3.472-1.46-6.808-6.667 1.042-9.443-3.492-5.172 2.544-10.427 5.168-14.201 9.7-.636.154-.542-.64-1.191-.571-2.539 4.944-6.957 11.085-11.827 13.971-.61-2.07-1.752-1.486-.898-4.58.01.002-1.472-1.239-1.44-1.01-1.308 1.571-4.015 2.616-5.307 3.866-.087-.443-.172-.887-.259-1.327-.91.512-3.384.783-4.398 1.324-.274-1.525-.308-3.103-.26-4.693 7.048 1.606 12.669-4.447 18.193-10.562 3.135-3.469 5.716-10.658 10.105-13.209 5.572-3.239 9.542-1.697 15.564-7.073 3.48 1.328 5.735-2.124 7.579-4.894 1.576 4.687 3.996 3.332 7.751 4.736 20.406 7.624 21.452-13.714 25.456-29.534 2.254-8.91 8.269-12.499 9.517-20.883 1.417-9.527 3.564-16.673 6.431-25.711 2.181-6.872 1.272-14.47 5.02-20.984 4.357-7.573 12.162-6.562 16.316-13.214 2.528-4.046 3.142-9.215 4.778-13.86.319.141.631.325.935.592 2.117 1.877-.916 8.377-1.324 10.818Z" fill="#fff"/><path d="M267.455 338.389c-5.979-4.862-20.264-11.116-21.662-19.114 4.351-.116 7.506 3.038 11.264 4.618-5.193-5.878-10.126-9.734-16.974-13.48-4.526-2.474-13.29-5.964-12.883-12.166 2.741.242 5.357 1.093 7.824 2.745.661-.472.487-1.057 1.344-1.369 3.803 1.294 8.424 2.873 12.353 3.85-1.278-1.562-1.326-3.59-2.152-5.202 2.991.378 6.156 2.101 8.956 2.89-2.302-4.15-6.105-7.134-8.22-11.461 1.054.54 2.447.9 3.575 1.531-3.683-1.704-6.76-5.434-9.619-8.486 15.7 1.907 30.246 17.502 47.1 19.95-.024-.772-.346-3.571-.568-4.43.478-.025.919.088 1.328.336-2.268-3.033-4.714-6.852-5.226-10.417 1.245.556 2.993.523 4.405 1.357-1.415-4.074-1.12-9.784 4.723-7.033-5.42-9.404-13.608-11.143-20.047-19.196 1.603.955 3.693.819 5.227 1.301 1.85-2.052 4.937-.294 7.789.796-2.597-8.374-12.677-13.389-17.544-20.282-5.852-8.294-11.879-12.93-21.743-17.72 3.066.38 6.263.213 8.974-.895-1.542-6.043-15.014-14.507-4.607-19.236-3.599-6.043-14.453-10.716-16.14-17.819 1.172.475 2.964.823 4.252 1.512-.432-.649-.899-.765-1.144-1.496 2.387 1.254 4.929 2.538 7.593 2.855-2.045-2.385-4.15-5.695-6.078-8.253 3.056-.211 5.99.904 8.472 2.677.64.673 1.325 1.267 2.074 1.731a18.399 18.399 0 0 0-2.074-1.731c-1.556-1.632-2.811-3.756-3.872-5.853 2.965 2.7 5.705 4.294 7.753 9.238 3.004 7.246 4.092 15.284 7.192 22.539 2.483 5.807 6.416 8.872 9.697 13.953 4.034 6.25 4.53 13.295 9.386 18.899 3.872 4.467 7.112 11.131 11.21 15.313 3.095 3.156 7.007 3.26 9.947 6.224 3.583 3.615 4.812 10.608 6.027 15.383.914 3.607 1.086 11.033 3.457 13.991 2.345 2.92 5.537 2.069 8.373 4.004 1.114.761 2.223 1.664 3.323 2.664-2.373.936-4.293-.223-6.431 1.226-4.034 2.732-3.362 5.195-4.664 9.382-1.156 3.72-.345 4.84-3.09 7.012-2.31 1.828-5.846.73-8.57 3.852-1.525 1.753-1.684 4.257-2.16 6.458-.232 1.074-.54 2.078-1.121 2.882-2.469 3.433-5.013 1.844-7.639 4.44-3.592 3.55-3.478 8.64-4.256 13.28-4.713-5.068-11.257-10.098-15.134-13.25ZM216.041 394.416c.079-.344-.056-1.791.06-1.915 2.319 1.214 4.932 1.532 7.732 1.132-1.148-6.252-11.412-7.71-8.68-16.672 1.259.772 2.652 1.031 3.799 1.96-1.475-1.966-2.467-4.609-3.452-6.717 2.019-.441 4.323-1.501 6.795-1.132-1.742-2.989-4.544-5.751-5.26-9.091 4.045 1.896 8.181 4.048 12.045 6.195-4.824-4.511-10.659-8.901-15.021-13.967 1.246.992 3.168 1.758 4.506 2.718-1.266-3.442-3.272-6.955-4.618-10.41 2.18-.509 4.401-.538 6.758 1.103-.597-3.552-2.53-7.309-2.097-11.287 3.097.914 5.717 3.37 8.316 4.482-.3-1.559.533-3.712.272-5.26 6.819 3.092 12.899 9.745 19.892 12.237.26-1.377 1.693-2.821 1.847-4.404 4.31.375 13.636 2.812 17.628 5.224.222-.739.062-1.407.23-2.159 5.352 1.236 10.163 5.392 14.672 9.303-.072.172-.136.344-.214.511-2.664 5.532-7.71 12.525-12.243 14.185-7.621 2.793-9.444-.753-11.639 8.548a33.74 33.74 0 0 0-.241 1.108c-1.239 6.073-1.001 12.259-2.691 18.323-2.096 7.518-7.416 16.886-13.674 25.117-1.23-1.399-2.438-2.78-3.623-4.131-4.611-5.26-12.312-16.646-18.651-19.428-1.096-.481-2.024-.633-2.829-.557a42.158 42.158 0 0 0-3.892-4.149c1.051-.31 3.129-.824 4.273-.867Z" fill="#49509B"/><path d="M248.027 186.752c.732.527 1.43 1.105 2.074 1.731-.749-.464-1.434-1.058-2.074-1.731Z" fill="#fff"/><path d="M297.765 324.579c2.724-3.122 6.26-2.024 8.57-3.852 2.745-2.172 1.934-3.292 3.09-7.012 1.302-4.187.63-6.65 4.664-9.382 2.138-1.449 4.058-.29 6.431-1.226.613-.244 1.257-.62 1.944-1.23 5.689-5.03 9.204-16.988 13.384-23.641 6.933 13.881 8.871 28.176 14.943 41.888 1.822 4.113 4.388 5.445 6.085 9.136 1.445 3.144.46 6.36 3.224 9.172 1.449 1.472 5.221 1.717 7.645 3.705-2.434 2.524-4.614 5.156-6.893 8.387-1.709-2.215-3.359-4.499-4.641-7.044-.351 1.607-1.291 2.68-1.728 4.157-.662-3.858-.484-8.332-3.28-11.266-.752.682-2.134 1.174-2.935 1.881-1.98-4.731-1.843-10.631-3.225-15.851-6.511.035-4.676-12.261-7.638-16.96-5.22 10.452-.557 26.3-.737 37.532-2.596-6.593-1.06-15.052-3.327-22.106-.834-2.61-2.236-3.148-2.757-6.98-.353-2.588.967-5.528-.195-8.428-1.386 2.736-3.234 5.41-4.8 8.141-.769-.215-1.402-.477-2.217-.607-2.085 3.678-3.689 7.702-5.609 11.507-5.971 3.844-7.311 13.897-12.848 17.113-.164-3.165 1.046-6.096 1.24-9.17-.539-.179-.71.653-1.411.628.003-.968-.827-3.15-.893-4.49-1.7.411-4.794 1.394-8.246 2.456.476-2.201.635-4.705 2.16-6.458Z" fill="#828FD0"/><path d="M240.763 423.548c6.258-8.231 11.578-17.599 13.674-25.117 1.69-6.064 1.452-12.25 2.691-18.323.136-.123.269-.233.397-.324 5.444-3.884 11.099-1.761 15.042-8.475-2.934 7.164-7.942 19.084-5.167 27.063.925-.931 3.533-1.795 4.524-2.929 1.565 3.118.016 6.785 2.525 9.281 3.578-3.691 7.971-9.209 10.26-13.988.939.353 1.984.395 2.818.583 1.805-4.443 4.309-8.78 6.545-13.016.145.094 2.579 2.121 2.801 2.389-1.354 3.987-1.666 10.579.314 14.511 2.777-2.004 5.428-5.43 8.217-6.776.689 4.073-1.74 8.877.743 11.496 6.841-12.008 9.725-26.678 18.668-37.18.338 4.549.034 9.266.272 13.828 3.278-.766 5.381-3.686 7.502-6.058.011 1.87 1.206 3.423 1.475 5.103.899-.899 2.568-1.368 3.379-2.169.416.581.75 1.202 1.03 1.854-2.098 1.307-3.948 3.082-5.558 6.81-3.454 7.989-3.992 9.594-10.879 14.961-4.779 3.725-6.508 10.245-11.793 13.057-5.339 2.843-11.5 1.042-16.554 5.986-4.33 4.238-6.922 7.261-10.517 11.07-1.899 2.015-1.411 4.407-4.06 6.216-1.723 1.179-5.563.975-7.963 2.339-2.565 1.46-2.962 4.275-6.029 5.476-1.941.763-4.449.368-6.835.347-6.361-5.507-12.158-11.911-17.522-18.015Z" fill="#454D95"/><path d="M257.525 379.784a4.433 4.433 0 0 0-.397.324c.073-.369.155-.739.241-1.108 2.195-9.301 4.018-5.755 11.639-8.548 4.533-1.66 9.579-8.653 12.243-14.185.078-.167.142-.339.214-.511.547-1.291.884-2.68 1.124-4.117.778-4.64.664-9.73 4.256-13.28 2.626-2.596 5.17-1.007 7.639-4.44.581-.804.889-1.808 1.121-2.882 3.452-1.062 6.546-2.045 8.246-2.456.066 1.34.896 3.522.893 4.49.701.025.872-.807 1.411-.628-.194 3.074-1.404 6.005-1.24 9.17 5.537-3.216 6.877-13.269 12.848-17.113 1.92-3.805 3.524-7.829 5.609-11.507.815.13 1.448.392 2.217.607 1.566-2.731 3.414-5.405 4.8-8.141 1.162 2.9-.158 5.84.195 8.428.521 3.832 1.923 4.37 2.757 6.98 2.267 7.054.731 15.513 3.327 22.106.18-11.232-4.483-27.08.737-37.532 2.962 4.699 1.127 16.995 7.638 16.96 1.382 5.22 1.245 11.12 3.225 15.851.801-.707 2.183-1.199 2.935-1.881 2.796 2.934 2.618 7.408 3.28 11.266.437-1.477 1.377-2.55 1.728-4.157 1.282 2.545 2.932 4.829 4.641 7.044-.295.415-.588.837-.885 1.276-3.7 5.436-7.538 13.488-12.416 17.876-3.431 3.083-6.451 3.988-9.078 5.625a9.805 9.805 0 0 0-1.03-1.854c-.811.801-2.48 1.27-3.379 2.169-.269-1.68-1.464-3.233-1.475-5.103-2.121 2.372-4.224 5.292-7.502 6.058-.238-4.562.066-9.279-.272-13.828-8.943 10.502-11.827 25.172-18.668 37.18-2.483-2.619-.054-7.423-.743-11.496-2.789 1.346-5.44 4.772-8.217 6.776-1.98-3.932-1.668-10.524-.314-14.511-.222-.268-2.656-2.295-2.801-2.389-2.236 4.236-4.74 8.573-6.545 13.016-.834-.188-1.879-.23-2.818-.583-2.289 4.779-6.682 10.297-10.26 13.988-2.509-2.496-.96-6.163-2.525-9.281-.991 1.134-3.599 1.998-4.524 2.929-2.775-7.979 2.233-19.899 5.167-27.063-3.943 6.714-9.598 4.591-15.042 8.475Z" fill="#6973C1"/><path d="M57.775 344.804c2.226-1.605 5.286-4.239 8.378-3.928 3.715.375 4.552 4.201 6.996 3.98 3.363-.303 5.479-5.735 8.548-7.101 2.683-1.195 4.838 1.24 8.379-.919 5.693-3.465 6.58-12.612 11.228-17.367 10.668 8.735 16.236 23.648 25.456 33.67 4.621 5.025 6.445 8.56 9.175 14.374 3.026 6.454 5.172 6.218 11.048 10.087 4.493 2.96 7.969 9.993 13.22 10.571 2.638.288 5.428-3.976 8.585-2.988 3.363 1.057 2.965 5.496 5.363 7.088 2.273 1.506 6.045 1.062 8.586 2.258 1.391.658 3.156 2.272 4.79 3.679.786.676 1.541 1.308 2.21 1.757 4.332 2.916 10.139 4.623 11.847 10.046.573-1.136 3.04-2.722 3.693-3.882 5.3 4.944 4.98-6.177 10.383-6.697.805-.076 1.733.076 2.829.557 6.339 2.782 14.04 14.168 18.651 19.428 1.185 1.351 2.393 2.732 3.623 4.131 5.364 6.104 11.161 12.508 17.522 18.015-1.141-.011-2.256.065-3.266.393-2.755.895-4.875 2.201-6.606 3.773-4.304-2.932-5.394.276-7.345-.573-4.357-1.893-7.679-9.36-10.336-12.333-4.5-5.032-16.255-17.611-22.927-11.964-.957-1.198-2.536-1.711-3.361-2.703.603 1.852 0 3.872.717 5.765-.977.234-1.641.895-2.878 1.051.393 1.389-.168 2.972.566 4.449-4.312-.804-5.986-6.332-8.453-9.93-.765.048-.711.61-1.381.613-1.696-1.588-5.028-3.259-7.184-5.445-.284.813-1.383 1.866-1.674 3.086-3.276-1.366-6.017.532-7.617 3.672-1.549-1.442-3.885-1.128-5.325-1.862-2.642 9.458-1.322 15.833.528 25.409-5.942-6.372-16.338-12.067-20.772-19.193 3.577 1.146 7.529 3.302 11.46 4.449-.426-1.136-.16-3.397-.54-4.484.83.453 2.54.713 3.548 1.336.284-.279.573-.551.864-.821-.443-2.892-1.451-5.676-2.12-8.255.738-.169 1.368-.069 2.101-.265.728-3.875.504-9.404 5.456-7.759-1.847-8.817-9.6-12.221-17.04-16.144-.259 1.231-1.375 2.348-1.629 3.689-1.274-.541-2.974-.265-4.335-1.301-4.28 3.985-6.987-6.976-9.677-10.105-7.406 4.09-8.23-6.466-10.902-9.268-4.426-4.644-11.36-5.603-15.158-12.318-.352.048-3.036 1.066-3.186 1.146-.549-1.187-.713-1.326-1.516-2.116-.604 1.725-1.85 2.748-2.541 4.293-.525-2.871-.985-5.857-.855-8.953-1.937.91-4.324 2.742-6.08 4.653-.528-.809-1.196-1.115-1.748-2.347-4.376 5.102-6.428 19.903-12.149 22.403-.26-1.268-.745-1.88-1.09-2.928-1.655 2.144-2.917 2.189-4.953 3.712 2.215-5.181 5.262-10.877 6.606-16.151-.85.223-2.088.294-3.067.583-.065-.984-.843-2.441-.837-3.751-1.214 1.186-4.083 2.128-5.192 2.954-.411-.346-.127-1.648-.246-2.158-.536.339-2.186 1.248-2.797 1.398-.05-1.643-1.75-4.491-1.908-5.806-.952.495-2.107.666-2.95 1.144-.375-1.526-2.166-3.674-2.32-5.128-5.066 7.482-11.657 13.139-16.391 20.515.725-3.853 1.816-7.684 2.265-11.325-2.652 1.312-4.928 1.088-6.252-1.594-5.215 4.291-11.045 7.382-16.733 11.792-5.418 4.203-11.282 8.944-17.15 12.17.227-6.742 8.188-10.752 12.879-14.888 1.213-1.068 6.4-4.046 6.427-5.983.064-4.748-5.372-3.683-7.826-1.131-4.016-1.556-6.217-6.182-9.986-7.724 2.289-1.413 4.461-2.609 6.309-2.858 3.961-.539 6.939.812 10.065-.552 8.32-3.635 7.919-9.754 15.395-1.336a8.564 8.564 0 0 0 2.792-.746c4.025-1.825 6.207-6.413 9.81-9.009Z" fill="#2B315E"/><path d="M9.3 411.724c-.121 2.397.41 4.98.077 7.416 2.466-3.804 4.287-10.417 8.647-12.097.023 1.369 1.05 3.413.837 5.145 4.002-3.519 6.534-8.428 10.76-11.5.616 1.705 1.811 1.796 1.54 4.504.618-2.783 5.327-12.589 8.566-12.859 5.31-.437 2.081 9.028.708 12.01.46.009.861-.476 1.666-.374.726 2.22 1.05 5.058.89 7.612 2.785-3.142 8.102-12.318 10.516-3.882 2.956-8.28 7.558-4.51 10.316.93 3.23-3.257 3.497-8.494 7.77-11.05.67.557 1.762 1.092 2.334 1.55 1.596-2.596 3.526-5.164 6.082-6.037-.165 1.347.388 3.109.27 4.463 4.404-1.516 7.568-6.499 12.301-7.667 6.872-1.696 8.428 2.744 10.709 7.336.704 1.417-.274 2.92.72 4.332 1.094 1.54 3.643.848 4.114 1.524 1.649 2.375 2.308 3.055 3.15 7.008.962 4.499-.35 9.74 1.65 14.633 5.13.37 10.694-4.034 15.254-.448 3.85 3.031 3.463 8.546 7.326 12.07 7.82 7.133 16.885 9.114 24.578 17.484-.097.621-.43 1.342-.56 1.985 2.767.801 5.206 1.887 7.552 3.397-.89.839-.85 1.55-2.117 2.351.564 1.953 2.244 4.46 4.215 6.801a12.748 12.748 0 0 0-2.582.194c-1.977.37-5.114 3.352-7.145 2.837-3.541-.9-10.655-10.735-13.992-13.136-4.315-3.1-9.025-7.471-13.692-10.624 1.096.82-8.423-4.291-5.913-4.003-4.44-.51-5.119 2.976-8.55 4.35-3.293 1.316-5.076.292-8.394 1.752-2.32 1.02-5.666 6.165-8.57 5.512l-.162-.062c-2.374-.777-4.111-6.644-5.846-8.558-3.221-3.564-5.233-2.61-8.741-4.65-5.084-2.96-6.52-10.092-13.967-9.364-2.085.204-4.069 1.935-5.918 3.914-2.795 2.993-5.284 6.553-7.355 6.285-.203-.071-.405-.141-.607-.215-2.262-4.662-8.94-16.486-12.568-6.176-.785-.841-2.814-1.297-3.689-2.117-7.915 9.092-9.672 20.056-19.04 27.883-4.377 3.654-10.557 2.765-15.355 5.536-1.054.61-2.084 1.504-3.109 2.5v-54.822c1.324-1.624 2.863-3.013 5.324-3.673Z" fill="#2B315E"/><path d="M23.39 367.029c2.453-2.552 7.889-3.617 7.825 1.131-.027 1.937-5.214 4.915-6.427 5.983-4.69 4.136-12.652 8.146-12.879 14.888 5.868-3.226 11.732-7.967 17.15-12.17 5.688-4.41 11.518-7.501 16.733-11.792 1.324 2.682 3.6 2.906 6.252 1.594-.45 3.641-1.54 7.472-2.265 11.325 4.734-7.376 11.325-13.033 16.39-20.515.155 1.454 1.946 3.602 2.32 5.128.844-.478 1.999-.649 2.951-1.144.159 1.315 1.857 4.163 1.908 5.806.61-.15 2.261-1.059 2.797-1.398.119.51-.165 1.812.246 2.158 1.109-.826 3.978-1.768 5.192-2.954-.006 1.31.772 2.767.837 3.751.979-.289 2.217-.36 3.067-.583-1.344 5.274-4.391 10.97-6.606 16.151 2.036-1.523 3.298-1.568 4.954-3.712.344 1.048.829 1.66 1.089 2.928 5.721-2.5 7.773-17.301 12.15-22.403.551 1.232 1.22 1.538 1.747 2.347 1.756-1.911 4.143-3.743 6.08-4.653-.13 3.096.33 6.082.855 8.953.691-1.545 1.937-2.568 2.541-4.293.803.79.967.929 1.516 2.116.15-.08 2.834-1.098 3.186-1.146 3.798 6.715 10.732 7.674 15.158 12.318 2.672 2.802 3.496 13.358 10.902 9.268 2.69 3.129 5.397 14.09 9.677 10.105 1.361 1.036 3.061.76 4.335 1.301.254-1.341 1.37-2.458 1.629-3.689 7.44 3.923 15.193 7.327 17.04 16.144-4.952-1.645-4.728 3.884-5.456 7.759-.733.196-1.363.096-2.101.265.669 2.579 1.677 5.363 2.12 8.255-.291.27-.58.542-.864.821-1.008-.623-2.718-.883-3.548-1.336.38 1.087.114 3.348.54 4.484-3.931-1.147-7.883-3.303-11.46-4.449 4.434 7.126 14.83 12.821 20.772 19.193-1.85-9.576-3.17-15.951-.528-25.409 1.44.734 3.776.42 5.325 1.862 1.6-3.14 4.341-5.038 7.617-3.672.291-1.22 1.39-2.273 1.674-3.086 2.156 2.186 5.488 3.857 7.184 5.445.67-.003.616-.565 1.381-.613 2.467 3.598 4.141 9.126 8.453 9.93-.734-1.477-.173-3.06-.566-4.449 1.237-.156 1.901-.817 2.878-1.051-.717-1.893-.114-3.913-.717-5.765.825.992 2.404 1.505 3.361 2.703 6.672-5.647 18.427 6.932 22.927 11.964 2.657 2.973 5.979 10.44 10.336 12.333 1.951.849 3.041-2.359 7.345.573-5.565 5.047-7.045 12.835-12.24 18.576-6.47 7.147-4.189 1.975-12.202-.024-6.451-1.606-9.274 3.366-14.983 4.288-1.379.223-3.224-1.785-4.505-1.586-1.071.168-2.166 1.542-3.072 1.592-1.516.08-2.242 2.168-3.907 2.214-1.972.052-3.308-2.91-4.835-3.029-6.11-.463-11.084 1.548-16.928 1.228-2.133-.116-4.334-.593-6.57-.627-1.971-2.341-3.651-4.848-4.215-6.801 1.267-.801 1.227-1.512 2.117-2.351-2.346-1.51-4.785-2.596-7.552-3.397.13-.643.463-1.364.56-1.985-7.693-8.37-16.758-10.351-24.578-17.484-3.863-3.524-3.476-9.039-7.326-12.07-4.56-3.586-10.124.818-15.254.448-2-4.893-.688-10.134-1.65-14.633-.842-3.953-1.501-4.633-3.15-7.008-.471-.676-3.02.016-4.114-1.524-.994-1.412-.016-2.915-.72-4.332-2.281-4.592-3.837-9.032-10.709-7.336-4.733 1.168-7.897 6.151-12.301 7.667.118-1.354-.435-3.116-.27-4.463-2.556.873-4.486 3.441-6.082 6.037-.572-.458-1.663-.993-2.334-1.55-4.273 2.556-4.54 7.793-7.77 11.05-2.758-5.44-7.36-9.21-10.316-.93-2.414-8.436-7.731.74-10.515 3.882.16-2.554-.165-5.392-.89-7.612-.806-.102-1.207.383-1.667.374 1.373-2.982 4.602-12.447-.708-12.01-3.239.27-7.948 10.076-8.566 12.859.271-2.708-.924-2.799-1.54-4.504-4.226 3.072-6.758 7.981-10.76 11.5.212-1.732-.814-3.776-.837-5.145-4.36 1.68-6.181 8.293-8.647 12.097.334-2.436-.198-5.019-.077-7.416-2.461.66-4 2.049-5.324 3.673v-50.926c3.033-.954 6.339-3.259 9.427-5.166 3.769 1.542 5.97 6.168 9.986 7.724Z" fill="#454D95"/><path d="M13.403 359.305c-3.088 1.907-6.394 4.212-9.427 5.166v-6.29c2.823.239 5.42.586 6.996.614.89.013 1.69.209 2.43.51Z" fill="#50726D"/><path d="M212.349 507.24c-.458-1.916-1.237-4.113-1.745-6.101-5.031-1.574-11.569-7.912-12.184-13.227 3.433 1.749 5.648-.269 9.189.68 3.786 1.013 6.284 3.155 10.103 3.88 5.957 1.135 13.948-2.861 20.205-.621 4.56 1.633 5.488 4.428 10.884 4.684 4.183.198 5.375-1.668 9.134-2.698 5.522-1.516 10.609.152 15.117-5.91 4.261 2.041 8.315 1.824 12.143-1.028-.512-15.306 20.084 9.517 26.445-.799 3.079-4.996-17.18-17.967-20.167-21.295 5.662 3.927 10.435 6.122 17.175 7.29 7.728 1.337 13.043 5.768 20.249 7.749 3.99 1.099 4.338-1.375 7.731-.617 4.052.908 6.381 4.832 9.499 7.028 5.485 3.862 12.301 5.624 18.329 8.474 1.656-3.182 4.696-1.833 7.805-.818-.272-1.88 1.046-3.639 1.054-5.222 4.97 3.192 5.633-.777 9.364-.701 3.046.061 6.597 1.796 9.341 1.587 1.213-.094 2.139-2.956 3.659-3.162 1.274-.172 3.97.811 4.641.622 4.065-1.147 5.324 1.201 7.831-3.979 2.193 2.696 5.178 3.101 7.464.304-4.666-7.716-12.112-12.175-19.919-15.771-5.421-2.497-20.997-4.689-19.312-13.858 5.315.869 9.628-2.39 13.601-5.694-7.002-10.561-13.101-15.164-26.154-13.854-8.742.877-16.296 7.208-25.591.174 5.327-1.816 11.108-.118 17.04-1.901 7.221-2.168 8.241-4.357 15.527-3.695 6.056.55 11.97.8 17.936 1.534 5.354.658 13.117 4.236 13.306-3.766.887.515 3.328.607 4.411 1.356-.159-2.126 1.101-3.933 1.029-5.997 3.104-.597 5.912 1.887 8.455 3.857 1.785-2.746 2.441-3.085 5.265-2.541-.354-3.304 1.351-5.484 4.722-5.497-1.016-2.555-1.476-5.392-1.32-8.314 1.458 1.407 3.849 2.574 5.185 4.347-.816-1.779-1.389-4.873-2.093-6.681 9.232 2.854-1.964-9.146-3.856-10.916-4.274-4-9.187-7.526-14.159-10.751-12.376-8.023-23.705-13.92-33.925-26.519 3.39 2.63 7.352 3.819 11.209 5.576 1.461.666 3.279 2.754 4.796 3.102 2.436.557 3.159-1.49 5.483-1 6.986 1.472 8.946 6.844 14.806 10.136 3.122 1.753 7.07.878 9.944 3.79-1.393-2.828-3.214-6.028-3.665-9.168 5.283 1.746 8.583 9.552 14.552 6.76-.767-3.71-4.333-7.214-6.747-10.421l.046.217c-9.068-11.525-24.746-17.977-31.055-31.006 4.067 1.216 7.452 4.874 11.313 6.292.319-.672.12-1.436.283-2.155 1.149 1.199 3.311 1.407 4.361 2.155.383-.931.25-1.298.888-2.136 6.684 1.29 10.962 5.488 17.647 6-1.396-1.803-1.685-4.17-2.763-5.999 1.031.693 3.284.887 4.626 1.941.218-.198.773-2.232.874-2.7.571.211 2.708.767 3.479.734-1.851-1.972-1.944-4.188-2.723-6.216.675.146 1.314.697 1.928.804-2.488-4.296-5.062-7.996-8.228-11.283.84-1.924 1.507-3.925 2.495-5.625 4.928 5.437 7.192 12.417 11.657 18.145 1.808 2.324 3.926 4.467 6.026 6.615v176.248H214.481c-3.03-4.362-4.876-9.427-2.132-12.439ZM94.268 455.307c-.461 1.262-1.357 1.72-1.881 2.857-5.915-3.541-7.351 2.931-6.919 7.787-6.33-2.947-5.107 2.974-7.848 6.141-3.016 3.483-4.896 2.576-7.583 4.613-3.861 2.931-5.394 7.682-8.737 10.955-2.723 2.661-5.57 2.872-8.237 5.512 2.656-7.708 7.976-22.937 16.122-24.769-2.625-3.867-8.012-4.45-9.945-8.452 3.34.888 7.18.989 9.128-2.256-1.156-.996-1.365-2.5-2.132-3.362 1.755-.208 3.31-1.614 5.28-1.606-.803-.896-1.276-2.82-2.345-3.755 1.76-.851 4.444-2.167 6.386-3.129-2.313-3.791-6.606-6.214-9.858-9.32 1.849-1.979 3.833-3.71 5.918-3.914 7.447-.728 8.883 6.404 13.967 9.364 3.508 2.04 5.52 1.086 8.741 4.65 1.735 1.914 3.472 7.781 5.846 8.558.02.484.04.958.065 1.423-1.441-.667-4.583-.624-5.968-1.297Z" fill="#181C2F"/><path d="M7.085 467.719c4.798-2.771 10.978-1.882 15.355-5.536 9.368-7.827 11.125-18.791 19.04-27.883.875.82 2.904 1.276 3.69 2.117 3.627-10.31 10.305 1.514 12.567 6.176.202.074.404.144.607.215 2.07.268 4.56-3.292 7.355-6.285 3.252 3.106 7.545 5.529 9.858 9.32a873.188 873.188 0 0 1-6.386 3.129c1.069.935 1.542 2.859 2.345 3.755-1.97-.008-3.525 1.398-5.28 1.606.767.862.976 2.366 2.132 3.362-1.948 3.245-5.788 3.144-9.128 2.256 1.933 4.002 7.32 4.585 9.945 8.452-8.146 1.832-13.466 17.061-16.122 24.769 2.666-2.64 5.514-2.851 8.237-5.512 3.343-3.273 4.876-8.024 8.737-10.955 2.687-2.037 4.567-1.13 7.583-4.613 2.741-3.167 1.517-9.088 7.848-6.141-.432-4.856 1.004-11.328 6.919-7.787.524-1.137 1.42-1.595 1.881-2.857 1.385.673 4.527.63 5.968 1.297-.025-.465-.045-.939-.065-1.423l.162.062c2.904.653 6.25-4.492 8.57-5.512 3.318-1.46 5.101-.436 8.394-1.752 3.431-1.374 4.11-4.86 8.55-4.35-2.51-.288 7.009 4.823 5.913 4.003 4.667 3.153 9.377 7.524 13.692 10.624 3.337 2.401 10.451 12.236 13.992 13.136 2.031.515 5.168-2.467 7.145-2.837a12.748 12.748 0 0 1 2.582-.194c2.236.034 4.437.511 6.57.627 5.844.32 10.818-1.691 16.928-1.228 1.527.119 2.863 3.081 4.835 3.029 1.665-.046 2.391-2.134 3.907-2.214.906-.05 2.001-1.424 3.072-1.592 1.281-.199 3.126 1.809 4.505 1.586 5.709-.922 8.532-5.894 14.983-4.288 8.013 1.999 5.732 7.171 12.202.024 5.195-5.741 6.675-13.529 12.24-18.576 1.731-1.572 3.851-2.878 6.606-3.773 1.01-.328 2.125-.404 3.266-.393 2.386.021 4.894.416 6.835-.347 3.067-1.201 3.464-4.016 6.029-5.476 2.4-1.364 6.24-1.16 7.963-2.339 2.649-1.809 2.161-4.201 4.06-6.216 3.595-3.809 6.187-6.832 10.517-11.07 5.054-4.944 11.215-3.143 16.554-5.986 5.285-2.812 7.014-9.332 11.793-13.057 6.887-5.367 7.425-6.972 10.879-14.961 1.61-3.728 3.46-5.503 5.558-6.81 2.627-1.637 5.647-2.542 9.078-5.625 4.878-4.388 8.716-12.44 12.416-17.876.297-.439.59-.861.885-1.276 2.279-3.231 4.459-5.863 6.893-8.387 1.638-1.697 3.394-3.35 5.371-5.106 4.088-3.626 7.168-11.975 12.323-13.87.222 1.58 2.15 3.487 2.485 4.619 5.867-6.877 7.031 3.709 11.465 6.337 5.531 3.274 9.887-1.698 15.735-.117 2.816-2.943 6.552-2.779 9.136-5.54 1.132-1.209 1.899-2.664 2.557-4.164 3.166 3.287 5.74 6.987 8.228 11.283-.614-.107-1.253-.658-1.928-.804.779 2.028.872 4.244 2.723 6.216-.771.033-2.908-.523-3.479-.734-.101.468-.656 2.502-.874 2.7-1.342-1.054-3.595-1.248-4.626-1.941 1.078 1.829 1.367 4.196 2.763 5.999-6.685-.512-10.963-4.71-17.647-6-.638.838-.505 1.205-.888 2.136-1.05-.748-3.212-.956-4.361-2.155-.163.719.036 1.483-.283 2.155-3.861-1.418-7.246-5.076-11.313-6.292l-.052-.099c-.32-.256-.343-.235-.063.063l.115.036c6.309 13.029 21.987 19.481 31.055 31.006a.55.55 0 0 0 .253.318l-.253-.318-.046-.217c2.414 3.207 5.98 6.711 6.747 10.421-5.969 2.792-9.269-5.014-14.552-6.76.451 3.14 2.272 6.34 3.665 9.168-2.874-2.912-6.822-2.037-9.944-3.79-5.86-3.292-7.82-8.664-14.806-10.136-2.324-.49-3.047 1.557-5.483 1-1.517-.348-3.335-2.436-4.796-3.102-3.857-1.757-7.819-2.946-11.209-5.576 10.22 12.599 21.549 18.496 33.925 26.519 4.972 3.225 9.885 6.751 14.159 10.751 1.892 1.77 13.088 13.77 3.856 10.916.704 1.808 1.277 4.902 2.093 6.681-1.336-1.773-3.727-2.94-5.185-4.347-.156 2.922.304 5.759 1.32 8.314-3.371.013-5.076 2.193-4.722 5.497-2.824-.544-3.48-.205-5.265 2.541-2.543-1.97-5.351-4.454-8.455-3.857.072 2.064-1.188 3.871-1.029 5.997-1.083-.749-3.524-.841-4.411-1.356-.189 8.002-7.952 4.424-13.306 3.766-5.966-.734-11.88-.984-17.936-1.534-7.286-.662-8.306 1.527-15.527 3.695-5.932 1.783-11.713.085-17.04 1.901 9.295 7.034 16.849.703 25.591-.174 13.053-1.31 19.152 3.293 26.154 13.854-3.973 3.304-8.286 6.563-13.601 5.694-1.685 9.169 13.891 11.361 19.312 13.858 7.807 3.596 15.253 8.055 19.919 15.771-2.286 2.797-5.271 2.392-7.464-.304-2.507 5.18-3.766 2.832-7.831 3.979-.671.189-3.367-.794-4.641-.622-1.52.206-2.446 3.068-3.659 3.162-2.744.209-6.295-1.526-9.341-1.587-3.731-.076-4.394 3.893-9.364.701-.008 1.583-1.326 3.342-1.054 5.222-3.109-1.015-6.149-2.364-7.805.818-6.028-2.85-12.844-4.612-18.329-8.474-3.118-2.196-5.447-6.12-9.499-7.028-3.393-.758-3.741 1.716-7.731.617-7.206-1.981-12.521-6.412-20.249-7.749-6.74-1.168-11.513-3.363-17.175-7.29 2.987 3.328 23.246 16.299 20.167 21.295-6.361 10.316-26.957-14.507-26.445.799-3.828 2.852-7.882 3.069-12.143 1.028-4.508 6.062-9.595 4.394-15.117 5.91-3.759 1.03-4.951 2.896-9.134 2.698-5.396-.256-6.324-3.051-10.884-4.684-6.257-2.24-14.248 1.756-20.205.621-3.819-.725-6.317-2.867-10.103-3.88-3.541-.949-5.756 1.069-9.189-.68.615 5.315 7.153 11.653 12.184 13.227.508 1.988 1.287 4.185 1.745 6.101-2.744 3.012-.898 8.077 2.132 12.439h-9.477c-1.603-1.898-3.265-3.723-4.877-5.463 5.944-5.747-7.596-17.299-12.723-20.26-.6.412-1.112.901-1.731 1.319-4.558-2.727-7.365-7.38-11.465-10.396-3.868-2.844-8.957-4.34-12.664-7.832-3.341-.028-12.048-8.451-15.355-10.976-5.308-4.056-9.589-10.164-15.424-13.482 3.198 4.762 7.05 10.346 12.063 14.92-.659-.314-1.404-.773-2.096-1.108-.127.134-.256.264-.389.392 1.384 3.6 4.176 8.892 6.488 10.291-.482-.192-.716.004-.702.589a95.214 95.214 0 0 1 3.888 7.06c-1.42-.417-3.464-.322-5.436-2.09 1.102 2.98 2.939 5.668 4.656 8.122-3.56.611-7.329.168-10.506-1.473.106.483.765 1.229.966 1.683-3.664-1.238-7.709-1.143-10.588-2.56-3.528-1.74-6.032-5.219-9.832-6.914.974 1.135 1.814 2.599 2.74 3.667-1.396-1.044-3.101-1.751-4.446-2.683 3.225 4.738 8.217 9.655 9.908 15.314-4.115-.275-4.714 3.5-3.967 7.034-.667-.081-1.732-.825-2.407-1.184-.078.37-.416 2.384-.656 2.698-3.497-.612-7.133-5.328-9.388-.758-.429-.441-1.573-1.493-2.196-1.96.079 1.172-.122 2.395-.08 3.512-4.353-1.17-5.857-4.162-10.782-3.372-3.667.59-3.37 3.45-8.534 2.831-7.98-.955-14.361-12.197-22.246-16.513 3.376 3.766 5.418 8.384 8.589 12.329-.367.056-1.244.969-1.21.925.725 1.144 1.238 2.543 1.562 3.762-4.185-2.354-9.301-.052-10.941 4.702-2.712-1.61-6.79-3.833-8.548-.017-1.022-.82-3.967-1.569-5.131-2.912.245 1.851-.552 4.208-.313 6.057-5.079-4.389-10.711-4.356-16.026-8.37.051.937.259 2.029.54 2.893-.508-.139-2.34-.645-2.934-.581.912 3.684 2.896 7.446 5.401 10.804H3.976v-49.46c1.025-.996 2.055-1.89 3.11-2.5Z" fill="#2B315E"/><path d="m395.08 336.76.052.099-.115-.036c-.28-.298-.257-.319.063-.063ZM426.187 367.865l.253.318a.55.55 0 0 1-.253-.318Z" fill="#fff"/></g></svg>