<svg version="1.0" xmlns="http://www.w3.org/2000/svg" width="4608" height="4608" viewBox="0 0 3456 3456"><path d="M30.8 1368.4c-.2 1.2-.1 4.2 0 6.7l.4 4.6 6.6.2c3.7.1 7.6.4 8.7.6 1.1.3 4.5.7 7.5 1 6.3.6 10.1 1.2 14.9 2.5 1.9.5 3.8.7 4.2.4.4-.2 1 0 1.4.6.3.5 1.6 1 2.9 1 1.2 0 2.6.3 3 .7.3.4 1.6.8 2.8 1 3.2.5 21.2 8.3 21.6 9.4.2.5.9.9 1.5.9.7 0 3.6 1.6 6.6 3.6 24.1 16.2 38.7 40.6 42.8 71.4.9 6.6.9 450.8 0 462.3-1.4 17.8-2.7 26-7.2 45.7-.1.9-2 6-4 11.4-3.9 10.4-10.5 22.5-16 29.1-4.7 5.7-11.2 12.5-12 12.5-.3 0-1.6.9-2.8 2.1-4.6 4.4-24.9 15.8-30.2 17-.5.1-2.6.9-4.5 1.7-3.5 1.5-11.7 4-15.5 4.7-1.1.3-4 .9-6.5 1.6-5.4 1.3-8.5 1.9-12.5 2.4-3.8.5-9.4 1.4-12 2-1.6.3-2 1.1-1.8 4.2.1 2.1.2 5.3.2 7.2.1 3.1.3 3.3 3.1 2.9 1.7-.3 3.3-.1 3.6.4.3.4 1.3.4 2.3-.1 1-.6 2.3-.6 3.1-.1.8.5 2.1.5 3 0 .9-.5 2.2-.5 3 0 .8.5 2.1.5 3 0 .9-.5 2.2-.5 3 0 .8.5 2.1.5 3 0 .9-.5 2.2-.5 3 0 .8.5 2.1.5 3 0 .9-.5 2.2-.5 3 0 .8.5 2.1.5 3 0 .9-.5 2.2-.5 3 0 .8.5 2.1.5 3 0 .9-.5 2.2-.5 3 0 .8.5 2.1.5 3 0 .9-.5 2.2-.5 3 0 .8.5 2.1.5 3.1 0 .9-.5 1.9-.7 2.2-.3.8.7 9.5.8 10.3 0 .3-.3 1.6-.2 2.8.3 1.3.4 2.9.4 3.6 0 .8-.5 1.8-.6 2.3-.3 1.2.7 14.7 1 14.7.3s9-.3 9.7.4c.3.3 1.4.1 2.4-.4 1.1-.7 2-.7 2.4 0 .3.5 1.5.6 2.8.1 1.2-.5 3.2-.5 4.4 0 1.3.5 2.5.4 2.8-.1.3-.6 1.5-.6 3 0s2.7.6 3 0c.3-.6 1.5-.6 3 0s2.7.6 3 0c.3-.6 1.5-.6 3 0s2.7.6 3 0c.3-.6 1.5-.6 3 0s2.7.6 3-.1c.4-.5 1-.7 1.5-.4.9.5 10.5.9 12.5.5.6-.1 1.4-.2 1.9-.1 3.3.7 7.8.6 8.2 0 .3-.5 1.5-.4 2.8.1 1.2.4 2.9.4 3.6 0 .8-.5 1.8-.6 2.3-.3 1.2.7 14.7 1 14.7.3s9-.3 9.7.4c.3.3 1.3.1 2.2-.4 1-.5 2.3-.5 3.1 0 .8.5 2.1.5 3 0 .9-.5 2.2-.5 3 0 .8.5 2.1.5 3 0 .9-.5 2.2-.5 3 0 .8.5 2.1.5 3 0 .9-.5 2.2-.5 3 0 .8.5 2.1.5 3.1-.1 1.1-.6 2-.5 2.4.1.3.6 1.5.6 3 0s2.7-.6 3 0c.3.6 1.5.6 3 0s2.7-.6 3 0c.3.6 1.5.6 3 0 1.4-.5 2.5-.6 2.5-.2 0 .4 1.6.7 3.5.7s3.5-.3 3.5-.7c0-.4.7-.5 1.5-.2 2.2.9 15.5 1 15.5.2 0-.4 1.2-.3 2.8.1 1.5.5 3.7.4 5 0 1.2-.5 2.2-.5 2.2 0 0 .9 5 .2 5.1-.8.1-1 .1-10.4 0-12.3 0-.9-.9-1.7-1.8-1.6-1 0-3.1-.2-4.8-.5-1.6-.3-4.8-.8-7-1.2-6.4-1-6.8-1.1-20.5-4.1-3.8-.8-16.2-4.4-18.7-5.5-1.3-.5-3.3-1.3-4.5-1.8-11.3-4.3-26.9-13-34.1-19.2-8.1-6.8-20.7-21.9-20.7-24.7 0-.6-.4-1.2-.8-1.4-1.8-.7-13.1-27.8-11.6-27.8.2 0 0-.8-.5-1.9-.6-1-1.3-3.3-1.6-5.2-.3-1.9-1-5.2-1.5-7.4-1-4.7-1.9-10.2-2.6-16.5-.3-2.5-.7-6.3-1-8.5-.3-2.2-.7-116.4-.8-253.8l-.3-249.7h3.4c1.8 0 3.3.4 3.3.9s1 3.1 2.2 5.8c1.1 2.6 2.2 5.2 2.4 5.8.3 1 8.5 20.8 10.3 25 2.7 6 4.1 9.5 5.7 14.2 1 2.9 2.2 5.3 2.6 5.3.5 0 .8.6.8 1.4 0 1.1 2.3 6.8 9.5 24.1.5 1.1.9 2.2 1 2.5.1.3.6 1.6 1.2 3s2.3 5.4 3.7 9c1.5 3.6 3.3 7.8 4.1 9.5.7 1.6 2.8 6.6 4.5 11 2.9 7.5 10.6 26.3 13.5 33 .7 1.6 2.8 6.8 4.8 11.5 1.9 4.7 5.3 12.9 7.6 18.3s4.1 10 4.1 10.2c0 .3.9 2.4 1.9 4.8 1.1 2.3 3.1 6.9 4.4 10.2 1.3 3.3 2.8 6.9 3.2 8 .5 1.1.9 2.2 1 2.5.1.3.6 1.6 1.2 3 6.3 14.7 8 19 7.6 19-.3 0-.1.6.5 1.2.5.7 3.5 7.6 6.6 15.3 3.1 7.7 6.1 14.9 6.6 16 4.1 9.3 7.7 18.5 7.2 18.5-.4 0-.2.4.3.8.9.6 5.1 9.8 5.9 12.7.2.5.8 2.1 1.3 3.5 1.1 2.6 7 16.9 15.5 37.5 2.7 6.6 5.3 12.9 5.8 14 .5 1.1 2.5 6 4.5 11 2 4.9 4.3 10.3 5 12 .7 1.6 3.9 9.3 7 17 3.1 7.7 7.4 18 9.5 23 2.1 4.9 5.2 12.6 7 17 3.1 7.8 4.2 10.5 7.3 17.5.8 1.9 2.4 5.7 3.5 8.5 1.1 2.7 3.6 8.8 5.6 13.5 4 9.7 5.9 14.3 6.1 15 .1.3.6 1.6 1.2 3s2.5 6.1 4.3 10.5c1.7 4.4 3.5 8.4 3.8 9 .4.5.7 1.2.8 1.5.1.8 1.5 4.3 3.4 8.5.9 2.2 3.4 8.3 5.5 13.5 2.1 5.2 4.5 11.3 5.5 13.5 1 2.2 3.3 7.6 5 12 1.7 4.4 4 9.8 5 12 .9 2.2 2.6 6.2 3.6 9 1 2.7 2.3 5.9 3 7 .7 1.1 1.4 2.4 1.5 3 .1.5.5 1.9.9 3 2.2 5.5 13.3 32.4 14.5 35 .7 1.6 2.1 5.1 3.1 7.7l1.9 4.8h37.1l1.3-3.8c.7-2 2.4-6.4 3.6-9.7 1.3-3.3 6.2-16.6 11-29.5 4.7-12.9 10-27.1 11.7-31.5 1.7-4.4 3.1-8.5 3.3-9 .1-.6.7-2.4 1.4-4 .6-1.7 2-5.3 3-8 1-2.8 3.3-8.8 5.1-13.5 1.7-4.7 3.2-9 3.3-9.5.2-.6.5-1.5.8-2 .8-1.3 3.9-10.7 4-12 0-.6.8-1.8 1.6-2.8.9-.9 1.3-1.7.9-1.7-.3 0 0-1.3.9-3 .8-1.6 1.5-3.1 1.5-3.2-.2-.5 4.5-13.9 5.9-17.3 1.9-4.2 5.1-14 4.9-14.5-.2-.3.4-1.7 1.3-3 .9-1.4 2-3.9 2.4-5.5 1.1-3.8.9-3.5 2.4-7 1.2-2.9 6.9-18 7.5-20 .2-.6.8-2.1 1.3-3.5.6-1.4 2.3-6.1 3.8-10.5s3.1-8.5 3.5-9c.4-.6 1.1-2.5 1.5-4.3.3-1.7 1-3.2 1.4-3.2.4 0 .7-.8.8-1.8 0-.9 1-4.2 2.2-7.2 2.3-5.8 5.1-13.4 9.8-26.5 1.5-4.4 3.2-8.3 3.6-8.6.5-.3.7-.8.6-1-.2-.2.4-2.4 1.3-4.9 4.1-11.3 17.9-48.7 18.5-50 .3-.8.7-2.2.9-3 .2-.8.8-2.3 1.3-3.5.6-1.1 2.6-6.5 4.6-12 1.9-5.5 3.9-10.9 4.4-12 2.1-4.5 7.1-18.8 7.1-20.1 0-.8.4-1.4 1-1.4.5 0 .9-.3.8-.8-.1-.4.2-1.8.6-3.2 1.2-3.7 13.6-37.2 14.6-39.5.8-2 3.4-9.2 9.1-25 1.6-4.4 3.3-8.9 3.8-10 1.4-3.1 4.3-10.8 4.6-12.5.2-.8 1.5-4.3 2.9-7.7 1.4-3.5 2.6-6.7 2.6-7.2s.8-2.6 1.7-4.7c.9-2.2 1.7-4.1 1.8-4.4.1-.3.7-1.8 1.3-3.3.7-1.6 1.2-3.3 1.2-3.8s.4-1.7.9-2.7c1.2-2 7-17.9 7.6-20.5.2-.9.7-2.3 1.2-3 .4-.6.8-1.4.9-1.7 0-.3.3-1.2.6-2s1.3-3.8 2.3-6.5c.9-2.8 2.1-5.9 2.6-7 1.9-4.3 13.1-35.1 13.2-36.3 0-.6.4-1.2.9-1.2s.7-.4.4-.8c-.3-.5 0-1.9.7-3.3.7-1.3 2.1-4.9 3.1-7.9s2.3-6.1 2.9-6.8c.5-.6.7-1.2.3-1.2-.4 0 0-1.3.9-3 .8-1.6 1.4-3.1 1.3-3.3-.2-.1.4-2.1 1.4-4.2 1.7-4.2 3-7.5 3.3-8.8.2-.4.4-.9.5-1.2.1-.3.3-.8.5-1.3 1.4-5.2 2-6.4 3.4-7.2 4.5-2.4 4.3-16.2 4.1 291.1-.1 159.7-.2 291.4-.3 292.6-.1 1.3-.4 2.3-.7 2.3-.3 0-.6.9-.7 2.1-.4 4.5-6.3 14.9-11.3 19.9-7.4 7.2-22.5 14-36.5 16.5-1.6.2-4.1.7-5.5 1-2.3.5-5.9 1-14.5 2-1.6.2-6.6.6-11 1-12.1 1-15.9 1.3-16.7 1.4-.5.1-.8 3.3-.8 7.1 0 7 0 7 2.8 7h25.5c.6 0 3.3 0 5.9.1 2.7.1 5.1 0 5.4-.4.3-.3 1.6-.2 2.8.3 1.3.4 2.9.4 3.6 0 .8-.5 1.8-.6 2.3-.3 1.2.7 14.7 1 14.7.3s9-.3 9.7.4c.3.3 1.4.1 2.4-.4 1.1-.7 2-.7 2.4 0 .3.5 1.5.6 2.8.1 1.2-.5 3.2-.5 4.4 0 1.3.5 2.5.4 2.8-.1.3-.6 1.5-.6 3 0s2.7.6 3 0c.3-.6 1.5-.6 3 0s2.7.6 3 0c.3-.6 1.5-.6 3 0s2.7.6 3 0c.3-.6 1.5-.6 3 0s2.7.6 3-.1c.4-.5 1-.7 1.5-.4.9.5 10.5.9 12.5.5.6-.1 1.4-.2 1.9-.1 3.3.7 7.8.6 8.2 0 .3-.5 1.5-.4 2.8.1 1.2.4 2.9.4 3.6 0 .8-.5 1.8-.6 2.3-.3 1.2.7 14.7 1 14.7.3 0-.3 2.1-.4 4.7-.2 2.7.1 5.4.3 6.1.2h50.5c.6 0 3.3 0 5.9.1 2.7.1 5.1 0 5.4-.4.3-.3 1.6-.2 2.8.3 1.3.4 2.9.4 3.6 0 .8-.5 1.8-.6 2.3-.3 1.2.7 14.7 1 14.7.3s9-.3 9.7.4c.3.3 1.4.1 2.4-.4 1.1-.7 2-.7 2.4 0 .3.5 1.5.6 2.8.1 1.2-.5 3.2-.5 4.4 0 1.3.5 2.5.4 2.8-.1.3-.6 1.5-.6 3 0s2.7.6 3 0c.3-.6 1.5-.6 3 0s2.7.6 3 0c.3-.6 1.5-.6 3 0s2.7.6 3 0c.3-.6 1.5-.6 3 0s2.7.6 3-.1c.4-.5 1-.7 1.5-.4 1.3.8 11.8 1 12.6.3.3-.4 1.8-.2 3.3.3 1.4.6 2.6 1 2.6 1s1.2-.4 2.7-1c1.6-.6 3-.6 3.3-.1.3.5 1.8.5 3.5 0s3-.6 3-.2c0 .8 6.8.7 7.6-.1.3-.3 1.6-.2 2.8.3 1.3.4 2.9.4 3.6 0 .8-.5 1.8-.6 2.2-.4.9.6 1.1-.8.9-8 0-2.7-.3-5.2-.6-5.5-.4-.3-2.7-.6-5.3-.8-15.7-.7-38.7-2.7-38.7-3.3 0-.1-1.3-.3-3-.5-10.2-.8-25.7-5.5-37.4-11.3-5.3-2.7-14.1-12-16.6-17.6-2.4-5.4-4.4-14.1-4.5-19.1-.4-25.7 0-581.6.4-585.5.7-5.8 2.4-11.5 5.1-16.7 1.4-2.9 9.1-11.4 12.6-13.8 5.6-4.1 23.5-10.9 31.3-12 1.7-.2 3.1-.4 3.1-.5 0-1.2 43.7-5.6 51.8-5.2 1.9.1 2.2-1.9 1.8-11.1l-.1-2.4H729.1l-7.1 19.6c-4 10.8-7.6 20.5-8.1 21.6-.5 1.1-1.8 4.7-3 8-1.1 3.3-2.3 6.7-2.6 7.5-.4.8-.7 1.7-.8 2-.1.3-.5 1.2-.8 2-.4.8-2.2 6-4.2 11.5-1.9 5.5-3.9 10.9-4.5 12-.5 1.1-1.9 4.9-3.1 8.5-1.1 3.6-2.5 7.1-3.1 7.7-.6.7-.8 1.3-.5 1.3.4 0-.2 2-1.3 4.5s-1.7 4.5-1.5 4.5c.2 0-.7 2.5-2.1 5.5-1.3 3.1-2.4 6.2-2.4 7 0 .8-.5 1.5-1 1.5-.6 0-.9.3-.8.7.3.9-2.8 10.7-4.2 13.8-1 2.1-17.7 47.3-19 51.5-.4 1.4-1.4 3.8-2 5.5-.7 1.6-1.4 3.4-1.5 4-.2.5-2.3 6.4-4.8 13s-4.9 13.2-5.2 14.8c-.4 1.5-1.1 3-1.6 3.3-.5.3-.9 1.1-.9 1.9 0 .8-.5 2.6-1.2 4.2-.6 1.5-1.2 3.2-1.3 3.8-.3.9-2.9 7.8-5 13-.4 1.1-.9 2.4-1.1 3-.3 1.4-10.3 28.6-11.3 31-.5 1.1-2.6 6.7-4.6 12.5-2.1 5.8-4.4 11.9-5.1 13.7-.8 1.7-1.4 3.6-1.4 4.2 0 .6-.4 1.9-.9 2.9-1 1.7-8.9 22.5-9.6 25.2-.6 2.2-9.3 25.9-11 30-.8 1.9-3.5 9.3-6.1 16.5-2.6 7.1-6 16.6-7.6 21-1.7 4.4-3.9 10.5-4.9 13.5-1.1 3-2.4 6.4-2.8 7.5-.5 1.1-1.4 3.6-2.1 5.5-.7 1.9-1.6 4.4-2 5.5-.4 1.1-1.3 3.3-1.9 5-.6 1.6-1.6 4.3-2.2 6-.7 1.6-1.3 3.2-1.3 3.5-.1.3-.6 1.8-1.3 3.5-.6 1.6-2.8 7.7-4.8 13.5-2.1 5.8-4.4 11.8-5 13.5-.7 1.6-3 7.7-5 13.5-2.1 5.8-4.2 11.6-4.8 13-.5 1.4-1.1 3.1-1.3 3.9-.1.8-1.2 2.3-2.3 3.4-2.2 2.2-4.8 1.7-5.7-1-.8-2.4-8.3-21.3-9.4-23.8-.5-1.1-2.8-6.7-5-12.5-4.8-12.1-5.2-13.2-7.4-18.2-.9-2-1.6-3.9-1.6-4.3 0-.6-.7-2.3-4.1-10-1.6-3.6-7-17-7.3-18-.5-1.7-1.7-4.8-3.6-9-.9-2.2-2.1-5.1-2.5-6.5-.4-1.4-1.5-4.3-2.5-6.5s-5.6-13.7-10.4-25.6c-4.7-11.9-9.3-23.4-10.3-25.5-.9-2.1-1.7-4.1-1.8-4.4 0-.6-2.4-6.7-3.6-9.5-4.4-10.3-5.8-13.6-6-14.3-.4-1.9-61.7-154.9-63.5-158.6-.8-1.6-1.4-3.4-1.4-4 0-.6-.6-2.2-1.3-3.6-.8-1.4-1.8-3.9-2.5-5.5-2.8-7.7-18.8-47.7-21.1-53-1-2.2-1.8-4.6-1.9-5.8-.1-.4-.8-2-1.6-3.5s-3.1-7-5.2-12.2c-2-5.2-4.2-10.9-4.9-12.5-.7-1.7-2.5-6.2-4-10-1.5-3.9-3-7.5-3.3-8-.4-.6-.7-1.5-.8-2-.1-.6-1-3.1-2.1-5.5-1.1-2.5-3.5-8.3-5.2-13-1.8-4.7-3.9-9.9-4.6-11.5-1.9-4.5-3.7-8.8-4.5-11-.4-1.1-1.2-3.1-1.8-4.5-.6-1.4-1.9-4.6-3-7.1l-1.9-4.6H31.1l-.3 2.1zM1055.3 1366.9c-.4.3-.8 3.2-.8 6.3 0 6.6-.5 6.2 11.9 7.3 5.9.5 11.4 1.4 24.6 4 9 1.8 35.2 12.4 38 15.5.3.3 1.8 1.2 3.4 2 7.6 3.9 23.9 20.1 30.1 29.9 4.3 6.9 10.8 20.6 12.1 25.6.1.5 1 3.7 1.8 7 .9 3.3 1.9 7.8 2.2 10 .3 2.2.8 5.1 1.1 6.5.9 3.8 1 446.1.1 446.6-.4.3-.3 1.6.2 2.9.5 1.4.6 2.5.2 2.5-.4 0-.7 1.9-.8 4.3-.1 7.5-3.9 32.7-5.8 39.2-.2.5-.6 2.3-1 4-1.3 5.5-9.9 26.5-10.7 26.5-.5 0-.9.5-.9 1.1 0 3.4-11.5 17.6-22.3 27.5-2.9 2.6-13.8 9.5-20.2 12.7-6.6 3.3-21.9 9.1-26.8 10.2-1.2.2-4.2.9-6.7 1.6-2.5.6-5.3 1.2-6.3 1.4-1 .2-2.6.6-3.5.9-.9.3-3.5.8-5.7 1.1-2.2.4-5.3.9-7 1.2-1.6.2-4 .4-5.2.4-1.5 0-2.3.5-2.4 1.7-.5 8.1-.2 12.5.7 12.9 2 .7 10.4.8 10.4.1 0-.4.7-.5 1.5-.2 1.9.8 16.5 1.1 16.5.4 0-.7 9-.3 9.7.4.3.3 1.4.1 2.4-.4 1.1-.7 2-.7 2.4 0 .3.5 1.5.6 2.8.1 1.2-.5 3.2-.5 4.4 0 1.3.5 2.5.4 2.8-.1.3-.6 1.5-.6 3 0s2.7.6 3 0c.3-.6 1.5-.6 3 0s2.7.6 3 0c.3-.6 1.5-.6 3 0s2.7.6 3 0c.3-.6 1.5-.6 3 0s2.7.6 3-.1c.4-.5 1-.7 1.5-.4.9.5 10.5.9 12.5.5.6-.1 1.4-.2 1.9-.1 3.3.7 7.8.6 8.2 0 .3-.5 1.5-.4 2.8.1 1.2.4 2.9.4 3.6 0 .8-.5 1.8-.6 2.3-.3 1.2.7 14.7 1 14.7.3 0-.3 2.1-.4 4.7-.2 2.7.1 5.4.3 6.1.2h50.5c.6 0 3.3 0 5.9.1 2.7.1 5.1 0 5.4-.4.3-.3 1.6-.2 2.8.3 1.3.4 2.9.4 3.6 0 .8-.5 1.8-.6 2.3-.3 1.2.7 14.7 1 14.7.3s9-.3 9.7.4c.3.3 1.4.1 2.4-.4 1.1-.7 2-.7 2.4 0 .3.5 1.5.6 2.8.1 1.2-.5 3.2-.5 4.4 0 1.3.5 2.5.4 2.8-.1.3-.6 1.5-.6 3 0s2.7.6 3 0c.3-.6 1.5-.6 3 0s2.7.6 3 0c.3-.6 1.5-.6 3 0s2.7.6 3 0c.3-.6 1.5-.6 3 0s2.7.6 3-.1c.4-.5 1-.7 1.5-.4.9.5 7.9.8 14.6.6l3-.1-.1-7c-.1-3.9-.4-7.2-.6-7.4-.2-.2-3.4-.6-7-1-3.6-.3-9-1-12-1.6-3-.6-6.5-1.3-7.9-1.5-1.4-.3-3.6-.7-5-1-1.4-.4-3.8-.9-5.5-1.2-5.8-1-26.4-8.2-34-11.8-17.9-8.6-31.7-20.4-42-36-5.2-7.9-11.5-20.4-11.5-22.9 0-.7-.3-1.6-.7-2-.5-.4-.8-1.1-.9-1.4 0-.4-.7-3.2-1.6-6.2-3.3-11.2-5.4-22.4-6.3-33-.2-2.5-.5-4.5-.6-4.5-.9 0-1.1-39.4-1.3-228.2-.2-120 .1-218 .5-217.7.4.2 5 5.9 10.1 12.5 5.1 6.7 11.3 14.7 13.8 17.9 2.5 3.1 5.6 7.2 7 9 4.1 5.5 7.5 9.5 8.3 9.8.4.2.7.8.7 1.3s.7 1.7 1.5 2.6c1.2 1.5 13.3 17 19.6 25.3 1.1 1.4 7.2 9.3 13.7 17.6 6.4 8.3 12.6 16.3 13.7 17.9 1.1 1.5 2.5 3.2 3 3.9.6.6 2.9 3.6 5.3 6.6 2.3 3 4.5 5.9 5 6.5.4.5 3 3.9 5.7 7.5 2.8 3.6 5.2 6.7 5.5 7 2 2 7 9.1 7 9.9 0 .6.4 1.1.8 1.1.5 0 3.9 4.2 7.8 9.2 3.8 5.1 7.1 9.5 7.4 9.8.3.3 2.1 2.5 4 5s3.9 5 4.5 5.6c.5.6 2.1 2.7 3.5 4.7s2.8 3.7 3.3 3.7c.4 0 .7.4.7 1 0 1 1.4 2.9 6.3 8.3 1.5 1.8 2.7 3.5 2.7 3.9 0 .3.6 1.3 1.3 2 .8.7 7.1 8.7 14.1 17.8 6.9 9.1 13.2 17.2 13.9 18 .7.8 2.3 3.1 3.7 5 1.3 1.9 2.9 3.9 3.6 4.5.6.5 4.6 5.7 9 11.5 4.3 5.8 8.9 11.6 10.1 13 1.3 1.4 2.3 2.8 2.3 3.2 0 .3.6 1.3 1.3 2 1.5 1.4 27.5 35 32.1 41.3 1.6 2.2 3.4 4.4 4 5 .6.5 4.5 5.5 8.6 11s8.1 10.7 8.7 11.5c1.5 1.9 15.9 20.4 19.3 25 3.6 4.8 14.9 19.2 16.8 21.5 1 1.1 2.8 3.6 4.2 5.5 1.3 1.9 2.7 3.7 3 4 .3.3 2.1 2.5 4 5s3.8 4.9 4.2 5.5c.5.5 2.2 2.8 3.8 5 1.6 2.2 3.6 4.7 4.3 5.5.7.8 2.7 3.3 4.3 5.5 1.6 2.2 3.1 4.2 3.4 4.5.3.3 3.4 4.3 6.9 9 3.6 4.7 7.1 9.2 7.8 10 .8.8 3.4 4.2 5.8 7.5 2.5 3.3 5 6.7 5.7 7.5.7.8 5.4 6.8 10.5 13.5 5.1 6.6 10.2 13.1 11.3 14.5 1.1 1.4 5.7 7.2 10 13 4.4 5.8 8.6 11.2 9.3 12 .7.8 3.4 4.4 6.1 8 2.7 3.6 5.6 7.2 6.3 8 .8.8 3 3.7 5.1 6.5 2 2.7 4.2 5.5 4.7 6.1.6.6 1.7 2.2 2.5 3.4.8 1.2 2 2.8 2.6 3.4 1.5 1.6 22.3 28.6 24.5 31.9.5.7 36.1 1.3 48.4.8 2-.1 2-.8 2-287.9.1-158.2.4-291.5.8-296.2 2.7-29.3 6.8-46.6 15.6-65 9.2-19.1 25.7-35 47.2-45.5 6.3-3 21.7-8.8 26.9-10 .8-.2 4-1 7-1.9 3-.8 7.1-1.7 9-2 1.9-.3 4.5-.8 5.7-1 1.1-.3 4.1-.8 6.6-1.1 4.3-.7 4.5-.9 4.9-4.3.1-2.1.2-5.1 0-6.8l-.3-3.1-145.2.1-145.2.1-.1 6.7-.1 6.8 3.6.2c6 .3 6.6.3 7.9 1.1.6.5 1.2.6 1.2.4 0-.3 3.3.2 7.3 1 3.9.8 8.6 1.6 10.2 1.8 1.7.2 5.5 1.1 8.5 2 3 .9 7.9 2.2 10.8 3 2.9.8 6.6 2.2 8.2 3 1.7.9 3.2 1.5 3.5 1.5 4.2.1 22.8 10.2 33 17.9 23.6 17.9 39.2 47.2 44 83.1.2 1.3.7 4.7 1.1 7.5.3 2.7.9 7 1.1 9.5.7 6.5 1 367 .3 367-.3 0-2.5-2.6-5-5.8-2.4-3.1-4.8-6.2-5.2-6.7-.5-.6-2.5-3.2-4.6-6-2-2.7-4.1-5.5-4.7-6.1-.5-.6-1.9-2.3-3-3.8-3.5-4.9-11.2-14.9-13-17-.5-.6-5.2-6.7-10.4-13.6-5.2-6.9-10.6-13.9-12-15.6-1.4-1.7-3.3-4.1-4.1-5.4-.8-1.2-3-3.9-4.7-5.9-1.8-2-3.3-3.9-3.3-4.3 0-.7-1.9-3.3-4.5-6.2-.6-.6-2.4-2.9-4-5.1-1.7-2.2-3.5-4.6-4.2-5.5-.7-.8-4.2-5.3-7.8-10-3.6-4.7-7.1-9.2-7.8-10-.7-.8-2.3-3.1-3.7-5-1.3-1.9-2.7-3.7-3-4-.3-.3-4.4-5.5-9-11.5-4.6-6.1-9.4-12.4-10.7-14-1.3-1.7-2.7-3.5-3.1-4-.4-.6-5.4-7.1-11.1-14.5-5.6-7.4-11.3-14.7-12.7-16.2-1.3-1.5-2.4-3-2.4-3.3 0-.3-.7-1.3-1.5-2.2-1.5-1.9-15.1-19.5-19.5-25.3-5.1-6.8-15.1-19.6-17.7-22.9-1.6-1.9-3-3.8-3.2-4.4-.2-.5-1.1-1.8-2-2.8-2-2.2-1.3-1.4-14.6-18.8-6.1-7.9-12.3-16-14-18.1-1.6-2.1-3.9-5-5-6.5-1.1-1.6-2.4-3.3-3-3.9-.5-.6-2.9-3.6-5.1-6.6-2.3-3-7.6-10-11.9-15.5-4.2-5.5-11.1-14.5-15.3-20-4.2-5.5-8.2-10.7-8.9-11.5-.7-.8-11.4-14.8-23.8-31s-23.4-30.4-24.3-31.5c-.9-1.1-3.5-4.5-5.7-7.5-2.1-3-4.2-5.7-4.5-6-.3-.3-2.8-3.4-5.5-7s-5.2-6.7-5.5-7c-.3-.3-1.7-2.1-3-4s-2.7-3.7-3-4c-.3-.3-2.5-3.2-5-6.5s-5.5-7.1-6.7-8.5c-1.3-1.4-2.3-2.8-2.3-3.2 0-.3-.6-1.3-1.3-2-.7-.7-2.6-3.1-4.2-5.3-1.7-2.2-3.4-4.5-4-5.2-1.7-2.1-2.9-3.6-8-10.3-2.8-3.6-5.2-6.7-5.5-7-.3-.3-1.7-2.1-3-4s-2.8-3.8-3.2-4.1c-1.1-.8-240.5-.8-241.5 0zM1906.6 1367.2c.3.4.2 1.3-.1 1.8-.6 1-1.5 32.8-1.9 63.2 0 7.6-.4 13.8-.8 13.8s-.3 1.3.2 2.9c.4 1.6.6 3.2.3 3.5-.4.3-.7 7-.9 14.8-.2 14.4-1 43.6-1.9 77.8-1.5 56.4-1.6 56 .3 56.1 2.3.1 7.1.7 11 1.4 2.5.5 3.2.2 3.2-1 0-.8.5-1.5 1-1.5.6 0 .9-.3.8-.8-.2-.6 4.2-9.4 10.2-20.3 1.4-2.6 3.8-7.1 5.3-10 6.2-11.7 14.1-25.4 15-26 .5-.3.8-1 .8-1.5-.1-1.6 22.6-38.7 24-39.2.5-.2.9-.8.9-1.3 0-.9 11.2-17.9 13.5-20.5.6-.7 1.9-2.4 3-4 17.9-25.2 39.7-48.2 60.1-63.6 5-3.7 9.6-6.8 10.2-6.8.7 0 1.2-.4 1.2-.8 0-1.4 24-12.9 31.5-15.1 15.8-4.6 20.9-5.2 42.7-5.4l17.3-.2.2 315c.2 256.7 0 316-1.1 320.6-3.2 13.8-11.6 23.8-25.7 30.7-7.9 3.8-18.8 7.4-26.9 8.7-1.9.3-4.2.8-5 1-2.3.6-6.9 1.4-12.5 2-2.7.3-7 .7-9.5 1-6.1.7-19.9 1.6-29 2-4.1.1-7.8.3-8.2.4-1 .2-.6 13.5.5 14.2.5.4 2.3.3 3.8-.1 1.6-.5 2.9-.6 2.9-.2 0 .4 2 .7 4.5.7s4.5-.3 4.5-.7c0-.4 1.3-.3 3 .2 1.8.5 3.2.5 3.5-.1.4-.5 1.3-.5 2.4 0 .9.5 2.3.6 3.1.1.7-.4 2.4-.4 3.6 0 1.4.6 2.6.5 2.9 0 .3-.6 1.5-.6 2.9 0 1.3.5 2.7.6 3 .3.4-.4 2.5-.6 4.9-.5 2.3.2 4.8.2 5.5.2h50.5c.6 0 3.3 0 5.9.1 2.7.1 5.1 0 5.4-.4.3-.3 1.6-.2 2.8.3 1.3.4 2.9.4 3.6 0 .8-.5 1.8-.6 2.3-.3 1.2.7 14.7 1 14.7.3s9-.3 9.7.4c.3.3 1.4.1 2.4-.4 1.1-.7 2-.7 2.4 0 .3.5 1.5.6 2.8.1 1.2-.5 3.2-.5 4.4 0 1.3.5 2.5.4 2.8-.1.3-.6 1.5-.6 3 0s2.7.6 3 0c.3-.6 1.5-.6 3 0s2.7.6 3 0c.3-.6 1.5-.6 3 0s2.7.6 3 0c.3-.6 1.5-.6 3 0s2.7.6 3-.1c.4-.5 1-.7 1.5-.4.9.5 10.5.9 12.5.5.6-.1 1.4-.2 1.9-.1 3.3.7 7.8.6 8.2 0 .3-.5 1.5-.4 2.8.1 1.2.4 2.9.4 3.6 0 .8-.5 1.8-.6 2.3-.3 1.2.7 14.7 1 14.7.3 0-.3 2.1-.4 4.7-.2 2.7.1 5.4.3 6.1.2h50.5c.6 0 3.3 0 5.9.1 2.7.1 5.1 0 5.4-.4.3-.3 1.6-.2 2.8.3 1.3.4 2.9.4 3.6 0 .8-.5 1.8-.6 2.3-.3 1.2.7 14.7 1 14.7.3s9-.3 9.7.4c.3.3 1.4.1 2.4-.4 1.1-.7 2-.7 2.4 0 .3.5 1.5.6 2.8.1 1.2-.5 3.2-.5 4.4 0 1.3.5 2.5.4 2.8-.1.3-.6 1.5-.6 3 0s2.7.6 3 0c.3-.5 1.5-.6 2.9 0 1.2.4 2.9.4 3.6 0 .8-.5 2.1-.5 3 0 .9.5 2.2.5 3 0 .8-.5 2.1-.5 2.9-.1.9.5 2.5.5 3.6.1s2.9-.4 4.1 0c3.6 1.4 4.7-.3 4.8-7 .1-3.4-.3-6.5-.9-6.8-.5-.3-4.1-.7-8-.8-7.8-.3-23.3-1.2-28-1.8-1.6-.2-6.1-.7-10-1-3.8-.4-7.7-.9-8.5-1.1-2.3-.6-7.2-1.6-10-1.9-2.9-.4-17.6-4.5-19.9-5.5-14-6.6-15.9-7.9-22-14.1-3.7-3.8-9.1-13-9.7-16.5-.1-.6-.5-2.8-.9-5-1-5.1-1.4-631.7-.4-633 1.4-1.9 41.4-.6 46.9 1.5.3.1.8.2 1.2.1.4 0 4.9 1.3 10 3 10.9 3.5 24 9.6 32.1 15 3.2 2.2 6 3.9 6.3 3.9.2 0 1.2.8 2.2 1.7 1.1 1 3.1 2.7 4.6 3.7 8.6 6.2 27.5 24.6 38 37.1 3.6 4.4 7.2 8.7 8 9.5.7.8 3.3 4.2 5.7 7.5 2.4 3.3 4.9 6.5 5.4 7.2.6.6 2.1 2.8 3.5 4.8s3.9 5.6 5.6 7.9c1.8 2.4 3.5 5.2 3.8 6.4.4 1.1 1.3 2.3 2.1 2.6.8.3 1.5 1.2 1.5 2.1 0 .8.5 1.5 1 1.5.6 0 1 .7 1 1.5s.5 1.5 1 1.5c.6 0 1 .5 1 1.1 0 .6 1.4 3 3 5.4 1.7 2.4 3 4.8 3 5.3 0 .6.3 1.2.8 1.4.9.4 7.2 10.7 7.2 11.9 0 .5.5.9 1 .9.6 0 1 .4 1 .9s1.9 4.2 4.3 8.3c2.4 4 5.9 10 7.7 13.3 1.8 3.3 4.1 7.4 5 9 3 5.4 10.2 18.8 14.2 26.5 2.2 4.1 4.4 8 4.9 8.6.5.6.6 1.4.2 1.7-.3.4-.2.7.4.7.6 0 1.3.9 1.6 2 .3 1.4 1.2 1.8 2.8 1.5 1.3-.2 4.6-.6 7.4-1 2.7-.3 5.1-.8 5.4-1 .5-.5.3-8.1-1.4-86.5-.3-17.9-.8-40.2-1-49.7-.2-9.5-.6-17.7-1-18.3-.3-.5-.2-1 .4-1 .7 0 .7-.8.2-2.3-.5-1.2-.5-3.1-.1-4.2s.5-2.4.2-2.9-.7-9.3-.8-19.5c-.2-10.2-.5-25.6-.7-34.1l-.4-15.5-322.1-.1c-177.2 0-321.9.3-321.6.8zM2654.9 1367.9c-.1 1.8-.1 7.7 0 10.2.1 1.2 1.1 1.7 3.4 1.8 1.7 0 5.1.3 7.5.6 2.3.3 6.1.7 8.5 1 2.3.2 5.3.7 6.7 1 1.4.3 3.6.8 5 1.1 1.4.3 3.8.8 5.5 1.1 10.9 1.9 29.9 10.1 42 18.1 6.2 4.1 20.3 17.2 24.5 22.7 11.1 14.5 19.3 35.5 21.7 55 .6 5.4.6 449.4-.1 457-.5 6.2-1.5 15.1-2.1 18.9-.2 1.1-.6 3.7-.9 5.6-.5 3.2-.9 5-2 9.7-.2 1-.9 4-1.6 6.7-1.6 7.2-7.9 23.4-10.8 28.1-1.4 2.2-2.4 4-2.2 4 .7 0-6.3 9.8-9.5 13.4-6.1 6.8-19.2 18.1-21 18.1-.4 0-2.1 1.1-3.9 2.5-1.8 1.4-3.5 2.5-3.8 2.5-.3 0-3.5 1.4-7.2 3-3.6 1.7-6.9 3.1-7.3 3.2-.5 0-2.4.8-4.3 1.6-3.5 1.5-11.8 4-15.5 4.7-1.1.3-3.8.9-6 1.5-2.2.5-5.6 1.2-7.5 1.5-1.9.3-4.6.8-5.8 1.1-3 .6-10.3 1.7-11.9 1.7-1.4 0-1.5.6-1.5 7.2 0 7.4 0 7.5 3 7.5h55.5c.6 0 3.3 0 5.9.1 2.7.1 5.1 0 5.4-.4.3-.3 1.6-.2 2.8.3 1.3.4 2.9.4 3.6 0 .8-.5 1.8-.6 2.3-.3 1.2.7 14.7 1 14.7.3s9-.3 9.7.4c.3.3 1.4.1 2.4-.4 1.1-.7 2-.7 2.4 0 .3.5 1.5.6 2.8.1 1.2-.5 3.2-.5 4.4 0 1.3.5 2.5.4 2.8-.1.3-.6 1.5-.6 3 0s2.7.6 3 0c.3-.6 1.5-.6 3 0s2.7.6 3 0c.3-.6 1.5-.6 3 0s2.7.6 3 0c.3-.6 1.5-.6 3 0s2.7.6 3-.1c.4-.5 1-.7 1.5-.4.9.5 10.5.9 12.5.5.6-.1 1.4-.2 1.9-.1 3.3.7 7.8.6 8.2 0 .3-.5 1.5-.4 2.8.1 1.2.4 2.9.4 3.6 0 .8-.5 1.8-.6 2.3-.3 1.2.7 14.7 1 14.7.3 0-.3 2.1-.4 4.7-.2 2.7.1 5.4.3 6.1.2h50.5c.6-.1 3.3.1 6 .2 2.6.2 4.7 0 4.7-.4s1.3-.3 3 .2c1.8.5 3.2.5 3.6-.1.3-.5 1-.6 1.6-.3.9.6 12.9.9 15.3.4.6-.1 1.7-.3 2.5-.4 1.1-.1 1.5-1.6 1.6-6.1.1-7.9-.1-8.1-4.4-8.3-2-.1-4.8-.4-6.2-.7-1.4-.3-4.1-.8-6-1-3.9-.6-10-1.8-21-4.1-3.9-.9-4.2-1-9-2.4-2.5-.7-4.9-1.4-5.5-1.6-.5-.1-3.6-1.2-6.7-2.4-3.2-1.2-5.9-2.1-6-2-.6.2-19.7-9.9-20.8-11-.3-.3-1.8-1.4-3.4-2.4-7.4-4.7-18.4-16-24.5-25-4.7-6.9-11.1-19.5-12.6-24.6-.1-.3-1.1-3.7-2.2-7.5-1.2-3.9-2.5-8.6-2.9-10.5-.4-1.9-.8-3.7-.9-4-.6-2.5-2.6-15.4-3-19-.3-2.5-.8-5.9-1.1-7.5-.9-4.5-1.2-444.5-.3-443.9.4.2 5 5.9 10.1 12.5 5.1 6.7 11.3 14.7 13.8 17.9 2.5 3.1 5.6 7.2 7 9 4.1 5.5 7.5 9.5 8.3 9.8.4.2.7.8.7 1.3s.7 1.7 1.5 2.6c1.2 1.5 10.2 13.1 19.6 25.3 17.3 22.4 25.4 32.9 26.7 34.5 1 1.1 3.7 4.7 6.2 8s5.1 6.6 5.7 7.5c1.7 2 16.2 20.8 19.3 24.9 1.4 1.9 3.2 4.2 4 5.1.8 1 4 5.1 7 9 3 4 8.3 10.8 11.8 15.1 3.4 4.3 6.2 8.1 6.2 8.4 0 .3.9 1.6 2.1 2.8 1.1 1.2 5.9 7.2 10.6 13.4 4.6 6.2 9.1 11.7 9.9 12.4.8.6 1.4 1.7 1.4 2.4s.7 1.5 1.5 1.9c.8.3 1.5 1.2 1.5 2s.4 1.6.9 1.8c.6.1 3.6 3.7 6.8 7.9 12.5 16.4 28.8 37.5 30 38.7.7.7 1.3 1.6 1.3 2 0 .4 1.3 2 2.8 3.7 1.5 1.6 3.9 4.6 5.2 6.5 1.3 1.9 2.7 3.7 3 4 .3.3 1.9 2.3 3.6 4.5 1.6 2.2 3.4 4.6 4.1 5.5 1.6 1.9 27.6 35.5 30.6 39.4 1.2 1.6 2.8 3.5 3.5 4.2.6.7 1.2 1.7 1.2 2.2 0 .6.4 1.2.8 1.4.4.2 5 5.9 10.2 12.8 5.2 6.8 10.2 13.2 11 14.1.8.9 2.5 2.9 3.7 4.5 1.1 1.6 7.3 9.6 13.7 17.9 10 13 32.5 42 34.8 45 .4.5 3.7 4.7 7.3 9.3 3.6 4.5 6.5 8.6 6.5 9.1s.3 1.1.8 1.3c.7.3 4.1 4.3 8.2 9.8 1.4 1.8 4.5 5.9 7 9 2.5 3.1 5.4 6.9 6.5 8.4 1.1 1.6 2.5 3.3 3 4 .6.6 2.4 2.9 4 5.1 1.7 2.2 3.2 4.2 3.5 4.5.3.3 2.5 3.2 5 6.5s4.7 6.2 5 6.5c.3.3 3.5 4.3 7 9 6.7 8.8 8.3 10.8 11.3 14.2.9 1.2 1.7 2.4 1.7 2.8 0 .3.9 1.5 1.9 2.7 1.1 1.1 7.2 9 13.7 17.4 6.5 8.5 12.2 15.5 12.6 15.7.4.2.8.8.8 1.3s.8 1.7 1.8 2.7c.9 1 2.6 3 3.7 4.6 1.1 1.5 2.8 3.7 3.8 4.9 1 1.2 2.2 2.8 2.7 3.6.6 1.2 5.2 1.4 24.9 1.4 13.3 0 24.4-.3 24.7-.6.4-.3.8-131 .9-290.4.2-159.4.5-291.4.8-293.3.2-1.9.7-6.9 1.1-11 .7-7.2 3.5-22.1 5.6-29.8.5-2.1.9-3.9.9-4.2 0-.3.8-2.8 1.9-5.5 2.3-6 3.3-8.9 3.3-9.2 0-.9 9.7-17.4 12.2-20.7 9.3-12.1 23-23 37.9-30.1 6.7-3.2 19.3-8.1 22.8-9 .8-.2 5.1-1.2 9.5-2.3 11.4-2.9 21.6-4.9 26.3-5.1.8-.1 1.2-2.2 1.2-6.9v-6.9l-145.2.1-145.3.1-.1 6.3c0 3.5.2 6.5.5 6.6.3.2 2.9.7 5.6 1.1 7.6 1 8.6 1.2 13.5 2 2.4.3 4.7.8 5 1 .3.2 2.5.6 5 1s4.8.9 5.3 1.2c.4.3 2.2.7 3.9 1 3.5.5 19.7 5.8 24.8 8 15.4 6.8 20.8 9.9 31 17.7 5.9 4.5 14.9 13.2 17.5 16.8 10.8 15.3 19.1 32.3 22 45.4 3.5 16.1 4.1 19.3 5 27.9.4 3.3.9 7.3 1.2 9 .8 4.7 1 367.6.2 367.3-.6-.3-11-13.3-18.6-23.4-1.2-1.6-2.9-3.8-3.8-4.9-.8-1.1-2.9-3.8-4.5-6-4.2-5.5-7.3-9.5-8.5-10.9-.5-.6-5.2-6.7-10.4-13.6-5.2-6.9-10.6-13.9-12-15.6-1.4-1.7-3.3-4.1-4.1-5.4-.8-1.2-3-3.9-4.7-5.9-1.8-2-3.3-3.9-3.3-4.3 0-.7-1.9-3.3-4.5-6.2-.6-.6-2.4-2.9-4-5.1-1.7-2.2-3.5-4.6-4.2-5.5-.7-.8-4.2-5.3-7.8-10-3.6-4.7-7.1-9.2-7.8-10-.7-.8-2.3-3.1-3.7-5-1.3-1.9-2.7-3.7-3-4-.4-.3-4.2-5.2-8.5-11-4.4-5.8-8.2-10.7-8.5-11-.3-.3-3.5-4.3-7-9s-6.8-9-7.2-9.5c-.4-.6-2.8-3.6-5.3-6.7s-4.5-6.1-4.5-6.6c0-.6-.3-1.2-.7-1.4-.8-.3-4.1-4.2-8.3-9.8-1.4-1.8-3.3-4.2-4.2-5.3-1-1.1-1.8-2.3-1.8-2.6 0-.3-1-1.7-2.2-3.1-1.3-1.4-5.2-6.3-8.8-11-3.5-4.7-6.8-8.7-7.2-8.8-.4-.2-.8-.9-.8-1.5s-.9-2-2-3.2c-1.2-1.1-4.5-5.2-7.4-9.1-2.9-3.9-5.8-7.7-6.5-8.5-.6-.8-3.2-4.1-5.6-7.4-2.5-3.3-5.1-6.7-5.8-7.5-.7-.8-2.7-3.3-4.3-5.5-1.6-2.2-3.1-4.2-3.4-4.5-.3-.3-2.5-3.2-5-6.5-2.4-3.3-5.6-7.4-7-9.1-1.4-1.7-3.4-4.4-4.5-5.9-1.1-1.6-2.4-3.3-3-3.9-.5-.6-2.9-3.6-5.1-6.6-2.3-3-7.6-10-11.9-15.5-4.2-5.5-11.1-14.5-15.3-20-4.2-5.5-8.2-10.7-8.9-11.5-.7-.8-12.9-16.8-27.3-35.5-14.3-18.7-27.6-36-29.5-38.5-1.9-2.5-7.8-10.1-13.1-17s-10.1-12.8-10.8-13.2c-.6-.4-.8-.8-.4-.8.7 0-.5-1.6-4.7-6.4-.5-.6-2.1-2.7-3.5-4.6-1.3-1.9-2.8-4-3.2-4.5-.5-.6-4.5-5.7-8.9-11.5-4.5-5.8-8.8-11.4-9.8-12.5-.9-1.1-2.9-3.8-4.6-6.1l-2.9-4.1h-120.8c-109.7 0-120.8.2-120.9 1.6z"/></svg>