<?xml version="1.0" standalone="no"?>
<!DOCTYPE svg PUBLIC "-//W3C//DTD SVG 20010904//EN"
 "http://www.w3.org/TR/2001/REC-SVG-20010904/DTD/svg10.dtd">
<svg version="1.0" xmlns="http://www.w3.org/2000/svg"
 width="3456.000000pt" height="3456.000000pt" viewBox="0 0 3456.000000 3456.000000"
 preserveAspectRatio="xMidYMid meet">
<metadata>
Created by potrace 1.14, written by Peter Selinger 2001-2017
</metadata>
<g transform="translate(0.000000,3456.000000) scale(0.100000,-0.100000)"
fill="#000000" stroke="none">
<path d="M308 20876 c-2 -12 -1 -42 0 -67 l4 -46 66 -2 c37 -1 76 -4 87 -6 11
-3 45 -7 75 -10 63 -6 101 -12 149 -25 19 -5 38 -7 42 -4 4 2 10 0 14 -6 3 -5
16 -10 29 -10 12 0 26 -3 30 -7 3 -4 16 -8 28 -10 32 -5 212 -83 216 -94 2 -5
9 -9 15 -9 7 0 36 -16 66 -36 241 -162 387 -406 428 -714 9 -66 9 -4508 0
-4623 -14 -178 -27 -260 -72 -457 -1 -9 -20 -60 -40 -114 -39 -104 -105 -225
-160 -291 -47 -57 -112 -125 -120 -125 -3 0 -16 -9 -28 -21 -46 -44 -249 -158
-302 -170 -5 -1 -26 -9 -45 -17 -35 -15 -117 -40 -155 -47 -11 -3 -40 -9 -65
-16 -54 -13 -85 -19 -125 -24 -38 -5 -94 -14 -120 -20 -16 -3 -20 -11 -18 -42
1 -21 2 -53 2 -72 1 -31 3 -33 31 -29 17 3 33 1 36 -4 3 -4 13 -4 23 1 10 6
23 6 31 1 8 -5 21 -5 30 0 9 5 22 5 30 0 8 -5 21 -5 30 0 9 5 22 5 30 0 8 -5
21 -5 30 0 9 5 22 5 30 0 8 -5 21 -5 30 0 9 5 22 5 30 0 8 -5 21 -5 30 0 9 5
22 5 30 0 8 -5 21 -5 30 0 9 5 22 5 30 0 8 -5 21 -5 30 0 9 5 22 5 30 0 8 -5
21 -5 31 0 9 5 19 7 22 3 8 -7 95 -8 103 0 3 3 16 2 28 -3 13 -4 29 -4 36 0 8
5 18 6 23 3 12 -7 147 -10 147 -3 0 7 90 3 97 -4 3 -3 14 -1 24 4 11 7 20 7
24 0 3 -5 15 -6 28 -1 12 5 32 5 44 0 13 -5 25 -4 28 1 3 6 15 6 30 0 15 -6
27 -6 30 0 3 6 15 6 30 0 15 -6 27 -6 30 0 3 6 15 6 30 0 15 -6 27 -6 30 0 3
6 15 6 30 0 15 -6 27 -6 30 1 4 5 10 7 15 4 9 -5 105 -9 125 -5 6 1 14 2 19 1
33 -7 78 -6 82 0 3 5 15 4 28 -1 12 -4 29 -4 36 0 8 5 18 6 23 3 12 -7 147
-10 147 -3 0 7 90 3 97 -4 3 -3 13 -1 22 4 10 5 23 5 31 0 8 -5 21 -5 30 0 9
5 22 5 30 0 8 -5 21 -5 30 0 9 5 22 5 30 0 8 -5 21 -5 30 0 9 5 22 5 30 0 8
-5 21 -5 31 1 11 6 20 5 24 -1 3 -6 15 -6 30 0 15 6 27 6 30 0 3 -6 15 -6 30
0 15 6 27 6 30 0 3 -6 15 -6 30 0 14 5 25 6 25 2 0 -4 16 -7 35 -7 19 0 35 3
35 7 0 4 7 5 15 2 22 -9 155 -10 155 -2 0 4 12 3 28 -1 15 -5 37 -4 50 0 12 5
22 5 22 0 0 -9 50 -2 51 8 1 10 1 104 0 123 0 9 -9 17 -18 16 -10 0 -31 2 -48
5 -16 3 -48 8 -70 12 -64 10 -68 11 -205 41 -38 8 -162 44 -187 55 -13 5 -33
13 -45 18 -113 43 -269 130 -341 192 -81 68 -207 219 -207 247 0 6 -4 12 -8
14 -18 7 -131 278 -116 278 2 0 0 8 -5 19 -6 10 -13 33 -16 52 -3 19 -10 52
-15 74 -10 47 -19 102 -26 165 -3 25 -7 63 -10 85 -3 22 -7 1164 -8 2538 l-3
2497 34 0 c18 0 33 -4 33 -9 0 -5 10 -31 22 -58 11 -26 22 -52 24 -58 3 -10
85 -208 103 -250 27 -60 41 -95 57 -142 10 -29 22 -53 26 -53 5 0 8 -6 8 -14
0 -11 23 -68 95 -241 5 -11 9 -22 10 -25 1 -3 6 -16 12 -30 6 -14 23 -54 37
-90 15 -36 33 -78 41 -95 7 -16 28 -66 45 -110 29 -75 106 -263 135 -330 7
-16 28 -68 48 -115 19 -47 53 -129 76 -183 23 -54 41 -100 41 -102 0 -3 9 -24
19 -48 11 -23 31 -69 44 -102 13 -33 28 -69 32 -80 5 -11 9 -22 10 -25 1 -3 6
-16 12 -30 63 -147 80 -190 76 -190 -3 0 -1 -6 5 -12 5 -7 35 -76 66 -153 31
-77 61 -149 66 -160 41 -93 77 -185 72 -185 -4 0 -2 -4 3 -8 9 -6 51 -98 59
-127 2 -5 8 -21 13 -35 11 -26 70 -169 155 -375 27 -66 53 -129 58 -140 5 -11
25 -60 45 -110 20 -49 43 -103 50 -120 7 -16 39 -93 70 -170 31 -77 74 -180
95 -230 21 -49 52 -126 70 -170 31 -78 42 -105 73 -175 8 -19 24 -57 35 -85
11 -27 36 -88 56 -135 40 -97 59 -143 61 -150 1 -3 6 -16 12 -30 6 -14 25 -61
43 -105 17 -44 35 -84 38 -90 4 -5 7 -12 8 -15 1 -8 15 -43 34 -85 9 -22 34
-83 55 -135 21 -52 45 -113 55 -135 10 -22 33 -76 50 -120 17 -44 40 -98 50
-120 9 -22 26 -62 36 -90 10 -27 23 -59 30 -70 7 -11 14 -24 15 -30 1 -5 5
-19 9 -30 22 -55 133 -324 145 -350 7 -16 21 -51 31 -77 l19 -48 185 0 186 0
13 38 c7 20 24 64 36 97 13 33 62 166 110 295 47 129 100 271 117 315 17 44
31 85 33 90 1 6 7 24 14 40 6 17 20 53 30 80 10 28 33 88 51 135 17 47 32 90
33 95 2 6 5 15 8 20 8 13 39 107 40 120 0 6 8 18 16 28 9 9 13 17 9 17 -3 0 0
13 9 30 8 16 15 31 15 32 -2 5 45 139 59 173 19 42 51 140 49 145 -2 3 4 17
13 30 9 14 20 39 24 55 11 38 9 35 24 70 12 29 69 180 75 200 2 6 8 21 13 35
6 14 23 61 38 105 15 44 31 85 35 90 4 6 11 25 15 43 3 17 10 32 14 32 4 0 7
8 8 18 0 9 10 42 22 72 23 58 51 134 98 265 15 44 32 83 36 86 5 3 7 8 6 10
-2 2 4 24 13 49 41 113 179 487 185 500 3 8 7 22 9 30 2 8 8 23 13 35 6 11 26
65 46 120 19 55 39 109 44 120 21 45 71 188 71 201 0 8 4 14 10 14 5 0 9 3 8
8 -1 4 2 18 6 32 12 37 136 372 146 395 8 20 34 92 91 250 16 44 33 89 38 100
14 31 43 108 46 125 2 8 15 43 29 77 14 35 26 67 26 72 0 5 8 26 17 47 9 22
17 41 18 44 1 3 7 18 13 33 7 16 12 33 12 38 0 5 4 17 9 27 12 20 70 179 76
205 2 9 7 23 12 30 4 6 8 14 9 17 0 3 3 12 6 20 3 8 13 38 23 65 9 28 21 59
26 70 19 43 131 351 132 363 0 6 4 12 9 12 5 0 7 4 4 8 -3 5 0 19 7 33 7 13
21 49 31 79 10 30 23 61 29 68 5 6 7 12 3 12 -4 0 0 13 9 30 8 16 14 31 13 33
-2 1 4 21 14 42 17 42 30 75 33 88 2 4 4 9 5 12 1 3 3 8 5 13 14 52 20 64 34
72 45 24 43 162 41 -2911 -1 -1597 -2 -2914 -3 -2926 -1 -13 -4 -23 -7 -23 -3
0 -6 -9 -7 -21 -4 -45 -63 -149 -113 -199 -74 -72 -225 -140 -365 -165 -16 -2
-41 -7 -55 -10 -23 -5 -59 -10 -145 -20 -16 -2 -66 -6 -110 -10 -121 -10 -159
-13 -167 -14 -5 -1 -8 -33 -8 -71 0 -70 0 -70 28 -70 15 0 35 0 45 0 9 0 24 0
32 0 8 0 22 0 30 0 8 0 22 0 30 0 8 0 22 0 30 0 8 0 22 0 30 0 8 0 22 0 30 0
8 0 21 0 28 0 6 0 33 0 59 -1 27 -1 51 0 54 4 3 3 16 2 28 -3 13 -4 29 -4 36
0 8 5 18 6 23 3 12 -7 147 -10 147 -3 0 7 90 3 97 -4 3 -3 14 -1 24 4 11 7 20
7 24 0 3 -5 15 -6 28 -1 12 5 32 5 44 0 13 -5 25 -4 28 1 3 6 15 6 30 0 15 -6
27 -6 30 0 3 6 15 6 30 0 15 -6 27 -6 30 0 3 6 15 6 30 0 15 -6 27 -6 30 0 3
6 15 6 30 0 15 -6 27 -6 30 1 4 5 10 7 15 4 9 -5 105 -9 125 -5 6 1 14 2 19 1
33 -7 78 -6 82 0 3 5 15 4 28 -1 12 -4 29 -4 36 0 8 5 18 6 23 3 12 -7 147
-10 147 -3 0 3 21 4 47 2 27 -1 54 -3 61 -2 6 0 19 0 27 0 8 0 22 0 30 0 8 0
22 0 30 0 8 0 22 0 30 0 8 0 22 0 30 0 8 0 22 0 30 0 8 0 22 0 30 0 8 0 22 0
30 0 8 0 22 0 30 0 8 0 22 0 30 0 8 0 22 0 30 0 8 0 22 0 30 0 8 0 22 0 30 0
8 0 22 0 30 0 8 0 22 0 30 0 8 0 22 0 30 0 8 0 21 0 28 0 6 0 33 0 59 -1 27
-1 51 0 54 4 3 3 16 2 28 -3 13 -4 29 -4 36 0 8 5 18 6 23 3 12 -7 147 -10
147 -3 0 7 90 3 97 -4 3 -3 14 -1 24 4 11 7 20 7 24 0 3 -5 15 -6 28 -1 12 5
32 5 44 0 13 -5 25 -4 28 1 3 6 15 6 30 0 15 -6 27 -6 30 0 3 6 15 6 30 0 15
-6 27 -6 30 0 3 6 15 6 30 0 15 -6 27 -6 30 0 3 6 15 6 30 0 15 -6 27 -6 30 1
4 5 10 7 15 4 13 -8 118 -10 126 -3 3 4 18 2 33 -3 14 -6 26 -10 26 -10 0 0
12 4 27 10 16 6 30 6 33 1 3 -5 18 -5 35 0 17 5 30 6 30 2 0 -8 68 -7 76 1 3
3 16 2 28 -3 13 -4 29 -4 36 0 8 5 18 6 22 4 9 -6 11 8 9 80 0 27 -3 52 -6 55
-4 3 -27 6 -53 8 -157 7 -387 27 -387 33 0 1 -13 3 -30 5 -102 8 -257 55 -374
113 -53 27 -141 120 -166 176 -24 54 -44 141 -45 191 -4 257 0 5816 4 5855 7
58 24 115 51 167 14 29 91 114 126 138 56 41 235 109 313 120 17 2 31 4 31 5
0 12 437 56 518 52 19 -1 22 19 18 111 l-1 24 -1305 0 -1304 0 -71 -196 c-40
-108 -76 -205 -81 -216 -5 -11 -18 -47 -30 -80 -11 -33 -23 -67 -26 -75 -4 -8
-7 -17 -8 -20 -1 -3 -5 -12 -8 -20 -4 -8 -22 -60 -42 -115 -19 -55 -39 -109
-45 -120 -5 -11 -19 -49 -31 -85 -11 -36 -25 -71 -31 -77 -6 -7 -8 -13 -5 -13
4 0 -2 -20 -13 -45 -11 -25 -17 -45 -15 -45 2 0 -7 -25 -21 -55 -13 -31 -24
-62 -24 -70 0 -8 -5 -15 -10 -15 -6 0 -9 -3 -8 -7 3 -9 -28 -107 -42 -138 -10
-21 -177 -473 -190 -515 -4 -14 -14 -38 -20 -55 -7 -16 -14 -34 -15 -40 -2 -5
-23 -64 -48 -130 -25 -66 -49 -132 -52 -148 -4 -15 -11 -30 -16 -33 -5 -3 -9
-11 -9 -19 0 -8 -5 -26 -12 -42 -6 -15 -12 -32 -13 -38 -3 -9 -29 -78 -50
-130 -4 -11 -9 -24 -11 -30 -3 -14 -103 -286 -113 -310 -5 -11 -26 -67 -46
-125 -21 -58 -44 -119 -51 -137 -8 -17 -14 -36 -14 -42 0 -6 -4 -19 -9 -29
-10 -17 -89 -225 -96 -252 -6 -22 -93 -259 -110 -300 -8 -19 -35 -93 -61 -165
-26 -71 -60 -166 -76 -210 -17 -44 -39 -105 -49 -135 -11 -30 -24 -64 -28 -75
-5 -11 -14 -36 -21 -55 -7 -19 -16 -44 -20 -55 -4 -11 -13 -33 -19 -50 -6 -16
-16 -43 -22 -60 -7 -16 -13 -32 -13 -35 -1 -3 -6 -18 -13 -35 -6 -16 -28 -77
-48 -135 -21 -58 -44 -118 -50 -135 -7 -16 -30 -77 -50 -135 -21 -58 -42 -116
-48 -130 -5 -14 -11 -31 -13 -39 -1 -8 -12 -23 -23 -34 -22 -22 -48 -17 -57
10 -8 24 -83 213 -94 238 -5 11 -28 67 -50 125 -48 121 -52 132 -74 182 -9 20
-16 39 -16 43 0 6 -7 23 -41 100 -16 36 -70 170 -73 180 -5 17 -17 48 -36 90
-9 22 -21 51 -25 65 -4 14 -15 43 -25 65 -10 22 -56 137 -104 256 -47 119 -93
234 -103 255 -9 21 -17 41 -18 44 0 6 -24 67 -36 95 -44 103 -58 136 -60 143
-4 19 -617 1549 -635 1586 -8 16 -14 34 -14 40 0 6 -6 22 -13 36 -8 14 -18 39
-25 55 -28 77 -188 477 -211 530 -10 22 -18 46 -19 58 -1 4 -8 20 -16 35 -8
15 -31 70 -52 122 -20 52 -42 109 -49 125 -7 17 -25 62 -40 100 -15 39 -30 75
-33 80 -4 6 -7 15 -8 20 -1 6 -10 31 -21 55 -11 25 -35 83 -52 130 -18 47 -39
99 -46 115 -19 45 -37 88 -45 110 -4 11 -12 31 -18 45 -6 14 -19 46 -30 71
l-19 46 -1441 0 -1441 0 -3 -21z"/>
<path d="M10553 20891 c-4 -3 -8 -32 -8 -63 0 -66 -5 -62 119 -73 59 -5 114
-14 246 -40 90 -18 352 -124 380 -155 3 -3 18 -12 34 -20 76 -39 239 -201 301
-299 43 -69 108 -206 121 -256 1 -5 10 -37 18 -70 9 -33 19 -78 22 -100 3 -22
8 -51 11 -65 9 -38 10 -4461 1 -4466 -4 -3 -3 -16 2 -29 5 -14 6 -25 2 -25 -4
0 -7 -19 -8 -43 -1 -75 -39 -327 -58 -392 -2 -5 -6 -23 -10 -40 -13 -55 -99
-265 -107 -265 -5 0 -9 -5 -9 -11 0 -34 -115 -176 -223 -275 -29 -26 -138 -95
-202 -127 -66 -33 -219 -91 -268 -102 -12 -2 -42 -9 -67 -16 -25 -6 -53 -12
-63 -14 -10 -2 -26 -6 -35 -9 -9 -3 -35 -8 -57 -11 -22 -4 -53 -9 -70 -12 -16
-2 -40 -4 -52 -4 -15 0 -23 -5 -24 -17 -5 -81 -2 -125 7 -129 20 -7 104 -8
104 -1 0 4 7 5 15 2 19 -8 165 -11 165 -4 0 7 90 3 97 -4 3 -3 14 -1 24 4 11
7 20 7 24 0 3 -5 15 -6 28 -1 12 5 32 5 44 0 13 -5 25 -4 28 1 3 6 15 6 30 0
15 -6 27 -6 30 0 3 6 15 6 30 0 15 -6 27 -6 30 0 3 6 15 6 30 0 15 -6 27 -6
30 0 3 6 15 6 30 0 15 -6 27 -6 30 1 4 5 10 7 15 4 9 -5 105 -9 125 -5 6 1 14
2 19 1 33 -7 78 -6 82 0 3 5 15 4 28 -1 12 -4 29 -4 36 0 8 5 18 6 23 3 12 -7
147 -10 147 -3 0 3 21 4 47 2 27 -1 54 -3 61 -2 6 0 19 0 27 0 8 0 22 0 30 0
8 0 22 0 30 0 8 0 22 0 30 0 8 0 22 0 30 0 8 0 22 0 30 0 8 0 22 0 30 0 8 0
22 0 30 0 8 0 22 0 30 0 8 0 22 0 30 0 8 0 22 0 30 0 8 0 22 0 30 0 8 0 22 0
30 0 8 0 22 0 30 0 8 0 22 0 30 0 8 0 22 0 30 0 8 0 21 0 28 0 6 0 33 0 59 -1
27 -1 51 0 54 4 3 3 16 2 28 -3 13 -4 29 -4 36 0 8 5 18 6 23 3 12 -7 147 -10
147 -3 0 7 90 3 97 -4 3 -3 14 -1 24 4 11 7 20 7 24 0 3 -5 15 -6 28 -1 12 5
32 5 44 0 13 -5 25 -4 28 1 3 6 15 6 30 0 15 -6 27 -6 30 0 3 6 15 6 30 0 15
-6 27 -6 30 0 3 6 15 6 30 0 15 -6 27 -6 30 0 3 6 15 6 30 0 15 -6 27 -6 30 1
4 5 10 7 15 4 9 -5 79 -8 146 -6 l30 1 -1 70 c-1 39 -4 72 -6 74 -2 2 -34 6
-70 10 -36 3 -90 10 -120 16 -30 6 -65 13 -79 15 -14 3 -36 7 -50 10 -14 4
-38 9 -55 12 -58 10 -264 82 -340 118 -179 86 -317 204 -420 360 -52 79 -115
204 -115 229 0 7 -3 16 -7 20 -5 4 -8 11 -9 14 0 4 -7 32 -16 62 -33 112 -54
224 -63 330 -2 25 -5 45 -6 45 -9 0 -11 394 -13 2282 -2 1200 1 2180 5 2177 4
-2 50 -59 101 -125 51 -67 113 -147 138 -179 25 -31 56 -72 70 -90 41 -55 75
-95 83 -98 4 -2 7 -8 7 -13 0 -5 7 -17 15 -26 12 -15 133 -170 196 -253 11
-14 72 -93 137 -176 64 -83 126 -163 137 -179 11 -15 25 -32 30 -39 6 -6 29
-36 53 -66 23 -30 45 -59 50 -65 4 -5 30 -39 57 -75 28 -36 52 -67 55 -70 20
-20 70 -91 70 -99 0 -6 4 -11 8 -11 5 0 39 -42 78 -92 38 -51 71 -95 74 -98 3
-3 21 -25 40 -50 19 -25 39 -50 45 -56 5 -6 21 -27 35 -47 14 -20 28 -37 33
-37 4 0 7 -4 7 -10 0 -10 14 -29 63 -83 15 -18 27 -35 27 -39 0 -3 6 -13 13
-20 8 -7 71 -87 141 -178 69 -91 132 -172 139 -180 7 -8 23 -31 37 -50 13 -19
29 -39 36 -45 6 -5 46 -57 90 -115 43 -58 89 -116 101 -130 13 -14 23 -28 23
-32 0 -3 6 -13 13 -20 15 -14 275 -350 321 -413 16 -22 34 -44 40 -50 6 -5 45
-55 86 -110 41 -55 81 -107 87 -115 15 -19 159 -204 193 -250 36 -48 149 -192
168 -215 10 -11 28 -36 42 -55 13 -19 27 -37 30 -40 3 -3 21 -25 40 -50 19
-25 38 -49 42 -55 5 -5 22 -28 38 -50 16 -22 36 -47 43 -55 7 -8 27 -33 43
-55 16 -22 31 -42 34 -45 3 -3 34 -43 69 -90 36 -47 71 -92 78 -100 8 -8 34
-42 58 -75 25 -33 50 -67 57 -75 7 -8 54 -68 105 -135 51 -66 102 -131 113
-145 11 -14 57 -72 100 -130 44 -58 86 -112 93 -120 7 -8 34 -44 61 -80 27
-36 56 -72 63 -80 8 -8 30 -37 51 -65 20 -27 42 -55 47 -61 6 -6 17 -22 25
-34 8 -12 20 -28 26 -34 15 -16 223 -286 245 -319 5 -7 361 -13 484 -8 20 1
20 8 20 2879 1 1582 4 2915 8 2962 27 293 68 466 156 650 92 191 257 350 472
455 63 30 217 88 269 100 8 2 40 10 70 19 30 8 71 17 90 20 19 3 45 8 57 10
11 3 41 8 66 11 43 7 45 9 49 43 1 21 2 51 0 68 l-3 31 -1452 -1 -1452 -1 -1
-67 -1 -68 36 -2 c60 -3 66 -3 79 -11 6 -5 12 -6 12 -4 0 3 33 -2 73 -10 39
-8 86 -16 102 -18 17 -2 55 -11 85 -20 30 -9 79 -22 108 -30 29 -8 66 -22 82
-30 17 -9 32 -15 35 -15 42 -1 228 -102 330 -179 236 -179 392 -472 440 -831
2 -13 7 -47 11 -75 3 -27 9 -70 11 -95 7 -65 10 -3670 3 -3670 -3 0 -25 26
-50 58 -24 31 -48 62 -52 67 -5 6 -25 32 -46 60 -20 27 -41 55 -47 61 -5 6
-19 23 -30 38 -35 49 -112 149 -130 170 -5 6 -52 67 -104 136 -52 69 -106 139
-120 156 -14 17 -33 41 -41 54 -8 12 -30 39 -47 59 -18 20 -33 39 -33 43 0 7
-19 33 -45 62 -6 6 -24 29 -40 51 -17 22 -35 46 -42 55 -7 8 -42 53 -78 100
-36 47 -71 92 -78 100 -7 8 -23 31 -37 50 -13 19 -27 37 -30 40 -3 3 -44 55
-90 115 -46 61 -94 124 -107 140 -13 17 -27 35 -31 40 -4 6 -54 71 -111 145
-56 74 -113 147 -127 162 -13 15 -24 30 -24 33 0 3 -7 13 -15 22 -15 19 -151
195 -195 253 -51 68 -151 196 -177 229 -16 19 -30 38 -32 44 -2 5 -11 18 -20
28 -20 22 -13 14 -146 188 -61 79 -123 160 -140 181 -16 21 -39 50 -50 65 -11
16 -24 33 -30 39 -5 6 -29 36 -51 66 -23 30 -76 100 -119 155 -42 55 -111 145
-153 200 -42 55 -82 107 -89 115 -7 8 -114 148 -238 310 -124 162 -234 304
-243 315 -9 11 -35 45 -57 75 -21 30 -42 57 -45 60 -3 3 -28 34 -55 70 -27 36
-52 67 -55 70 -3 3 -17 21 -30 40 -13 19 -27 37 -30 40 -3 3 -25 32 -50 65
-25 33 -55 71 -67 85 -13 14 -23 28 -23 32 0 3 -6 13 -13 20 -7 7 -26 31 -42
53 -17 22 -34 45 -40 52 -17 21 -29 36 -80 103 -28 36 -52 67 -55 70 -3 3 -17
21 -30 40 -13 19 -28 38 -32 41 -11 8 -2405 8 -2415 0z"/>
<path d="M19066 20888 c3 -4 2 -13 -1 -18 -6 -10 -15 -328 -19 -632 0 -76 -4
-138 -8 -138 -4 0 -3 -13 2 -29 4 -16 6 -32 3 -35 -4 -3 -7 -70 -9 -148 -2
-144 -10 -436 -19 -778 -15 -564 -16 -560 3 -561 23 -1 71 -7 110 -14 25 -5
32 -2 32 10 0 8 5 15 10 15 6 0 9 3 8 8 -2 6 42 94 102 203 14 26 38 71 53
100 62 117 141 254 150 260 5 3 8 10 8 15 -1 16 226 387 240 392 5 2 9 8 9 13
0 9 112 179 135 205 6 7 19 24 30 40 179 252 397 482 601 636 50 37 96 68 102
68 7 0 12 4 12 8 0 14 240 129 315 151 158 46 209 52 427 54 l173 2 2 -3150
c2 -2567 0 -3160 -11 -3206 -32 -138 -116 -238 -257 -307 -79 -38 -188 -74
-269 -87 -19 -3 -42 -8 -50 -10 -23 -6 -69 -14 -125 -20 -27 -3 -70 -7 -95
-10 -61 -7 -199 -16 -290 -20 -41 -1 -78 -3 -82 -4 -10 -2 -6 -135 5 -142 5
-4 23 -3 38 1 16 5 29 6 29 2 0 -4 20 -7 45 -7 25 0 45 3 45 7 0 4 13 3 30 -2
18 -5 32 -5 35 1 4 5 13 5 24 0 9 -5 23 -6 31 -1 7 4 24 4 36 0 14 -6 26 -5
29 0 3 6 15 6 29 0 13 -5 27 -6 30 -3 4 4 25 6 49 5 23 -2 48 -2 55 -2 6 0 19
0 27 0 8 0 22 0 30 0 8 0 22 0 30 0 8 0 22 0 30 0 8 0 22 0 30 0 8 0 22 0 30
0 8 0 22 0 30 0 8 0 22 0 30 0 8 0 22 0 30 0 8 0 22 0 30 0 8 0 22 0 30 0 8 0
22 0 30 0 8 0 22 0 30 0 8 0 22 0 30 0 8 0 22 0 30 0 8 0 22 0 30 0 8 0 21 0
28 0 6 0 33 0 59 -1 27 -1 51 0 54 4 3 3 16 2 28 -3 13 -4 29 -4 36 0 8 5 18
6 23 3 12 -7 147 -10 147 -3 0 7 90 3 97 -4 3 -3 14 -1 24 4 11 7 20 7 24 0 3
-5 15 -6 28 -1 12 5 32 5 44 0 13 -5 25 -4 28 1 3 6 15 6 30 0 15 -6 27 -6 30
0 3 6 15 6 30 0 15 -6 27 -6 30 0 3 6 15 6 30 0 15 -6 27 -6 30 0 3 6 15 6 30
0 15 -6 27 -6 30 1 4 5 10 7 15 4 9 -5 105 -9 125 -5 6 1 14 2 19 1 33 -7 78
-6 82 0 3 5 15 4 28 -1 12 -4 29 -4 36 0 8 5 18 6 23 3 12 -7 147 -10 147 -3
0 3 21 4 47 2 27 -1 54 -3 61 -2 6 0 19 0 27 0 8 0 22 0 30 0 8 0 22 0 30 0 8
0 22 0 30 0 8 0 22 0 30 0 8 0 22 0 30 0 8 0 22 0 30 0 8 0 22 0 30 0 8 0 22
0 30 0 8 0 22 0 30 0 8 0 22 0 30 0 8 0 22 0 30 0 8 0 22 0 30 0 8 0 22 0 30
0 8 0 22 0 30 0 8 0 22 0 30 0 8 0 21 0 28 0 6 0 33 0 59 -1 27 -1 51 0 54 4
3 3 16 2 28 -3 13 -4 29 -4 36 0 8 5 18 6 23 3 12 -7 147 -10 147 -3 0 7 90 3
97 -4 3 -3 14 -1 24 4 11 7 20 7 24 0 3 -5 15 -6 28 -1 12 5 32 5 44 0 13 -5
25 -4 28 1 3 6 15 6 30 0 15 -6 27 -6 30 0 3 5 15 6 29 0 12 -4 29 -4 36 0 8
5 21 5 30 0 9 -5 22 -5 30 0 8 5 21 5 29 1 9 -5 25 -5 36 -1 11 4 29 4 41 0
36 -14 47 3 48 70 1 34 -3 65 -9 68 -5 3 -41 7 -80 8 -78 3 -233 12 -280 18
-16 2 -61 7 -100 10 -38 4 -77 9 -85 11 -23 6 -72 16 -100 19 -29 4 -176 45
-199 55 -140 66 -159 79 -220 141 -37 38 -91 130 -97 165 -1 6 -5 28 -9 50
-10 51 -14 6317 -4 6330 14 19 414 6 469 -15 3 -1 8 -2 12 -1 4 0 49 -13 100
-30 109 -35 240 -96 321 -150 32 -22 60 -39 63 -39 2 0 12 -8 22 -17 11 -10
31 -27 46 -37 86 -62 275 -246 380 -371 36 -44 72 -87 80 -95 7 -8 33 -42 57
-75 24 -33 49 -65 54 -72 6 -6 21 -28 35 -48 14 -20 39 -56 56 -79 18 -24 35
-52 38 -64 4 -11 13 -23 21 -26 8 -3 15 -12 15 -21 0 -8 5 -15 10 -15 6 0 10
-7 10 -15 0 -8 5 -15 10 -15 6 0 10 -5 10 -11 0 -6 14 -30 30 -54 17 -24 30
-48 30 -53 0 -6 3 -12 8 -14 9 -4 72 -107 72 -119 0 -5 5 -9 10 -9 6 0 10 -4
10 -9 0 -5 19 -42 43 -83 24 -40 59 -100 77 -133 18 -33 41 -74 50 -90 30 -54
102 -188 142 -265 22 -41 44 -80 49 -86 5 -6 6 -14 2 -17 -3 -4 -2 -7 4 -7 6
0 13 -9 16 -20 3 -14 12 -18 28 -15 13 2 46 6 74 10 27 3 51 8 54 10 5 5 3 81
-14 865 -3 179 -8 402 -10 497 -2 95 -6 177 -10 183 -3 5 -2 10 4 10 7 0 7 8
2 23 -5 12 -5 31 -1 42 4 11 5 24 2 29 -3 5 -7 93 -8 195 -2 102 -5 256 -7
341 l-4 155 -3221 1 c-1772 0 -3219 -3 -3216 -8z"/>
<path d="M26549 20881 c-1 -18 -1 -77 0 -102 1 -12 11 -17 34 -18 17 0 51 -3
75 -6 23 -3 61 -7 85 -10 23 -2 53 -7 67 -10 14 -3 36 -8 50 -11 14 -3 38 -8
55 -11 109 -19 299 -101 420 -181 62 -41 203 -172 245 -227 111 -145 193 -355
217 -550 6 -54 6 -4494 -1 -4570 -5 -62 -15 -151 -21 -189 -2 -11 -6 -37 -9
-56 -5 -32 -9 -50 -20 -97 -2 -10 -9 -40 -16 -67 -16 -72 -79 -234 -108 -281
-14 -22 -24 -40 -22 -40 7 0 -63 -98 -95 -134 -61 -68 -192 -181 -210 -181 -4
0 -21 -11 -39 -25 -18 -14 -35 -25 -38 -25 -3 0 -35 -14 -72 -30 -36 -17 -69
-31 -73 -32 -5 0 -24 -8 -43 -16 -35 -15 -118 -40 -155 -47 -11 -3 -38 -9 -60
-15 -22 -5 -56 -12 -75 -15 -19 -3 -46 -8 -58 -11 -30 -6 -103 -17 -119 -17
-14 0 -15 -6 -15 -72 0 -74 0 -75 30 -75 15 0 35 0 45 0 9 0 24 0 32 0 8 0 22
0 30 0 8 0 22 0 30 0 8 0 22 0 30 0 8 0 22 0 30 0 8 0 22 0 30 0 8 0 22 0 30
0 8 0 22 0 30 0 8 0 22 0 30 0 8 0 22 0 30 0 8 0 22 0 30 0 8 0 22 0 30 0 8 0
22 0 30 0 8 0 22 0 30 0 8 0 22 0 30 0 8 0 22 0 30 0 8 0 21 0 28 0 6 0 33 0
59 -1 27 -1 51 0 54 4 3 3 16 2 28 -3 13 -4 29 -4 36 0 8 5 18 6 23 3 12 -7
147 -10 147 -3 0 7 90 3 97 -4 3 -3 14 -1 24 4 11 7 20 7 24 0 3 -5 15 -6 28
-1 12 5 32 5 44 0 13 -5 25 -4 28 1 3 6 15 6 30 0 15 -6 27 -6 30 0 3 6 15 6
30 0 15 -6 27 -6 30 0 3 6 15 6 30 0 15 -6 27 -6 30 0 3 6 15 6 30 0 15 -6 27
-6 30 1 4 5 10 7 15 4 9 -5 105 -9 125 -5 6 1 14 2 19 1 33 -7 78 -6 82 0 3 5
15 4 28 -1 12 -4 29 -4 36 0 8 5 18 6 23 3 12 -7 147 -10 147 -3 0 3 21 4 47
2 27 -1 54 -3 61 -2 6 0 19 0 27 0 8 0 22 0 30 0 8 0 22 0 30 0 8 0 22 0 30 0
8 0 22 0 30 0 8 0 22 0 30 0 8 0 22 0 30 0 8 0 22 0 30 0 8 0 22 0 30 0 8 0
22 0 30 0 8 0 22 0 30 0 8 0 22 0 30 0 8 0 22 0 30 0 8 0 22 0 30 0 8 0 22 0
30 0 8 0 22 0 30 0 8 0 21 0 28 0 6 1 33 -1 60 -2 26 -2 47 0 47 4 0 4 13 3
30 -2 18 -5 32 -5 36 1 3 5 10 6 16 3 9 -6 129 -9 153 -4 6 1 17 3 25 4 11 1
15 16 16 61 1 79 -1 81 -44 83 -20 1 -48 4 -62 7 -14 3 -41 8 -60 10 -39 6
-100 18 -210 41 -39 9 -42 10 -90 24 -25 7 -49 14 -55 16 -5 1 -36 12 -67 24
-32 12 -59 21 -60 20 -6 -2 -197 99 -208 110 -3 3 -18 14 -34 24 -74 47 -184
160 -245 250 -47 69 -111 195 -126 246 -1 3 -11 37 -22 75 -12 39 -25 86 -29
105 -4 19 -8 37 -9 40 -6 25 -26 154 -30 190 -3 25 -8 59 -11 75 -9 45 -12
4445 -3 4439 4 -2 50 -59 101 -125 51 -67 113 -147 138 -179 25 -31 56 -72 70
-90 41 -55 75 -95 83 -98 4 -2 7 -8 7 -13 0 -5 7 -17 15 -26 12 -15 102 -131
196 -253 173 -224 254 -329 267 -345 10 -11 37 -47 62 -80 25 -33 51 -66 57
-75 17 -20 162 -208 193 -249 14 -19 32 -42 40 -51 8 -10 40 -51 70 -90 30
-40 83 -108 118 -151 34 -43 62 -81 62 -84 0 -3 9 -16 21 -28 11 -12 59 -72
106 -134 46 -62 91 -117 99 -124 8 -6 14 -17 14 -24 0 -7 7 -15 15 -19 8 -3
15 -12 15 -20 0 -8 4 -16 9 -18 6 -1 36 -37 68 -79 125 -164 288 -375 300
-387 7 -7 13 -16 13 -20 0 -4 13 -20 28 -37 15 -16 39 -46 52 -65 13 -19 27
-37 30 -40 3 -3 19 -23 36 -45 16 -22 34 -46 41 -55 16 -19 276 -355 306 -394
12 -16 28 -35 35 -42 6 -7 12 -17 12 -22 0 -6 4 -12 8 -14 4 -2 50 -59 102
-128 52 -68 102 -132 110 -141 8 -9 25 -29 37 -45 11 -16 73 -96 137 -179 100
-130 325 -420 348 -450 4 -5 37 -47 73 -93 36 -45 65 -86 65 -91 0 -5 3 -11 8
-13 7 -3 41 -43 82 -98 14 -18 45 -59 70 -90 25 -31 54 -69 65 -84 11 -16 25
-33 30 -40 6 -6 24 -29 40 -51 17 -22 32 -42 35 -45 3 -3 25 -32 50 -65 25
-33 47 -62 50 -65 3 -3 35 -43 70 -90 67 -88 83 -108 113 -142 9 -12 17 -24
17 -28 0 -3 9 -15 19 -27 11 -11 72 -90 137 -174 65 -85 122 -155 126 -157 4
-2 8 -8 8 -13 0 -5 8 -17 18 -27 9 -10 26 -30 37 -46 11 -15 28 -37 38 -49 10
-12 22 -28 27 -36 6 -12 52 -14 249 -14 133 0 244 3 247 6 4 3 8 1310 9 2904
2 1594 5 2914 8 2933 2 19 7 69 11 110 7 72 35 221 56 298 5 21 9 39 9 42 0 3
8 28 19 55 23 60 33 89 33 92 0 9 97 174 122 207 93 121 230 230 379 301 67
32 193 81 228 90 8 2 51 12 95 23 114 29 216 49 263 51 8 1 12 22 12 69 l0 69
-1452 -1 -1453 -1 -1 -63 c0 -35 2 -65 5 -66 3 -2 29 -7 56 -11 76 -10 86 -12
135 -20 24 -3 47 -8 50 -10 3 -2 25 -6 50 -10 25 -4 48 -9 53 -12 4 -3 22 -7
39 -10 35 -5 197 -58 248 -80 154 -68 208 -99 310 -177 59 -45 149 -132 175
-168 108 -153 191 -323 220 -454 35 -161 41 -193 50 -279 4 -33 9 -73 12 -90
8 -47 10 -3676 2 -3673 -6 3 -110 133 -186 234 -12 16 -29 38 -38 49 -8 11
-29 38 -45 60 -42 55 -73 95 -85 109 -5 6 -52 67 -104 136 -52 69 -106 139
-120 156 -14 17 -33 41 -41 54 -8 12 -30 39 -47 59 -18 20 -33 39 -33 43 0 7
-19 33 -45 62 -6 6 -24 29 -40 51 -17 22 -35 46 -42 55 -7 8 -42 53 -78 100
-36 47 -71 92 -78 100 -7 8 -23 31 -37 50 -13 19 -27 37 -30 40 -4 3 -42 52
-85 110 -44 58 -82 107 -85 110 -3 3 -35 43 -70 90 -35 47 -68 90 -72 95 -4 6
-28 36 -53 67 -25 31 -45 61 -45 66 0 6 -3 12 -7 14 -8 3 -41 42 -83 98 -14
18 -33 42 -42 53 -10 11 -18 23 -18 26 0 3 -10 17 -22 31 -13 14 -52 63 -88
110 -35 47 -68 87 -72 88 -4 2 -8 9 -8 15 0 6 -9 20 -20 32 -12 11 -45 52 -74
91 -29 39 -58 77 -65 85 -6 8 -32 41 -56 74 -25 33 -51 67 -58 75 -7 8 -27 33
-43 55 -16 22 -31 42 -34 45 -3 3 -25 32 -50 65 -24 33 -56 74 -70 91 -14 17
-34 44 -45 59 -11 16 -24 33 -30 39 -5 6 -29 36 -51 66 -23 30 -76 100 -119
155 -42 55 -111 145 -153 200 -42 55 -82 107 -89 115 -7 8 -129 168 -273 355
-143 187 -276 360 -295 385 -19 25 -78 101 -131 170 -53 69 -101 128 -108 132
-6 4 -8 8 -4 8 7 0 -5 16 -47 64 -5 6 -21 27 -35 46 -13 19 -28 40 -32 45 -5
6 -45 57 -89 115 -45 58 -88 114 -98 125 -9 11 -29 38 -46 61 l-29 41 -1208 0
c-1097 0 -1208 -2 -1209 -16z"/>
</g>
</svg>
