<svg aria-hidden="true" style="position:absolute;width:0;height:0;overflow:hidden" xmlns="http://www.w3.org/2000/svg">
  <defs>
    <symbol id="arrow-right" viewBox="0 0 48 32">
      <path fill="#fbd784" style="fill:var(--color1, #fbd784)" d="m32 0-2.82 2.82L40.34 14H0v4h40.34L29.16 29.16 32 32l16-16L32 0z"/>
    </symbol>
    <symbol id="arrow-down" viewBox="0 0 21 32">
      <path fill="#fff" style="fill:var(--color2, #fff)" d="m21.333 21.333-1.88-1.88L12 26.893V0H9.333v26.893l-7.44-7.453L0 21.333 10.667 32l10.667-10.667z"/>
    </symbol>
    <symbol id="twitter" viewBox="0 0 32 32">
      <path fill="#fff" style="fill:var(--color2, #fff)" d="M29.946 8.017a11.433 11.433 0 0 1-3.286.901 5.74 5.74 0 0 0 2.516-3.166 11.46 11.46 0 0 1-3.634 1.389 5.716 5.716 0 0 0-4.177-1.807 5.722 5.722 0 0 0-5.574 7.026A16.245 16.245 0 0 1 3.997 6.381a5.69 5.69 0 0 0-.775 2.877 5.719 5.719 0 0 0 2.546 4.763 5.7 5.7 0 0 1-2.592-.716l-.001.072a5.725 5.725 0 0 0 4.59 5.611 5.722 5.722 0 0 1-2.585.098 5.728 5.728 0 0 0 5.345 3.974 11.48 11.48 0 0 1-7.107 2.45c-.462 0-.917-.027-1.365-.08a16.192 16.192 0 0 0 8.772 2.571c10.525 0 16.281-8.719 16.281-16.281 0-.248-.006-.495-.017-.74a11.636 11.636 0 0 0 2.855-2.962z"/>
    </symbol>
    <symbol id="instagram" viewBox="0 0 32 32">
      <path fill="#fff" style="fill:var(--color2, #fff)" d="M10.4 2.667h11.2a7.733 7.733 0 0 1 7.733 7.733v11.2a7.733 7.733 0 0 1-7.733 7.733H10.4A7.733 7.733 0 0 1 2.667 21.6V10.4A7.733 7.733 0 0 1 10.4 2.667zm-.267 2.666a4.8 4.8 0 0 0-4.8 4.8v11.733a4.8 4.8 0 0 0 4.8 4.8h11.733a4.8 4.8 0 0 0 4.8-4.8V10.133a4.8 4.8 0 0 0-4.8-4.8H10.133zm12.867 2a1.667 1.667 0 1 1 0 3.333 1.667 1.667 0 0 1 0-3.333zm-7 2a6.667 6.667 0 1 1 0 13.334 6.667 6.667 0 0 1 0-13.334zM16 12a4 4 0 1 0 0 8 4 4 0 0 0 0-8z"/>
    </symbol>
    <symbol id="account" viewBox="0 0 32 32">
      <path fill="#fff" style="fill:var(--color2, #fff)" d="M16 2.667C8.64 2.667 2.667 8.64 2.667 16S8.64 29.333 16 29.333 29.333 23.36 29.333 16 23.36 2.667 16 2.667zM9.427 24.373C10 23.173 13.494 22 16 22s6.013 1.173 6.573 2.373c-1.813 1.44-4.093 2.293-6.573 2.293s-4.76-.853-6.573-2.293zM24.48 22.44c-1.907-2.32-6.533-3.107-8.48-3.107s-6.573.787-8.48 3.107A10.6 10.6 0 0 1 5.333 16C5.333 10.12 10.12 5.333 16 5.333S26.667 10.12 26.667 16a10.6 10.6 0 0 1-2.187 6.44zM16 8c-2.587 0-4.667 2.08-4.667 4.667s2.08 4.667 4.667 4.667c2.587 0 4.667-2.08 4.667-4.667S18.587 8 16 8zm0 6.667c-1.107 0-2-.893-2-2s.893-2 2-2 2 .893 2 2-.893 2-2 2z"/>
    </symbol>
    <symbol id="logo" viewBox="0 0 144 32">
      <path fill="#fff" style="fill:var(--color2, #fff)" d="M1.28 30.667h11.861v-.597c-4.267-.555-5.547-2.347-5.547-6.656V3.83h.256l11.093 26.88h1.536L30.42 3.83h.213v23.808c0 1.707-1.067 2.304-4.096 2.432v.597h14.72v-.597c-3.584-.128-4.437-.811-4.437-2.432V3.958c0-1.621.853-2.347 4.437-2.475V.928h-10.88l-8.064 21.931H22.1L13.311.928H1.279v.555c3.669.085 5.248 2.048 5.248 4.608v17.323c0 4.309-1.237 6.144-5.248 6.656v.597zM69.504 31.136h2.048V8.139c0-4.224 1.152-6.059 5.163-6.656V.928H64.598v.555c4.309.512 5.888 2.432 5.888 6.656v14.165h-.043L54.016.928H43.947v.555c3.669.171 5.248 2.347 5.248 4.949v16.981c0 4.309-1.237 6.144-5.248 6.656v.597h12.032v-.597c-4.352-.469-5.717-2.347-5.717-6.656V6.304h.043l19.2 24.832zM84.8 30.667h16.128v-.597c-3.797-.085-4.949-.811-4.949-2.432V1.697h1.024c3.285 0 5.845 3.285 8.832 9.088l.64-.085-.213-9.771H79.425l-.256 9.771.64.085c3.029-5.931 5.632-9.088 8.875-9.088h1.067v25.941c0 1.621-1.195 2.347-4.949 2.432v.597zM136.171 31.136h2.048V8.139c0-4.224 1.152-6.059 5.163-6.656V.928h-12.117v.555c4.309.512 5.888 2.432 5.888 6.656v14.165h-.043L120.683.928h-10.069v.555c3.669.171 5.248 2.347 5.248 4.949v16.981c0 4.309-1.237 6.144-5.248 6.656v.597h12.032v-.597c-4.352-.469-5.717-2.347-5.717-6.656V6.304h.043l19.2 24.832z"/>
    </symbol>
    <symbol id="close" viewBox="0 0 32 32">
<path d="M16 0c-8.837 0-16 7.163-16 16s7.163 16 16 16 16-7.163 16-16-7.163-16-16-16zM16 29c-7.18 0-13-5.82-13-13s5.82-13 13-13 13 5.82 13 13-5.82 13-13 13z"></path>
<path d="M21 8l-5 5-5-5-3 3 5 5-5 5 3 3 5-5 5 5 3-3-5-5 5-5z"></path>
</symbol>
  </defs>
</svg>
